<?xml version="1.0" encoding="utf-8"?>
<!-- Generator: Adobe Illustrator 15.1.0, SVG Export Plug-In . SVG Version: 6.00 Build 0)  -->
<!DOCTYPE svg PUBLIC "-//W3C//DTD SVG 1.1//EN" "http://www.w3.org/Graphics/SVG/1.1/DTD/svg11.dtd">
<svg version="1.1" id="Ebene_1" xmlns="http://www.w3.org/2000/svg" xmlns:xlink="http://www.w3.org/1999/xlink" x="0px" y="0px"
	 width="1999.988px" height="2000px" viewBox="0 0 1999.988 2000" enable-background="new 0 0 1999.988 2000" xml:space="preserve">
<g id="Ebene_1_1_" display="none">
	<g display="inline">
		<g>
			<defs>
				<rect id="SVGID_1_" x="2.476" y="2.477" width="1997.512" height="1997.522"/>
			</defs>
			<clipPath id="SVGID_2_">
				<use xlink:href="#SVGID_1_"  overflow="visible"/>
			</clipPath>
			<path clip-path="url(#SVGID_2_)" fill="#7CC119" d="M1999.971,1757.566V244.893c0-133.854-108.544-242.396-242.416-242.396
				H244.892C111.009,2.497,2.465,111.038,2.465,244.893v1512.674C2.465,1891.479,111.009,2000,244.892,2000h1512.663
				C1891.427,2000,1999.971,1891.479,1999.971,1757.566"/>
		</g>
		<g>
			<defs>
				<rect id="SVGID_3_" x="2.476" y="2.477" width="1997.512" height="1997.522"/>
			</defs>
			<clipPath id="SVGID_4_">
				<use xlink:href="#SVGID_3_"  overflow="visible"/>
			</clipPath>
			<path clip-path="url(#SVGID_4_)" fill="#FFFFFF" d="M1878.768,1757.566V244.893c0-66.916-54.257-121.178-121.213-121.178H244.892
				c-66.938,0-121.208,54.262-121.208,121.178v1512.674c0,66.956,54.27,121.214,121.208,121.214h1512.663
				C1824.511,1878.78,1878.768,1824.522,1878.768,1757.566"/>
		</g>
		<g>
			<defs>
				<rect id="SVGID_5_" x="2.476" y="2.477" width="1997.512" height="1997.522"/>
			</defs>
			<clipPath id="SVGID_6_">
				<use xlink:href="#SVGID_5_"  overflow="visible"/>
			</clipPath>
			<path clip-path="url(#SVGID_6_)" fill="#008A34" d="M883.336,1024.479c-2.027,15.107-4.033,43.345-4.033,62.488
				c0,24.205,8.064,56.438,21.167,90.686l39.301,102.789h2.008l13.103-51.374c8.057-31.244,15.115-60.471,15.115-82.62
				C969.997,1084.95,883.336,1024.479,883.336,1024.479"/>
		</g>
		<g>
			<defs>
				<rect id="SVGID_7_" x="2.476" y="2.477" width="1997.512" height="1997.522"/>
			</defs>
			<clipPath id="SVGID_8_">
				<use xlink:href="#SVGID_7_"  overflow="visible"/>
			</clipPath>
			<path clip-path="url(#SVGID_8_)" fill="#008A34" d="M1051.064,1150.325c-47.075,34.687-74.334,64.464-87.956,223.059
				c-9.929,117.698-86.732,146.174-104.085,261.381l2.472,2.491c0,0,57.909-63.002,105.499-93.493
				c47.587-30.455,124.513-77.32,99.317-158.75C1038.231,1294.166,1044.874,1170.18,1051.064,1150.325"/>
		</g>
		<g>
			<defs>
				<rect id="SVGID_9_" x="2.476" y="2.477" width="1997.512" height="1997.522"/>
			</defs>
			<clipPath id="SVGID_10_">
				<use xlink:href="#SVGID_9_"  overflow="visible"/>
			</clipPath>
			<path clip-path="url(#SVGID_10_)" fill="#008A34" d="M676.05,1228.434c0,0,74.639,64.938,58.542,131.977
				c-27.151,113.072,8.038,164.525,8.038,164.525s2.027-59.798,38.6-87.799c36.583-27.963,89.46-76.096,89.46-76.096
				s-8.402,98.837-82.292,184.421c-49.227,57.027-45.036,158.554-45.036,158.554s-9.117-20.488-43.217-59.563
				c-42.378-48.524-66.758-87.521-68.904-134.86c-1.643-35.831,17.293-74.789,41.15-120.032
				C700.658,1335.969,676.05,1228.434,676.05,1228.434 M852.824,1187.502c2.473,22.305,6.199,45.837,6.199,68.144
				c0,28.515-18.588,49.555-47.083,80.562l-37.177,43.348c0,0,23.552-91.678,23.552-115.207c0-105.32-105.34-117.305-110.64-227.45
				c-2.737-56.741-26.527-104.813-26.527-104.813c-30.008,39.51-46.212,106.754-46.212,148.875
				c0,59.48,19.824,91.672,19.824,137.551c0,95.392-63.191,180.858-63.191,270.082c0,85.505,66.919,161.083,118.945,221.791
				l94.175,107.771v-55.762c0-91.679,11.134-140.006,61.944-219.303c38.413-59.442,75.59-113.983,75.59-187.069
				C922.223,1310.183,886.282,1219.732,852.824,1187.502"/>
		</g>
		<g>
			<defs>
				<rect id="SVGID_11_" x="2.476" y="2.477" width="1997.512" height="1997.522"/>
			</defs>
			<clipPath id="SVGID_12_">
				<use xlink:href="#SVGID_11_"  overflow="visible"/>
			</clipPath>
			<path clip-path="url(#SVGID_12_)" fill="#008A34" d="M536.884,1434.052c5.727-96.262,58.236-123.869,58.236-213.092
				c0-68.144-58.236-140.004-84.261-162.311c0,0,9.918,50.822,9.918,74.354c0,68.144-54.53,106.545-54.53,200.711
				c0,63.162,48.34,142.457,70.636,163.536L536.884,1434.052L536.884,1434.052z"/>
		</g>
		<g>
			<defs>
				<rect id="SVGID_13_" x="2.476" y="2.477" width="1997.512" height="1997.522"/>
			</defs>
			<clipPath id="SVGID_14_">
				<use xlink:href="#SVGID_13_"  overflow="visible"/>
			</clipPath>
			<path clip-path="url(#SVGID_14_)" fill="#008A34" d="M1818.142,452.349h-240.439c-14.14-28.574-35.339-59.225-67.409-87.441
				c-80.645-70.952-177.735-65.275-177.735-65.275H936.313c0,0-1.295,26.574,24.618,66.956
				c39.244,61.102,111.749,60.49,111.749,60.49h129.562c0,0-6.722,81.65,53.849,166.384
				c58.866,82.342,187.323,89.381,187.323,89.381s-135.376,19.853-213.291-88.333c-52.245-72.514-50.739-142.221-50.739-142.221
				l-498.885-0.02c-32.005,0-57.968,25.964-57.968,57.979c0,32.036,25.963,57.98,57.968,57.98l338.345,0.02
				c8.829,0,15.979,7.139,15.979,15.979c0,8.798-7.149,15.958-15.979,15.958H594.934c-32.016,0-57.98,25.944-57.98,57.957
				c0,32.016,25.965,57.979,57.98,57.979l423.908,0.022c8.829,0,15.979,7.158,15.979,15.956c0,8.82-7.148,15.978-15.979,15.978
				H680.498c-32.005,0-57.968,25.965-57.968,57.98c0,32.015,25.963,57.959,57.968,57.959l338.345,0.02
				c8.829,0,15.979,7.158,15.979,15.958c0,8.821-7.148,15.958-15.979,15.958l-261.372,0.021c-23.67,0-42.869,19.199-42.869,42.87
				c0,23.67,19.199,42.853,42.869,42.853l591.618-0.02c0,0,84.992,5.2,176.252-60.511c11.409-8.207,21.1-16.649,29.504-25.113
				h263.298V452.349L1818.142,452.349z"/>
		</g>
	</g>
</g>
<g id="Ebene_2">
	<g>
		<g>
			<defs>
				<rect id="SVGID_15_" x="3.239" y="2.477" width="1996.749" height="1996.749"/>
			</defs>
			<clipPath id="SVGID_16_">
				<use xlink:href="#SVGID_15_"  overflow="visible"/>
			</clipPath>
		</g>
		<g>
			<defs>
				<rect id="SVGID_17_" x="3.239" y="2.477" width="1996.749" height="1996.749"/>
			</defs>
			<clipPath id="SVGID_18_">
				<use xlink:href="#SVGID_17_"  overflow="visible"/>
			</clipPath>
		</g>
		<g>
			<defs>
				<rect id="SVGID_19_" x="3.239" y="2.477" width="1996.749" height="1996.749"/>
			</defs>
			<clipPath id="SVGID_20_">
				<use xlink:href="#SVGID_19_"  overflow="visible"/>
			</clipPath>
			<path clip-path="url(#SVGID_20_)" fill="#008A34" d="M771.767,789.763c84.504,0,153.007-68.494,153.007-152.998
				s-68.503-153.018-153.007-153.018c-84.505,0-153.008,68.514-153.008,153.018C618.76,721.27,687.261,789.763,771.767,789.763"/>
		</g>
		<g>
			<defs>
				<rect id="SVGID_21_" x="3.239" y="2.477" width="1996.749" height="1996.749"/>
			</defs>
			<clipPath id="SVGID_22_">
				<use xlink:href="#SVGID_21_"  overflow="visible"/>
			</clipPath>
			<path clip-path="url(#SVGID_22_)" fill="#008A34" d="M915.751,1092.902h-32.656c0,99.35-103.916,179.921-232.105,179.921h-13.382
				c-9.003,0-16.308,7.274-16.308,16.288c0,3.004,0.929,7.434,2.303,9.844l73.663,186.404H323.299v-369.014
				c0-8.976,7.305-16.288,16.317-16.288h129.891c9.004,0,16.308-7.314,16.308-16.367c0-8.974-7.304-16.288-16.308-16.288H323.299
				c-18.037,0-32.646,14.588-32.646,32.655v417.917h452.134l-83.763-212.854C801.486,1301.683,915.751,1208.105,915.751,1092.902"/>
		</g>
		<g>
			<defs>
				<rect id="SVGID_23_" x="3.239" y="2.477" width="1996.749" height="1996.749"/>
			</defs>
			<clipPath id="SVGID_24_">
				<use xlink:href="#SVGID_23_"  overflow="visible"/>
			</clipPath>
			<path clip-path="url(#SVGID_24_)" fill="#008A34" d="M1728.269,1439.618l-79.563-212.813
				c-11.228-30.006-44.674-45.228-74.681-33.999l0,0l-245.547,91.759l172.29-187.63c18.898-20.954,30.601-48.588,30.601-78.99
				c0-33.081-13.68-62.889-35.602-84.315L1137.29,602.963c-19.135-18.937-45.465-30.995-74.502-30.995
				c-42.638,0-79.147,25.342-95.91,61.654c-0.061,0-129.949,290.813-129.949,290.813H591.866c-39.436,0-71.419,31.982-71.419,71.418
				c0,39.445,31.983,71.428,71.419,71.428h303.456c47.145,0,58.501-32.972,71.695-58.193l92.826-174.178l230.444,215.609
				l-212.771,292.989c-12.295,17.908-19.016,39.653-19.016,63.017c0,61.557,49.91,111.447,111.466,111.447
				c12.65,0,24.608-2.569,35.956-6.443l375.021-134.574l38.646,103.303c11.208,30.007,44.634,45.267,74.66,34.04
				C1724.257,1503.07,1739.477,1469.663,1728.269,1439.618"/>
		</g>
		<g>
			<defs>
				<rect id="SVGID_25_" x="3.239" y="2.477" width="1996.749" height="1996.749"/>
			</defs>
			<clipPath id="SVGID_26_">
				<use xlink:href="#SVGID_25_"  overflow="visible"/>
			</clipPath>
			<path clip-path="url(#SVGID_26_)" fill="#008A34" d="M768.851,809.946c6.019-30.244-47.501,52.562-47.501,52.562
				c-26.537,45.662,59.43,62.779,46.334,9.982C756.328,826.787,764.808,830.305,768.851,809.946"/>
		</g>
		<g>
			<defs>
				<rect id="SVGID_27_" x="3.239" y="2.477" width="1996.749" height="1996.749"/>
			</defs>
			<clipPath id="SVGID_28_">
				<use xlink:href="#SVGID_27_"  overflow="visible"/>
			</clipPath>
			<path clip-path="url(#SVGID_28_)" fill="#008A34" d="M748.728,1093.534c0,23.958-44.783,18.067-33.545,38.981
				c11.257,20.915,88.804,25.579,72.891,57.404c-15.893,31.785-74.008,63.451-127.566,57.363
				c-29.067-3.28-80.333-40.522-23.642-56.612c57.383-16.289,44.209-24.828,25.588-37.993
				c-18.601-13.166-15.021-33.09,12.611-40.325C723.139,1099.742,748.728,1072.027,748.728,1093.534"/>
		</g>
	</g>
</g>
<g id="Ebene_3" display="none">
	<g display="inline">
		<g>
			<defs>
				<rect id="SVGID_29_" x="3.239" y="2.477" width="2499.238" height="2499.237"/>
			</defs>
			<clipPath id="SVGID_30_">
				<use xlink:href="#SVGID_29_"  overflow="visible"/>
			</clipPath>
			<path clip-path="url(#SVGID_30_)" fill="#7CC119" d="M2502.451,2198.431V305.784c0-167.476-135.78-303.283-303.282-303.283
				H306.546C139.033,2.501,3.226,138.308,3.226,305.784V2198.43c0,167.501,135.807,303.282,303.319,303.282h1892.623
				C2366.671,2501.715,2502.451,2365.932,2502.451,2198.431"/>
		</g>
		<g>
			<defs>
				<rect id="SVGID_31_" x="3.239" y="2.477" width="2499.238" height="2499.237"/>
			</defs>
			<clipPath id="SVGID_32_">
				<use xlink:href="#SVGID_31_"  overflow="visible"/>
			</clipPath>
			<path clip-path="url(#SVGID_32_)" fill="#FFFFFF" d="M2350.811,2198.431V305.784c0-83.726-67.893-151.617-151.643-151.617
				H306.546c-83.751,0-151.653,67.892-151.653,151.617V2198.43c0,83.727,67.902,151.666,151.653,151.666h1892.623
				C2282.919,2350.097,2350.811,2282.157,2350.811,2198.431"/>
		</g>
		<g>
			<defs>
				<rect id="SVGID_33_" x="3.239" y="2.477" width="2499.238" height="2499.237"/>
			</defs>
			<clipPath id="SVGID_34_">
				<use xlink:href="#SVGID_33_"  overflow="visible"/>
			</clipPath>
			<path clip-path="url(#SVGID_34_)" fill="#008A34" d="M1512.639,688.834c105.795,0,191.523-85.729,191.523-191.5
				c0-105.795-85.729-191.523-191.523-191.523c-105.745,0-191.501,85.729-191.501,191.523
				C1321.138,603.104,1406.894,688.834,1512.639,688.834"/>
		</g>
		<g>
			<defs>
				<rect id="SVGID_35_" x="3.239" y="2.477" width="2499.238" height="2499.237"/>
			</defs>
			<clipPath id="SVGID_36_">
				<use xlink:href="#SVGID_35_"  overflow="visible"/>
			</clipPath>
			<path clip-path="url(#SVGID_36_)" fill="#008A34" d="M1956.404,1333.613c0-49.384-39.981-89.404-89.366-89.404h-306.746
				l-83.627-421.845c-10.937-90.479-73.682-161.117-161.811-161.117c-56.881,0-106.463,29.986-134.743,74.77l-0.347-0.198
				l-373.599,710.766c-15.153,25.93-24,56.017-24,88.229c0,96.889,78.543,175.418,175.432,175.418h55.508l120.034-119.997
				c28.429-28.452,74.509-28.452,102.938,0c28.428,28.403,28.428,74.521,0,102.926l-17.072,17.071h213.225V2201.6
				c0,40.081,32.511,72.642,72.592,72.642h320.8c40.081,0,72.643-32.511,72.643-72.642c0-40.082-32.562-72.593-72.643-72.593
				h-138.034v-546.195c0-0.1,0-0.148,0-0.248c0-70.513-57.177-127.667-127.666-127.667h-425.914l206.777-393.008l59.479,292.409
				h0.223c9.328,39.339,44.511,68.683,86.72,68.683h379.834C1916.423,1422.979,1956.404,1382.947,1956.404,1333.613"/>
		</g>
		<g>
			<defs>
				<rect id="SVGID_37_" x="3.239" y="2.477" width="2499.238" height="2499.237"/>
			</defs>
			<clipPath id="SVGID_38_">
				<use xlink:href="#SVGID_37_"  overflow="visible"/>
			</clipPath>
			<path clip-path="url(#SVGID_38_)" fill="#008A34" d="M669.841,1710.279h-91.816c-22.577,0-40.874,18.26-40.874,40.823v523.137
				h541.644l-28.8-183.83l-54.9-54.877l26.721,197.834h-443.79v-461.827c0-11.281,9.142-20.437,20.412-20.437h112.24
				L669.841,1710.279z M1348.453,1742.146l-45.475,0.05c0,93.276-80.077,173.34-187.826,207.483l35.27,35.281
				C1268.142,1944.929,1346.944,1849.674,1348.453,1742.146"/>
		</g>
		<g>
			<defs>
				<rect id="SVGID_39_" x="3.239" y="2.477" width="2499.238" height="2499.237"/>
			</defs>
			<clipPath id="SVGID_40_">
				<use xlink:href="#SVGID_39_"  overflow="visible"/>
			</clipPath>
			<path clip-path="url(#SVGID_40_)" fill="#008A34" d="M1217.224,1609.086c-18.024-18.012-47.207-18.012-65.194,0l-207.62,207.582
				l-207.605-207.582c-18.013-18.012-47.195-18.012-65.184,0c-18.011,18.013-18.011,47.207,0,65.17l207.596,207.632
				l-207.595,207.632c-18.012,18.012-18.012,47.207,0,65.169c17.987,18.013,47.171,18.013,65.183,0l207.605-207.581l207.62,207.581
				c17.987,18.013,47.17,18.013,65.194,0c18.012-17.962,18.012-47.157,0-65.169l-207.607-207.632l207.607-207.632
				C1235.235,1656.293,1235.235,1627.098,1217.224,1609.086"/>
		</g>
	</g>
</g>
</svg>
