<?xml version="1.0" encoding="utf-8"?>
<!-- Generator: Adobe Illustrator 15.1.0, SVG Export Plug-In . SVG Version: 6.00 Build 0)  -->
<!DOCTYPE svg PUBLIC "-//W3C//DTD SVG 1.1//EN" "http://www.w3.org/Graphics/SVG/1.1/DTD/svg11.dtd">
<svg version="1.1" id="Ebene_1" xmlns="http://www.w3.org/2000/svg" xmlns:xlink="http://www.w3.org/1999/xlink" x="0px" y="0px"
	 width="1999.988px" height="2000px" viewBox="0 0 1999.988 2000" enable-background="new 0 0 1999.988 2000" xml:space="preserve">
<g id="Ebene_1_1_" display="none">
	<g display="inline">
		<g>
			<defs>
				<rect id="SVGID_1_" x="2.476" y="2.477" width="1997.512" height="1997.522"/>
			</defs>
			<clipPath id="SVGID_2_">
				<use xlink:href="#SVGID_1_"  overflow="visible"/>
			</clipPath>
			<path clip-path="url(#SVGID_2_)" fill="#7CC119" d="M1999.971,1757.566V244.893c0-133.854-108.544-242.396-242.416-242.396
				H244.892C111.009,2.497,2.465,111.038,2.465,244.893v1512.674C2.465,1891.479,111.009,2000,244.892,2000h1512.663
				C1891.427,2000,1999.971,1891.479,1999.971,1757.566"/>
		</g>
		<g>
			<defs>
				<rect id="SVGID_3_" x="2.476" y="2.477" width="1997.512" height="1997.522"/>
			</defs>
			<clipPath id="SVGID_4_">
				<use xlink:href="#SVGID_3_"  overflow="visible"/>
			</clipPath>
			<path clip-path="url(#SVGID_4_)" fill="#FFFFFF" d="M1878.768,1757.566V244.893c0-66.916-54.257-121.178-121.213-121.178H244.892
				c-66.938,0-121.208,54.262-121.208,121.178v1512.674c0,66.956,54.27,121.214,121.208,121.214h1512.663
				C1824.511,1878.78,1878.768,1824.522,1878.768,1757.566"/>
		</g>
		<g>
			<defs>
				<rect id="SVGID_5_" x="2.476" y="2.477" width="1997.512" height="1997.522"/>
			</defs>
			<clipPath id="SVGID_6_">
				<use xlink:href="#SVGID_5_"  overflow="visible"/>
			</clipPath>
			<path clip-path="url(#SVGID_6_)" fill="#008A34" d="M883.336,1024.479c-2.027,15.107-4.033,43.345-4.033,62.488
				c0,24.205,8.064,56.438,21.167,90.686l39.301,102.789h2.008l13.103-51.374c8.057-31.244,15.115-60.471,15.115-82.62
				C969.997,1084.95,883.336,1024.479,883.336,1024.479"/>
		</g>
		<g>
			<defs>
				<rect id="SVGID_7_" x="2.476" y="2.477" width="1997.512" height="1997.522"/>
			</defs>
			<clipPath id="SVGID_8_">
				<use xlink:href="#SVGID_7_"  overflow="visible"/>
			</clipPath>
			<path clip-path="url(#SVGID_8_)" fill="#008A34" d="M1051.064,1150.325c-47.075,34.687-74.334,64.464-87.956,223.059
				c-9.929,117.698-86.732,146.174-104.085,261.381l2.472,2.491c0,0,57.909-63.002,105.499-93.493
				c47.587-30.455,124.513-77.32,99.317-158.75C1038.231,1294.166,1044.874,1170.18,1051.064,1150.325"/>
		</g>
		<g>
			<defs>
				<rect id="SVGID_9_" x="2.476" y="2.477" width="1997.512" height="1997.522"/>
			</defs>
			<clipPath id="SVGID_10_">
				<use xlink:href="#SVGID_9_"  overflow="visible"/>
			</clipPath>
			<path clip-path="url(#SVGID_10_)" fill="#008A34" d="M676.05,1228.434c0,0,74.639,64.938,58.542,131.977
				c-27.151,113.072,8.038,164.525,8.038,164.525s2.027-59.798,38.6-87.799c36.583-27.963,89.46-76.096,89.46-76.096
				s-8.402,98.837-82.292,184.421c-49.227,57.027-45.036,158.554-45.036,158.554s-9.117-20.488-43.217-59.563
				c-42.378-48.524-66.758-87.521-68.904-134.86c-1.643-35.831,17.293-74.789,41.15-120.032
				C700.658,1335.969,676.05,1228.434,676.05,1228.434 M852.824,1187.502c2.473,22.305,6.199,45.837,6.199,68.144
				c0,28.515-18.588,49.555-47.083,80.562l-37.177,43.348c0,0,23.552-91.678,23.552-115.207c0-105.32-105.34-117.305-110.64-227.45
				c-2.737-56.741-26.527-104.813-26.527-104.813c-30.008,39.51-46.212,106.754-46.212,148.875
				c0,59.48,19.824,91.672,19.824,137.551c0,95.392-63.191,180.858-63.191,270.082c0,85.505,66.919,161.083,118.945,221.791
				l94.175,107.771v-55.762c0-91.679,11.134-140.006,61.944-219.303c38.413-59.442,75.59-113.983,75.59-187.069
				C922.223,1310.183,886.282,1219.732,852.824,1187.502"/>
		</g>
		<g>
			<defs>
				<rect id="SVGID_11_" x="2.476" y="2.477" width="1997.512" height="1997.522"/>
			</defs>
			<clipPath id="SVGID_12_">
				<use xlink:href="#SVGID_11_"  overflow="visible"/>
			</clipPath>
			<path clip-path="url(#SVGID_12_)" fill="#008A34" d="M536.884,1434.052c5.727-96.262,58.236-123.869,58.236-213.092
				c0-68.144-58.236-140.004-84.261-162.311c0,0,9.918,50.822,9.918,74.354c0,68.144-54.53,106.545-54.53,200.711
				c0,63.162,48.34,142.457,70.636,163.536L536.884,1434.052L536.884,1434.052z"/>
		</g>
		<g>
			<defs>
				<rect id="SVGID_13_" x="2.476" y="2.477" width="1997.512" height="1997.522"/>
			</defs>
			<clipPath id="SVGID_14_">
				<use xlink:href="#SVGID_13_"  overflow="visible"/>
			</clipPath>
			<path clip-path="url(#SVGID_14_)" fill="#008A34" d="M1818.142,452.349h-240.439c-14.14-28.574-35.339-59.225-67.409-87.441
				c-80.645-70.952-177.735-65.275-177.735-65.275H936.313c0,0-1.295,26.574,24.618,66.956
				c39.244,61.102,111.749,60.49,111.749,60.49h129.562c0,0-6.722,81.65,53.849,166.384
				c58.866,82.342,187.323,89.381,187.323,89.381s-135.376,19.853-213.291-88.333c-52.245-72.514-50.739-142.221-50.739-142.221
				l-498.885-0.02c-32.005,0-57.968,25.964-57.968,57.979c0,32.036,25.963,57.98,57.968,57.98l338.345,0.02
				c8.829,0,15.979,7.139,15.979,15.979c0,8.798-7.149,15.958-15.979,15.958H594.934c-32.016,0-57.98,25.944-57.98,57.957
				c0,32.016,25.965,57.979,57.98,57.979l423.908,0.022c8.829,0,15.979,7.158,15.979,15.956c0,8.82-7.148,15.978-15.979,15.978
				H680.498c-32.005,0-57.968,25.965-57.968,57.98c0,32.015,25.963,57.959,57.968,57.959l338.345,0.02
				c8.829,0,15.979,7.158,15.979,15.958c0,8.821-7.148,15.958-15.979,15.958l-261.372,0.021c-23.67,0-42.869,19.199-42.869,42.87
				c0,23.67,19.199,42.853,42.869,42.853l591.618-0.02c0,0,84.992,5.2,176.252-60.511c11.409-8.207,21.1-16.649,29.504-25.113
				h263.298V452.349L1818.142,452.349z"/>
		</g>
	</g>
</g>
<g id="Ebene_2" display="none">
	<g display="inline">
		<g>
			<defs>
				<rect id="SVGID_15_" x="3.239" y="2.477" width="1996.749" height="1996.749"/>
			</defs>
			<clipPath id="SVGID_16_">
				<use xlink:href="#SVGID_15_"  overflow="visible"/>
			</clipPath>
			<path clip-path="url(#SVGID_16_)" fill="#7CC119" d="M1999.969,1756.921V244.803c0-133.805-108.481-242.307-242.306-242.307
				H245.565C111.731,2.497,3.229,110.999,3.229,244.803v1512.117c0,133.822,108.502,242.306,242.336,242.306h1512.098
				C1891.486,1999.226,1999.969,1890.743,1999.969,1756.921"/>
		</g>
		<g>
			<defs>
				<rect id="SVGID_17_" x="3.239" y="2.477" width="1996.749" height="1996.749"/>
			</defs>
			<clipPath id="SVGID_18_">
				<use xlink:href="#SVGID_17_"  overflow="visible"/>
			</clipPath>
			<path clip-path="url(#SVGID_18_)" fill="#FFFFFF" d="M1878.816,1756.921V244.803c0-66.894-54.241-121.135-121.153-121.135
				H245.565c-66.912,0-121.163,54.241-121.163,121.135v1512.117c0,66.893,54.251,121.173,121.163,121.173h1512.098
				C1824.575,1878.094,1878.816,1823.813,1878.816,1756.921"/>
		</g>
		<g>
			<defs>
				<rect id="SVGID_19_" x="3.239" y="2.477" width="1996.749" height="1996.749"/>
			</defs>
			<clipPath id="SVGID_20_">
				<use xlink:href="#SVGID_19_"  overflow="visible"/>
			</clipPath>
			<path clip-path="url(#SVGID_20_)" fill="#008A34" d="M771.767,789.763c84.504,0,153.007-68.494,153.007-152.998
				s-68.503-153.018-153.007-153.018c-84.505,0-153.008,68.514-153.008,153.018C618.76,721.27,687.261,789.763,771.767,789.763"/>
		</g>
		<g>
			<defs>
				<rect id="SVGID_21_" x="3.239" y="2.477" width="1996.749" height="1996.749"/>
			</defs>
			<clipPath id="SVGID_22_">
				<use xlink:href="#SVGID_21_"  overflow="visible"/>
			</clipPath>
			<path clip-path="url(#SVGID_22_)" fill="#008A34" d="M915.751,1092.902h-32.656c0,99.35-103.916,179.921-232.105,179.921h-13.382
				c-9.003,0-16.308,7.274-16.308,16.288c0,3.004,0.929,7.434,2.303,9.844l73.663,186.404H323.299v-369.014
				c0-8.976,7.305-16.288,16.317-16.288h129.891c9.004,0,16.308-7.314,16.308-16.367c0-8.974-7.304-16.288-16.308-16.288H323.299
				c-18.037,0-32.646,14.588-32.646,32.655v417.917h452.134l-83.763-212.854C801.486,1301.683,915.751,1208.105,915.751,1092.902"/>
		</g>
		<g>
			<defs>
				<rect id="SVGID_23_" x="3.239" y="2.477" width="1996.749" height="1996.749"/>
			</defs>
			<clipPath id="SVGID_24_">
				<use xlink:href="#SVGID_23_"  overflow="visible"/>
			</clipPath>
			<path clip-path="url(#SVGID_24_)" fill="#008A34" d="M1728.269,1439.618l-79.563-212.813
				c-11.228-30.006-44.674-45.228-74.681-33.999l0,0l-245.547,91.759l172.29-187.63c18.898-20.954,30.601-48.588,30.601-78.99
				c0-33.081-13.68-62.889-35.602-84.315L1137.29,602.963c-19.135-18.937-45.465-30.995-74.502-30.995
				c-42.638,0-79.147,25.342-95.91,61.654c-0.061,0-129.949,290.813-129.949,290.813H591.866c-39.436,0-71.419,31.982-71.419,71.418
				c0,39.445,31.983,71.428,71.419,71.428h303.456c47.145,0,58.501-32.972,71.695-58.193l92.826-174.178l230.444,215.609
				l-212.771,292.989c-12.295,17.908-19.016,39.653-19.016,63.017c0,61.557,49.91,111.447,111.466,111.447
				c12.65,0,24.608-2.569,35.956-6.443l375.021-134.574l38.646,103.303c11.208,30.007,44.634,45.267,74.66,34.04
				C1724.257,1503.07,1739.477,1469.663,1728.269,1439.618"/>
		</g>
		<g>
			<defs>
				<rect id="SVGID_25_" x="3.239" y="2.477" width="1996.749" height="1996.749"/>
			</defs>
			<clipPath id="SVGID_26_">
				<use xlink:href="#SVGID_25_"  overflow="visible"/>
			</clipPath>
			<path clip-path="url(#SVGID_26_)" fill="#008A34" d="M768.851,809.946c6.019-30.244-47.501,52.562-47.501,52.562
				c-26.537,45.662,59.43,62.779,46.334,9.982C756.328,826.787,764.808,830.305,768.851,809.946"/>
		</g>
		<g>
			<defs>
				<rect id="SVGID_27_" x="3.239" y="2.477" width="1996.749" height="1996.749"/>
			</defs>
			<clipPath id="SVGID_28_">
				<use xlink:href="#SVGID_27_"  overflow="visible"/>
			</clipPath>
			<path clip-path="url(#SVGID_28_)" fill="#008A34" d="M748.728,1093.534c0,23.958-44.783,18.067-33.545,38.981
				c11.257,20.915,88.804,25.579,72.891,57.404c-15.893,31.785-74.008,63.451-127.566,57.363
				c-29.067-3.28-80.333-40.522-23.642-56.612c57.383-16.289,44.209-24.828,25.588-37.993
				c-18.601-13.166-15.021-33.09,12.611-40.325C723.139,1099.742,748.728,1072.027,748.728,1093.534"/>
		</g>
	</g>
</g>
<g id="Ebene_3">
	<g>
		<g>
			<path fill="#008A34" d="M1209.164,550.838c84.524,0,153.018-68.494,153.018-152.998c0-84.524-68.493-153.018-153.018-153.018
				c-84.483,0-152.998,68.493-152.998,153.018C1056.167,482.344,1124.68,550.838,1209.164,550.838"/>
		</g>
		<g>
			<path fill="#008A34" d="M1563.708,1065.979c0-39.455-31.943-71.429-71.398-71.429h-245.073l-66.812-337.029
				c-8.737-72.289-58.867-128.724-129.277-128.724c-45.444,0-85.058,23.958-107.651,59.735l-0.277-0.158l-298.483,567.861
				c-12.106,20.715-19.175,44.753-19.175,70.49c0,77.408,62.752,140.149,140.16,140.149h44.347l95.901-95.871
				c22.713-22.731,59.529-22.731,82.241,0c22.712,22.692,22.712,59.539,0,82.231l-13.641,13.64h170.354v392.575
				c0,32.023,25.974,58.036,57.997,58.036h256.301c32.021,0,58.036-25.974,58.036-58.036c0-32.021-26.015-57.996-58.036-57.996
				h-110.282v-436.381c0-0.079,0-0.117,0-0.197c0-56.336-45.681-101.999-101.998-101.999H906.658l165.204-313.99l47.521,233.617
				h0.178c7.453,31.43,35.562,54.874,69.284,54.874h303.465C1531.764,1137.377,1563.708,1105.394,1563.708,1065.979"/>
		</g>
		<g>
			<path fill="#008A34" d="M535.816,1366.914h-73.355c-18.038,0-32.656,14.588-32.656,32.616v417.957h432.743l-23.01-146.87
				l-43.862-43.844l21.348,158.059H462.461v-368.974c0-9.014,7.304-16.328,16.308-16.328h89.674L535.816,1366.914z
				 M1077.989,1392.375l-36.332,0.038c0,74.522-63.977,138.489-150.062,165.769l28.178,28.188
				C1013.825,1554.386,1076.784,1478.282,1077.989,1392.375"/>
		</g>
		<g>
			<path fill="#008A34" d="M973.145,1286.065c-14.4-14.39-37.716-14.39-52.086,0l-165.876,165.847l-165.866-165.847
				c-14.391-14.39-37.706-14.39-52.077,0c-14.39,14.391-14.39,37.716,0,52.067l165.856,165.886L537.24,1669.905
				c-14.39,14.39-14.39,37.716,0,52.066c14.371,14.391,37.688,14.391,52.077,0l165.866-165.847l165.876,165.847
				c14.371,14.391,37.686,14.391,52.086,0c14.39-14.352,14.39-37.677,0-52.066l-165.866-165.887l165.866-165.886
				C987.535,1323.782,987.535,1300.457,973.145,1286.065"/>
		</g>
	</g>
</g>
</svg>
