<?xml version="1.0" encoding="utf-8"?>
<!-- Generator: Adobe Illustrator 15.1.0, SVG Export Plug-In . SVG Version: 6.00 Build 0)  -->
<!DOCTYPE svg PUBLIC "-//W3C//DTD SVG 1.1//EN" "http://www.w3.org/Graphics/SVG/1.1/DTD/svg11.dtd">
<svg version="1.1" id="Ebene_1" xmlns="http://www.w3.org/2000/svg" xmlns:xlink="http://www.w3.org/1999/xlink" x="0px" y="0px"
	 width="1999.988px" height="2000px" viewBox="0 0 1999.988 2000" enable-background="new 0 0 1999.988 2000" xml:space="preserve">
<g id="Ebene_1_1_" display="none">
	<g display="inline">
		<g>
			<defs>
				<rect id="SVGID_1_" x="2.476" y="2.477" width="1997.512" height="1997.522"/>
			</defs>
			<clipPath id="SVGID_2_">
				<use xlink:href="#SVGID_1_"  overflow="visible"/>
			</clipPath>
			<path clip-path="url(#SVGID_2_)" fill="#7CC119" d="M1999.971,1757.566V244.893c0-133.854-108.544-242.396-242.416-242.396
				H244.892C111.009,2.497,2.465,111.038,2.465,244.893v1512.674C2.465,1891.479,111.009,2000,244.892,2000h1512.663
				C1891.427,2000,1999.971,1891.479,1999.971,1757.566"/>
		</g>
		<g>
			<defs>
				<rect id="SVGID_3_" x="2.476" y="2.477" width="1997.512" height="1997.522"/>
			</defs>
			<clipPath id="SVGID_4_">
				<use xlink:href="#SVGID_3_"  overflow="visible"/>
			</clipPath>
			<path clip-path="url(#SVGID_4_)" fill="#FFFFFF" d="M1878.768,1757.566V244.893c0-66.916-54.257-121.178-121.213-121.178H244.892
				c-66.938,0-121.208,54.262-121.208,121.178v1512.674c0,66.956,54.27,121.214,121.208,121.214h1512.663
				C1824.511,1878.78,1878.768,1824.522,1878.768,1757.566"/>
		</g>
		<g>
			<defs>
				<rect id="SVGID_5_" x="2.476" y="2.477" width="1997.512" height="1997.522"/>
			</defs>
			<clipPath id="SVGID_6_">
				<use xlink:href="#SVGID_5_"  overflow="visible"/>
			</clipPath>
			<path clip-path="url(#SVGID_6_)" fill="#008A34" d="M883.336,1024.479c-2.027,15.107-4.033,43.345-4.033,62.488
				c0,24.205,8.064,56.438,21.167,90.686l39.301,102.789h2.008l13.103-51.374c8.057-31.244,15.115-60.471,15.115-82.62
				C969.997,1084.95,883.336,1024.479,883.336,1024.479"/>
		</g>
		<g>
			<defs>
				<rect id="SVGID_7_" x="2.476" y="2.477" width="1997.512" height="1997.522"/>
			</defs>
			<clipPath id="SVGID_8_">
				<use xlink:href="#SVGID_7_"  overflow="visible"/>
			</clipPath>
			<path clip-path="url(#SVGID_8_)" fill="#008A34" d="M1051.064,1150.325c-47.075,34.687-74.334,64.464-87.956,223.059
				c-9.929,117.698-86.732,146.174-104.085,261.381l2.472,2.491c0,0,57.909-63.002,105.499-93.493
				c47.587-30.455,124.513-77.32,99.317-158.75C1038.231,1294.166,1044.874,1170.18,1051.064,1150.325"/>
		</g>
		<g>
			<defs>
				<rect id="SVGID_9_" x="2.476" y="2.477" width="1997.512" height="1997.522"/>
			</defs>
			<clipPath id="SVGID_10_">
				<use xlink:href="#SVGID_9_"  overflow="visible"/>
			</clipPath>
			<path clip-path="url(#SVGID_10_)" fill="#008A34" d="M676.05,1228.434c0,0,74.639,64.938,58.542,131.977
				c-27.151,113.072,8.038,164.525,8.038,164.525s2.027-59.798,38.6-87.799c36.583-27.963,89.46-76.096,89.46-76.096
				s-8.402,98.837-82.292,184.421c-49.227,57.027-45.036,158.554-45.036,158.554s-9.117-20.488-43.217-59.563
				c-42.378-48.524-66.758-87.521-68.904-134.86c-1.643-35.831,17.293-74.789,41.15-120.032
				C700.658,1335.969,676.05,1228.434,676.05,1228.434 M852.824,1187.502c2.473,22.305,6.199,45.837,6.199,68.144
				c0,28.515-18.588,49.555-47.083,80.562l-37.177,43.348c0,0,23.552-91.678,23.552-115.207c0-105.32-105.34-117.305-110.64-227.45
				c-2.737-56.741-26.527-104.813-26.527-104.813c-30.008,39.51-46.212,106.754-46.212,148.875
				c0,59.48,19.824,91.672,19.824,137.551c0,95.392-63.191,180.858-63.191,270.082c0,85.505,66.919,161.083,118.945,221.791
				l94.175,107.771v-55.762c0-91.679,11.134-140.006,61.944-219.303c38.413-59.442,75.59-113.983,75.59-187.069
				C922.223,1310.183,886.282,1219.732,852.824,1187.502"/>
		</g>
		<g>
			<defs>
				<rect id="SVGID_11_" x="2.476" y="2.477" width="1997.512" height="1997.522"/>
			</defs>
			<clipPath id="SVGID_12_">
				<use xlink:href="#SVGID_11_"  overflow="visible"/>
			</clipPath>
			<path clip-path="url(#SVGID_12_)" fill="#008A34" d="M536.884,1434.052c5.727-96.262,58.236-123.869,58.236-213.092
				c0-68.144-58.236-140.004-84.261-162.311c0,0,9.918,50.822,9.918,74.354c0,68.144-54.53,106.545-54.53,200.711
				c0,63.162,48.34,142.457,70.636,163.536L536.884,1434.052L536.884,1434.052z"/>
		</g>
		<g>
			<defs>
				<rect id="SVGID_13_" x="2.476" y="2.477" width="1997.512" height="1997.522"/>
			</defs>
			<clipPath id="SVGID_14_">
				<use xlink:href="#SVGID_13_"  overflow="visible"/>
			</clipPath>
			<path clip-path="url(#SVGID_14_)" fill="#008A34" d="M1818.142,452.349h-240.439c-14.14-28.574-35.339-59.225-67.409-87.441
				c-80.645-70.952-177.735-65.275-177.735-65.275H936.313c0,0-1.295,26.574,24.618,66.956
				c39.244,61.102,111.749,60.49,111.749,60.49h129.562c0,0-6.722,81.65,53.849,166.384
				c58.866,82.342,187.323,89.381,187.323,89.381s-135.376,19.853-213.291-88.333c-52.245-72.514-50.739-142.221-50.739-142.221
				l-498.885-0.02c-32.005,0-57.968,25.964-57.968,57.979c0,32.036,25.963,57.98,57.968,57.98l338.345,0.02
				c8.829,0,15.979,7.139,15.979,15.979c0,8.798-7.149,15.958-15.979,15.958H594.934c-32.016,0-57.98,25.944-57.98,57.957
				c0,32.016,25.965,57.979,57.98,57.979l423.908,0.022c8.829,0,15.979,7.158,15.979,15.956c0,8.82-7.148,15.978-15.979,15.978
				H680.498c-32.005,0-57.968,25.965-57.968,57.98c0,32.015,25.963,57.959,57.968,57.959l338.345,0.02
				c8.829,0,15.979,7.158,15.979,15.958c0,8.821-7.148,15.958-15.979,15.958l-261.372,0.021c-23.67,0-42.869,19.199-42.869,42.87
				c0,23.67,19.199,42.853,42.869,42.853l591.618-0.02c0,0,84.992,5.2,176.252-60.511c11.409-8.207,21.1-16.649,29.504-25.113
				h263.298V452.349L1818.142,452.349z"/>
		</g>
	</g>
</g>
<g id="Ebene_2" display="none">
	<g display="inline">
		<g>
			<defs>
				<rect id="SVGID_15_" x="3.239" y="2.477" width="1996.749" height="1996.749"/>
			</defs>
			<clipPath id="SVGID_16_">
				<use xlink:href="#SVGID_15_"  overflow="visible"/>
			</clipPath>
			<path clip-path="url(#SVGID_16_)" fill="#7CC119" d="M1999.969,1756.921V244.803c0-133.805-108.481-242.307-242.306-242.307
				H245.565C111.731,2.497,3.229,110.999,3.229,244.803v1512.117c0,133.822,108.502,242.306,242.336,242.306h1512.098
				C1891.486,1999.226,1999.969,1890.743,1999.969,1756.921"/>
		</g>
		<g>
			<defs>
				<rect id="SVGID_17_" x="3.239" y="2.477" width="1996.749" height="1996.749"/>
			</defs>
			<clipPath id="SVGID_18_">
				<use xlink:href="#SVGID_17_"  overflow="visible"/>
			</clipPath>
			<path clip-path="url(#SVGID_18_)" fill="#FFFFFF" d="M1878.816,1756.921V244.803c0-66.894-54.241-121.135-121.153-121.135
				H245.565c-66.912,0-121.163,54.241-121.163,121.135v1512.117c0,66.893,54.251,121.173,121.163,121.173h1512.098
				C1824.575,1878.094,1878.816,1823.813,1878.816,1756.921"/>
		</g>
		<g>
			<defs>
				<rect id="SVGID_19_" x="3.239" y="2.477" width="1996.749" height="1996.749"/>
			</defs>
			<clipPath id="SVGID_20_">
				<use xlink:href="#SVGID_19_"  overflow="visible"/>
			</clipPath>
			<path clip-path="url(#SVGID_20_)" fill="#008A34" d="M771.767,789.763c84.504,0,153.007-68.494,153.007-152.998
				s-68.503-153.018-153.007-153.018c-84.505,0-153.008,68.514-153.008,153.018C618.76,721.27,687.261,789.763,771.767,789.763"/>
		</g>
		<g>
			<defs>
				<rect id="SVGID_21_" x="3.239" y="2.477" width="1996.749" height="1996.749"/>
			</defs>
			<clipPath id="SVGID_22_">
				<use xlink:href="#SVGID_21_"  overflow="visible"/>
			</clipPath>
			<path clip-path="url(#SVGID_22_)" fill="#008A34" d="M915.751,1092.902h-32.656c0,99.35-103.916,179.921-232.105,179.921h-13.382
				c-9.003,0-16.308,7.274-16.308,16.288c0,3.004,0.929,7.434,2.303,9.844l73.663,186.404H323.299v-369.014
				c0-8.976,7.305-16.288,16.317-16.288h129.891c9.004,0,16.308-7.314,16.308-16.367c0-8.974-7.304-16.288-16.308-16.288H323.299
				c-18.037,0-32.646,14.588-32.646,32.655v417.917h452.134l-83.763-212.854C801.486,1301.683,915.751,1208.105,915.751,1092.902"/>
		</g>
		<g>
			<defs>
				<rect id="SVGID_23_" x="3.239" y="2.477" width="1996.749" height="1996.749"/>
			</defs>
			<clipPath id="SVGID_24_">
				<use xlink:href="#SVGID_23_"  overflow="visible"/>
			</clipPath>
			<path clip-path="url(#SVGID_24_)" fill="#008A34" d="M1728.269,1439.618l-79.563-212.813
				c-11.228-30.006-44.674-45.228-74.681-33.999l0,0l-245.547,91.759l172.29-187.63c18.898-20.954,30.601-48.588,30.601-78.99
				c0-33.081-13.68-62.889-35.602-84.315L1137.29,602.963c-19.135-18.937-45.465-30.995-74.502-30.995
				c-42.638,0-79.147,25.342-95.91,61.654c-0.061,0-129.949,290.813-129.949,290.813H591.866c-39.436,0-71.419,31.982-71.419,71.418
				c0,39.445,31.983,71.428,71.419,71.428h303.456c47.145,0,58.501-32.972,71.695-58.193l92.826-174.178l230.444,215.609
				l-212.771,292.989c-12.295,17.908-19.016,39.653-19.016,63.017c0,61.557,49.91,111.447,111.466,111.447
				c12.65,0,24.608-2.569,35.956-6.443l375.021-134.574l38.646,103.303c11.208,30.007,44.634,45.267,74.66,34.04
				C1724.257,1503.07,1739.477,1469.663,1728.269,1439.618"/>
		</g>
		<g>
			<defs>
				<rect id="SVGID_25_" x="3.239" y="2.477" width="1996.749" height="1996.749"/>
			</defs>
			<clipPath id="SVGID_26_">
				<use xlink:href="#SVGID_25_"  overflow="visible"/>
			</clipPath>
			<path clip-path="url(#SVGID_26_)" fill="#008A34" d="M768.851,809.946c6.019-30.244-47.501,52.562-47.501,52.562
				c-26.537,45.662,59.43,62.779,46.334,9.982C756.328,826.787,764.808,830.305,768.851,809.946"/>
		</g>
		<g>
			<defs>
				<rect id="SVGID_27_" x="3.239" y="2.477" width="1996.749" height="1996.749"/>
			</defs>
			<clipPath id="SVGID_28_">
				<use xlink:href="#SVGID_27_"  overflow="visible"/>
			</clipPath>
			<path clip-path="url(#SVGID_28_)" fill="#008A34" d="M748.728,1093.534c0,23.958-44.783,18.067-33.545,38.981
				c11.257,20.915,88.804,25.579,72.891,57.404c-15.893,31.785-74.008,63.451-127.566,57.363
				c-29.067-3.28-80.333-40.522-23.642-56.612c57.383-16.289,44.209-24.828,25.588-37.993
				c-18.601-13.166-15.021-33.09,12.611-40.325C723.139,1099.742,748.728,1072.027,748.728,1093.534"/>
		</g>
	</g>
</g>
<g id="Ebene_3" display="none">
	<g display="inline">
		<g>
			<defs>
				<rect id="SVGID_29_" x="3.239" y="2.477" width="1996.749" height="1996.749"/>
			</defs>
			<clipPath id="SVGID_30_">
				<use xlink:href="#SVGID_29_"  overflow="visible"/>
			</clipPath>
			<path clip-path="url(#SVGID_30_)" fill="#7CC119" d="M1999.969,1756.921V244.802c0-133.805-108.481-242.307-242.306-242.307
				H245.565C111.731,2.497,3.229,110.998,3.229,244.802v1512.118c0,133.822,108.502,242.306,242.336,242.306h1512.098
				C1891.486,1999.226,1999.969,1890.743,1999.969,1756.921"/>
		</g>
		<g>
			<defs>
				<rect id="SVGID_31_" x="3.239" y="2.477" width="1996.749" height="1996.749"/>
			</defs>
			<clipPath id="SVGID_32_">
				<use xlink:href="#SVGID_31_"  overflow="visible"/>
			</clipPath>
			<path clip-path="url(#SVGID_32_)" fill="#FFFFFF" d="M1878.815,1756.921V244.802c0-66.894-54.241-121.135-121.152-121.135
				H245.565c-66.912,0-121.163,54.241-121.163,121.135v1512.118c0,66.893,54.251,121.171,121.163,121.171h1512.098
				C1824.574,1878.092,1878.815,1823.813,1878.815,1756.921"/>
		</g>
		<g>
			<defs>
				<rect id="SVGID_33_" x="3.239" y="2.477" width="1996.749" height="1996.749"/>
			</defs>
			<clipPath id="SVGID_34_">
				<use xlink:href="#SVGID_33_"  overflow="visible"/>
			</clipPath>
			<path clip-path="url(#SVGID_34_)" fill="#008A34" d="M1209.164,550.838c84.524,0,153.018-68.494,153.018-152.998
				c0-84.524-68.493-153.018-153.018-153.018c-84.483,0-152.998,68.493-152.998,153.018
				C1056.167,482.344,1124.68,550.838,1209.164,550.838"/>
		</g>
		<g>
			<defs>
				<rect id="SVGID_35_" x="3.239" y="2.477" width="1996.749" height="1996.749"/>
			</defs>
			<clipPath id="SVGID_36_">
				<use xlink:href="#SVGID_35_"  overflow="visible"/>
			</clipPath>
			<path clip-path="url(#SVGID_36_)" fill="#008A34" d="M1563.708,1065.979c0-39.455-31.943-71.429-71.398-71.429h-245.073
				l-66.812-337.029c-8.737-72.289-58.867-128.724-129.277-128.724c-45.444,0-85.058,23.958-107.651,59.735l-0.277-0.158
				l-298.483,567.861c-12.106,20.715-19.175,44.753-19.175,70.49c0,77.408,62.752,140.149,140.16,140.149h44.347l95.901-95.871
				c22.713-22.731,59.529-22.731,82.241,0c22.712,22.692,22.712,59.539,0,82.231l-13.641,13.64h170.354v392.575
				c0,32.023,25.974,58.036,57.997,58.036h256.301c32.021,0,58.036-25.974,58.036-58.036c0-32.021-26.015-57.996-58.036-57.996
				h-110.282v-436.381c0-0.079,0-0.117,0-0.197c0-56.336-45.681-101.999-101.998-101.999H906.658l165.204-313.99l47.521,233.617
				h0.178c7.453,31.43,35.562,54.874,69.284,54.874h303.465C1531.764,1137.377,1563.708,1105.394,1563.708,1065.979"/>
		</g>
		<g>
			<defs>
				<rect id="SVGID_37_" x="3.239" y="2.477" width="1996.749" height="1996.749"/>
			</defs>
			<clipPath id="SVGID_38_">
				<use xlink:href="#SVGID_37_"  overflow="visible"/>
			</clipPath>
			<path clip-path="url(#SVGID_38_)" fill="#008A34" d="M535.816,1366.914h-73.355c-18.038,0-32.656,14.588-32.656,32.616v417.957
				h432.743l-23.01-146.87l-43.862-43.844l21.348,158.059H462.461v-368.974c0-9.014,7.304-16.328,16.308-16.328h89.674
				L535.816,1366.914z M1077.989,1392.375l-36.332,0.038c0,74.522-63.977,138.489-150.062,165.769l28.178,28.188
				C1013.825,1554.386,1076.784,1478.282,1077.989,1392.375"/>
		</g>
		<g>
			<defs>
				<rect id="SVGID_39_" x="3.239" y="2.477" width="1996.749" height="1996.749"/>
			</defs>
			<clipPath id="SVGID_40_">
				<use xlink:href="#SVGID_39_"  overflow="visible"/>
			</clipPath>
			<path clip-path="url(#SVGID_40_)" fill="#008A34" d="M973.145,1286.065c-14.4-14.39-37.716-14.39-52.086,0l-165.876,165.847
				l-165.866-165.847c-14.391-14.39-37.706-14.39-52.077,0c-14.39,14.391-14.39,37.716,0,52.067l165.856,165.886L537.24,1669.905
				c-14.39,14.39-14.39,37.716,0,52.066c14.371,14.391,37.688,14.391,52.077,0l165.866-165.847l165.876,165.847
				c14.371,14.391,37.686,14.391,52.086,0c14.39-14.352,14.39-37.677,0-52.066l-165.866-165.887l165.866-165.886
				C987.535,1323.782,987.535,1300.457,973.145,1286.065"/>
		</g>
	</g>
</g>
<g id="Ebene_4" display="none">
	<g display="inline">
		<g>
			<defs>
				<rect id="SVGID_41_" x="0" y="-0.488" width="1999.988" height="1999.978"/>
			</defs>
			<clipPath id="SVGID_42_">
				<use xlink:href="#SVGID_41_"  overflow="visible"/>
			</clipPath>
			<path clip-path="url(#SVGID_42_)" fill="#7CC119" d="M1999.988,1756.796V242.228c0-134.055-108.683-242.716-242.716-242.716
				H242.706C108.673-0.488,0,108.174,0,242.228v1514.567c0,134.034,108.673,242.694,242.706,242.694h1514.567
				C1891.306,1999.49,1999.988,1890.829,1999.988,1756.796"/>
		</g>
		<g>
			<defs>
				<rect id="SVGID_43_" x="0" y="-0.488" width="1999.988" height="1999.978"/>
			</defs>
			<clipPath id="SVGID_44_">
				<use xlink:href="#SVGID_43_"  overflow="visible"/>
			</clipPath>
			<path clip-path="url(#SVGID_44_)" fill="#FFFFFF" d="M1878.62,1756.796V242.228c0-67.018-54.31-121.349-121.348-121.349H242.726
				c-67.027,0-121.378,54.331-121.378,121.349v1514.567c0,66.997,54.351,121.348,121.378,121.348h1514.546
				C1824.311,1878.143,1878.62,1823.793,1878.62,1756.796"/>
		</g>
		<g>
			<defs>
				<rect id="SVGID_45_" x="0" y="-0.488" width="1999.988" height="1999.978"/>
			</defs>
			<clipPath id="SVGID_46_">
				<use xlink:href="#SVGID_45_"  overflow="visible"/>
			</clipPath>
			<path clip-path="url(#SVGID_46_)" fill="#008A34" d="M905.082,1533.959c-2.634-30.438-27.884-54.392-58.991-54.392
				c-1.349-48.636-59.52-41.462-59.52-79.358c0-32.869-59.509,46.488-59.509,79.358c-32.87,0-59.519,26.669-59.519,59.499
				c0,18.238,8.339,34.329,21.228,45.271c-8.653,10.78-14.753,22.535-14.003,33.884c2.655,40.896,59.225,97.881,58.475,62.862
				c-0.578-28.088,17.529-39.354,33.925-49.284l-19.404-49.123c-1.388-2.392-2.321-6.851-2.321-9.85
				c0-8.998,7.326-16.334,16.354-16.334c0.537,0,11.034,0,13.404,0C823.01,1556.615,867.086,1548.348,905.082,1533.959"/>
		</g>
		<g>
			<defs>
				<rect id="SVGID_47_" x="0" y="-0.488" width="1999.988" height="1999.978"/>
			</defs>
			<clipPath id="SVGID_48_">
				<use xlink:href="#SVGID_47_"  overflow="visible"/>
			</clipPath>
			<path clip-path="url(#SVGID_48_)" fill="#008A34" d="M1207.885,548.738c84.667,0,153.265-68.618,153.265-153.245
				c0-84.646-68.598-153.265-153.265-153.265c-84.628,0-153.246,68.618-153.246,153.265
				C1054.639,480.121,1123.258,548.738,1207.885,548.738"/>
		</g>
		<g>
			<defs>
				<rect id="SVGID_49_" x="0" y="-0.488" width="1999.988" height="1999.978"/>
			</defs>
			<clipPath id="SVGID_50_">
				<use xlink:href="#SVGID_49_"  overflow="visible"/>
			</clipPath>
			<path clip-path="url(#SVGID_50_)" fill="#008A34" d="M1563.011,1064.699c0-39.476-32.02-71.495-71.536-71.495h-245.451
				l-66.916-337.628c-8.775-72.387-58.972-128.905-129.495-128.905c-45.515,0-85.195,23.993-107.811,59.822l-0.294-0.142
				l-298.992,568.771c-12.119,20.751-19.191,44.826-19.191,70.646c0,77.494,62.853,140.355,140.407,140.355h379.79v393.227
				c0,32.06,26.02,58.079,58.12,58.079h256.699c32.12,0,58.1-25.979,58.1-58.079c0-32.102-25.979-58.12-58.1-58.12h-110.466v-437.08
				c0-0.081,0-0.122,0-0.202c0-56.418-45.719-102.177-102.137-102.177H904.9l165.465-314.506l47.624,234.012h0.143
				c7.477,31.452,35.625,54.959,69.407,54.959h303.938C1530.992,1136.235,1563.011,1104.217,1563.011,1064.699"/>
		</g>
		<g>
			<defs>
				<rect id="SVGID_51_" x="0" y="-0.488" width="1999.988" height="1999.978"/>
			</defs>
			<clipPath id="SVGID_52_">
				<use xlink:href="#SVGID_51_"  overflow="visible"/>
			</clipPath>
			<path clip-path="url(#SVGID_52_)" fill="#008A34" d="M1063.091,1391.657h-32.708c0,99.543-104.093,180.198-232.482,180.198
				c-2.361,0-12.868,0-13.405,0c-9.027,0-16.354,7.335-16.354,16.333c0,3,0.941,7.458,2.33,9.89l73.766,186.684H469.676v-369.596
				c0-9.038,7.306-16.334,16.334-16.334h130.111c9.029,0,16.355-7.337,16.355-16.375c0-8.998-7.326-16.334-16.355-16.334H469.676
				c-18.076,0-32.708,14.674-32.708,32.709v418.638h452.886l-83.898-213.229C948.642,1600.795,1063.091,1507.088,1063.091,1391.657"
				/>
		</g>
		<g>
			<defs>
				<rect id="SVGID_53_" x="0" y="-0.488" width="1999.988" height="1999.978"/>
			</defs>
			<clipPath id="SVGID_54_">
				<use xlink:href="#SVGID_53_"  overflow="visible"/>
			</clipPath>
			<path clip-path="url(#SVGID_54_)" fill="#008A34" d="M601.115,1524.354c-23.426-13.577-7.367-53.257,15.604-67.563
				c22.971-14.389,108.226,2.918,81.436,6.932C626.974,1474.3,630.145,1541.175,601.115,1524.354"/>
		</g>
		<g>
			<defs>
				<rect id="SVGID_55_" x="0" y="-0.488" width="1999.988" height="1999.978"/>
			</defs>
			<clipPath id="SVGID_56_">
				<use xlink:href="#SVGID_55_"  overflow="visible"/>
			</clipPath>
			<path clip-path="url(#SVGID_56_)" fill="#008A34" d="M953.324,1480.621c12.93-16.009-9.271-39.76-29.485-43.69
				c-20.194-3.933-75.994,31.573-55.882,27.114C921.345,1452.17,937.304,1500.481,953.324,1480.621"/>
		</g>
	</g>
</g>
<g id="Ebene_5" display="none">
	<g display="inline">
		<g>
			<defs>
				<rect id="SVGID_57_" x="0" y="-0.763" width="1999.988" height="1999.979"/>
			</defs>
			<clipPath id="SVGID_58_">
				<use xlink:href="#SVGID_57_"  overflow="visible"/>
			</clipPath>
			<path clip-path="url(#SVGID_58_)" fill="#7CC119" d="M1999.969,1756.518V241.955c0-134.021-108.677-242.697-242.718-242.697
				H242.717C108.667-0.743-0.01,107.934-0.01,241.955v1514.563c0,134.04,108.677,242.698,242.727,242.698h1514.534
				C1891.292,1999.217,1999.969,1890.558,1999.969,1756.518"/>
		</g>
		<g>
			<defs>
				<rect id="SVGID_59_" x="0" y="-0.763" width="1999.988" height="1999.979"/>
			</defs>
			<clipPath id="SVGID_60_">
				<use xlink:href="#SVGID_59_"  overflow="visible"/>
			</clipPath>
			<path clip-path="url(#SVGID_60_)" fill="#FFFFFF" d="M1878.619,1756.518V241.955c0-67-54.327-121.329-121.368-121.329H242.717
				c-67.021,0-121.358,54.329-121.358,121.329v1514.563c0,67,54.338,121.368,121.358,121.368h1514.534
				C1824.292,1877.886,1878.619,1823.518,1878.619,1756.518"/>
		</g>
		<g>
			<defs>
				<rect id="SVGID_61_" x="0" y="-0.763" width="1999.988" height="1999.979"/>
			</defs>
			<clipPath id="SVGID_62_">
				<use xlink:href="#SVGID_61_"  overflow="visible"/>
			</clipPath>
			<path clip-path="url(#SVGID_62_)" fill="#008A34" d="M1308.326,1623.428l63.675-38.847l-245.312-141.683l132.872,139.308
				l-73.237,38.449l254.874,139.268L1308.326,1623.428z M1586.938,1369.405l-278.732,81.692l24.592-78.999l-192.447-4.515
				l273.663-73.296l-17.581,72.505L1586.938,1369.405z M1307.218,1107.622l-38.807-63.674l-141.722,245.312l139.307-132.854
				l38.471,73.218l139.307-254.864L1307.218,1107.622z M1005.044,1817.182H752.169v-184.726
				c-34.768-29.025-56.903-72.584-56.903-121.408c0,0,0-60.585,0-157.997l162.838,99.589
				c51.458,31.045,124.259,9.346,155.987-42.528c34.945-57.14,17.799-130.12-34.618-162.67l-242.729-147.226
				c0,0,129.328-256.311,133.021-264.725c9.117-17.799-16.829-33.321-27.394-13.106l-147.106,288.206l-0.326,0.673l-0.1,0.198
				l0.426,0.236l263.824,158.513c41.915,25.185,55.457,79.553,30.292,121.448c-25.185,41.896-79.533,55.438-121.448,30.252
				L665.26,1300.148l-132.397-79.553c-41.904-25.186-53.705-76.82-30.263-121.448c0.06-0.118,211.355-415.118,211.355-415.118
				l0.079,0.04c26.66-49.616,79.01-83.354,139.287-83.354c87.274,0,158.037,70.762,158.037,158.036v366.136
				c56.13,58.961,91.77,146.078,91.77,243.45c0,101.055-38.291,191.101-98.084,250.062L1005.044,1817.182L1005.044,1817.182z
				 M1094.693,664.863c105.608,0,191.219-85.591,191.219-191.2c0-105.589-85.61-191.201-191.219-191.201
				c-105.579,0-191.189,85.612-191.189,191.201C903.504,579.272,989.114,664.863,1094.693,664.863"/>
		</g>
	</g>
</g>
<g id="Ebene_6">
	<g>
		<g>
			<path fill="#008A34" d="M1199.074,933.122c-27.48-83.097-105.646-143.127-197.912-143.127
				c-92.322,0-170.479,60.031-197.932,143.107c46.854,18.315,72.95,69.386,63.03,112.865c0,0-7.644,38.45-18.591,93.452
				c38.122,41.499,92.68,67.673,153.491,67.673c60.783,0,115.33-26.174,153.443-67.713c-10.949-54.964-18.591-93.413-18.591-93.413
				C1126.094,1002.488,1152.19,951.436,1199.074,933.122 M1293.952,1756.518v-157.165c-30.848-15.048-54.666-41.816-62.388-74.96
				c-2.633-11.999-42.35-211.217-69.752-348.781c-42.489,38.728-98.619,62.685-160.65,62.685
				c-62.069,0-118.211-23.957-160.709-62.645c-27.392,137.524-67.108,336.704-69.742,348.702
				c-7.723,33.183-31.551,59.912-62.388,74.999v157.165H1293.952z"/>
		</g>
	</g>
	<polygon fill="#008A34" points="826.623,533.655 753.237,541.832 914.065,771.641 853.144,591.033 934.954,587.172 
		764.544,355.522 	"/>
	<polygon fill="#008A34" points="561.226,752.455 510.272,805.893 781.204,878.555 618.417,779.383 678.615,723.826 399.17,655.914 
			"/>
	<polygon fill="#008A34" points="1171.613,536.447 1110.136,495.561 1085.626,774.986 1155.042,597.447 1220.18,647.084 
		1238.554,360.076 	"/>
	<polygon fill="#008A34" points="1436.169,752.554 1415.359,681.732 1216.973,880.002 1384.235,788.629 1402.272,868.537 
		1600.8,660.469 	"/>
	<g>
		<g>
			<path fill="#008A34" d="M769.304,950.922c-45.935-11.306-91.957,17.047-102.787,63.328l-80.592,351.513l-0.198-0.079
				c-2.476,5.504-7.95,9.385-14.394,9.385c-8.741,0-15.82-7.048-15.82-15.8c0-1.584,22.403-102.361,37.776-171.224
				c-34.332,33.145-58.416,76.029-67.881,128.181l-12.127,135.545l0.061-0.079c-0.604,4.87-1.129,9.781-1.129,14.849
				c0,65.417,53.032,118.438,118.438,118.438c52.834,0,100.965-34.173,112.321-82.562c3.792-17.266,89.897-447.223,89.897-447.223
				C843.69,1008.903,815.249,962.207,769.304,950.922"/>
		</g>
		<g>
			<path fill="#008A34" d="M1232.97,950.922c45.934-11.286,91.967,17.066,102.797,63.328l80.583,351.513l0.198-0.079
				c2.493,5.543,7.959,9.424,14.413,9.424c8.73,0,15.8-7.088,15.8-15.839c0-1.544-22.412-102.361-37.776-171.224
				c34.332,33.145,58.407,76.029,67.892,128.221l12.117,135.505l-0.06-0.079c0.612,4.87,1.146,9.82,1.146,14.849
				c0,65.417-53.061,118.438-118.458,118.438c-52.844,0-100.956-34.133-112.319-82.562c-3.803-17.226-89.889-447.223-89.889-447.223
				C1158.585,1008.903,1187.036,962.226,1232.97,950.922"/>
		</g>
	</g>
</g>
</svg>
