<?xml version="1.0" encoding="utf-8"?>
<!-- Generator: Adobe Illustrator 15.1.0, SVG Export Plug-In . SVG Version: 6.00 Build 0)  -->
<!DOCTYPE svg PUBLIC "-//W3C//DTD SVG 1.1//EN" "http://www.w3.org/Graphics/SVG/1.1/DTD/svg11.dtd">
<svg version="1.1" id="Ebene_1" xmlns="http://www.w3.org/2000/svg" xmlns:xlink="http://www.w3.org/1999/xlink" x="0px" y="0px"
	 width="1999.988px" height="2000px" viewBox="0 0 1999.988 2000" enable-background="new 0 0 1999.988 2000" xml:space="preserve">
<g id="Ebene_1_1_" display="none">
	<g display="inline">
		<g>
			<defs>
				<rect id="SVGID_1_" x="2.476" y="2.477" width="1997.512" height="1997.522"/>
			</defs>
			<clipPath id="SVGID_2_">
				<use xlink:href="#SVGID_1_"  overflow="visible"/>
			</clipPath>
			<path clip-path="url(#SVGID_2_)" fill="#7CC119" d="M1999.971,1757.566V244.893c0-133.854-108.544-242.396-242.416-242.396
				H244.892C111.009,2.497,2.465,111.038,2.465,244.893v1512.674C2.465,1891.479,111.009,2000,244.892,2000h1512.663
				C1891.427,2000,1999.971,1891.479,1999.971,1757.566"/>
		</g>
		<g>
			<defs>
				<rect id="SVGID_3_" x="2.476" y="2.477" width="1997.512" height="1997.522"/>
			</defs>
			<clipPath id="SVGID_4_">
				<use xlink:href="#SVGID_3_"  overflow="visible"/>
			</clipPath>
			<path clip-path="url(#SVGID_4_)" fill="#FFFFFF" d="M1878.768,1757.566V244.893c0-66.916-54.257-121.178-121.213-121.178H244.892
				c-66.938,0-121.208,54.262-121.208,121.178v1512.674c0,66.956,54.27,121.214,121.208,121.214h1512.663
				C1824.511,1878.78,1878.768,1824.522,1878.768,1757.566"/>
		</g>
		<g>
			<defs>
				<rect id="SVGID_5_" x="2.476" y="2.477" width="1997.512" height="1997.522"/>
			</defs>
			<clipPath id="SVGID_6_">
				<use xlink:href="#SVGID_5_"  overflow="visible"/>
			</clipPath>
			<path clip-path="url(#SVGID_6_)" fill="#008A34" d="M883.336,1024.479c-2.027,15.107-4.033,43.345-4.033,62.488
				c0,24.205,8.064,56.438,21.167,90.686l39.301,102.789h2.008l13.103-51.374c8.057-31.244,15.115-60.471,15.115-82.62
				C969.997,1084.95,883.336,1024.479,883.336,1024.479"/>
		</g>
		<g>
			<defs>
				<rect id="SVGID_7_" x="2.476" y="2.477" width="1997.512" height="1997.522"/>
			</defs>
			<clipPath id="SVGID_8_">
				<use xlink:href="#SVGID_7_"  overflow="visible"/>
			</clipPath>
			<path clip-path="url(#SVGID_8_)" fill="#008A34" d="M1051.064,1150.325c-47.075,34.687-74.334,64.464-87.956,223.059
				c-9.929,117.698-86.732,146.174-104.085,261.381l2.472,2.491c0,0,57.909-63.002,105.499-93.493
				c47.587-30.455,124.513-77.32,99.317-158.75C1038.231,1294.166,1044.874,1170.18,1051.064,1150.325"/>
		</g>
		<g>
			<defs>
				<rect id="SVGID_9_" x="2.476" y="2.477" width="1997.512" height="1997.522"/>
			</defs>
			<clipPath id="SVGID_10_">
				<use xlink:href="#SVGID_9_"  overflow="visible"/>
			</clipPath>
			<path clip-path="url(#SVGID_10_)" fill="#008A34" d="M676.05,1228.434c0,0,74.639,64.938,58.542,131.977
				c-27.151,113.072,8.038,164.525,8.038,164.525s2.027-59.798,38.6-87.799c36.583-27.963,89.46-76.096,89.46-76.096
				s-8.402,98.837-82.292,184.421c-49.227,57.027-45.036,158.554-45.036,158.554s-9.117-20.488-43.217-59.563
				c-42.378-48.524-66.758-87.521-68.904-134.86c-1.643-35.831,17.293-74.789,41.15-120.032
				C700.658,1335.969,676.05,1228.434,676.05,1228.434 M852.824,1187.502c2.473,22.305,6.199,45.837,6.199,68.144
				c0,28.515-18.588,49.555-47.083,80.562l-37.177,43.348c0,0,23.552-91.678,23.552-115.207c0-105.32-105.34-117.305-110.64-227.45
				c-2.737-56.741-26.527-104.813-26.527-104.813c-30.008,39.51-46.212,106.754-46.212,148.875
				c0,59.48,19.824,91.672,19.824,137.551c0,95.392-63.191,180.858-63.191,270.082c0,85.505,66.919,161.083,118.945,221.791
				l94.175,107.771v-55.762c0-91.679,11.134-140.006,61.944-219.303c38.413-59.442,75.59-113.983,75.59-187.069
				C922.223,1310.183,886.282,1219.732,852.824,1187.502"/>
		</g>
		<g>
			<defs>
				<rect id="SVGID_11_" x="2.476" y="2.477" width="1997.512" height="1997.522"/>
			</defs>
			<clipPath id="SVGID_12_">
				<use xlink:href="#SVGID_11_"  overflow="visible"/>
			</clipPath>
			<path clip-path="url(#SVGID_12_)" fill="#008A34" d="M536.884,1434.052c5.727-96.262,58.236-123.869,58.236-213.092
				c0-68.144-58.236-140.004-84.261-162.311c0,0,9.918,50.822,9.918,74.354c0,68.144-54.53,106.545-54.53,200.711
				c0,63.162,48.34,142.457,70.636,163.536L536.884,1434.052L536.884,1434.052z"/>
		</g>
		<g>
			<defs>
				<rect id="SVGID_13_" x="2.476" y="2.477" width="1997.512" height="1997.522"/>
			</defs>
			<clipPath id="SVGID_14_">
				<use xlink:href="#SVGID_13_"  overflow="visible"/>
			</clipPath>
			<path clip-path="url(#SVGID_14_)" fill="#008A34" d="M1818.142,452.349h-240.439c-14.14-28.574-35.339-59.225-67.409-87.441
				c-80.645-70.952-177.735-65.275-177.735-65.275H936.313c0,0-1.295,26.574,24.618,66.956
				c39.244,61.102,111.749,60.49,111.749,60.49h129.562c0,0-6.722,81.65,53.849,166.384
				c58.866,82.342,187.323,89.381,187.323,89.381s-135.376,19.853-213.291-88.333c-52.245-72.514-50.739-142.221-50.739-142.221
				l-498.885-0.02c-32.005,0-57.968,25.964-57.968,57.979c0,32.036,25.963,57.98,57.968,57.98l338.345,0.02
				c8.829,0,15.979,7.139,15.979,15.979c0,8.798-7.149,15.958-15.979,15.958H594.934c-32.016,0-57.98,25.944-57.98,57.957
				c0,32.016,25.965,57.979,57.98,57.979l423.908,0.022c8.829,0,15.979,7.158,15.979,15.956c0,8.82-7.148,15.978-15.979,15.978
				H680.498c-32.005,0-57.968,25.965-57.968,57.98c0,32.015,25.963,57.959,57.968,57.959l338.345,0.02
				c8.829,0,15.979,7.158,15.979,15.958c0,8.821-7.148,15.958-15.979,15.958l-261.372,0.021c-23.67,0-42.869,19.199-42.869,42.87
				c0,23.67,19.199,42.853,42.869,42.853l591.618-0.02c0,0,84.992,5.2,176.252-60.511c11.409-8.207,21.1-16.649,29.504-25.113
				h263.298V452.349L1818.142,452.349z"/>
		</g>
	</g>
</g>
<g id="Ebene_2" display="none">
	<g display="inline">
		<g>
			<defs>
				<rect id="SVGID_15_" x="3.239" y="2.477" width="1996.749" height="1996.749"/>
			</defs>
			<clipPath id="SVGID_16_">
				<use xlink:href="#SVGID_15_"  overflow="visible"/>
			</clipPath>
			<path clip-path="url(#SVGID_16_)" fill="#7CC119" d="M1999.969,1756.921V244.803c0-133.805-108.481-242.307-242.306-242.307
				H245.565C111.731,2.497,3.229,110.999,3.229,244.803v1512.117c0,133.822,108.502,242.306,242.336,242.306h1512.098
				C1891.486,1999.226,1999.969,1890.743,1999.969,1756.921"/>
		</g>
		<g>
			<defs>
				<rect id="SVGID_17_" x="3.239" y="2.477" width="1996.749" height="1996.749"/>
			</defs>
			<clipPath id="SVGID_18_">
				<use xlink:href="#SVGID_17_"  overflow="visible"/>
			</clipPath>
			<path clip-path="url(#SVGID_18_)" fill="#FFFFFF" d="M1878.816,1756.921V244.803c0-66.894-54.241-121.135-121.153-121.135
				H245.565c-66.912,0-121.163,54.241-121.163,121.135v1512.117c0,66.893,54.251,121.173,121.163,121.173h1512.098
				C1824.575,1878.094,1878.816,1823.813,1878.816,1756.921"/>
		</g>
		<g>
			<defs>
				<rect id="SVGID_19_" x="3.239" y="2.477" width="1996.749" height="1996.749"/>
			</defs>
			<clipPath id="SVGID_20_">
				<use xlink:href="#SVGID_19_"  overflow="visible"/>
			</clipPath>
			<path clip-path="url(#SVGID_20_)" fill="#008A34" d="M771.767,789.763c84.504,0,153.007-68.494,153.007-152.998
				s-68.503-153.018-153.007-153.018c-84.505,0-153.008,68.514-153.008,153.018C618.76,721.27,687.261,789.763,771.767,789.763"/>
		</g>
		<g>
			<defs>
				<rect id="SVGID_21_" x="3.239" y="2.477" width="1996.749" height="1996.749"/>
			</defs>
			<clipPath id="SVGID_22_">
				<use xlink:href="#SVGID_21_"  overflow="visible"/>
			</clipPath>
			<path clip-path="url(#SVGID_22_)" fill="#008A34" d="M915.751,1092.902h-32.656c0,99.35-103.916,179.921-232.105,179.921h-13.382
				c-9.003,0-16.308,7.274-16.308,16.288c0,3.004,0.929,7.434,2.303,9.844l73.663,186.404H323.299v-369.014
				c0-8.976,7.305-16.288,16.317-16.288h129.891c9.004,0,16.308-7.314,16.308-16.367c0-8.974-7.304-16.288-16.308-16.288H323.299
				c-18.037,0-32.646,14.588-32.646,32.655v417.917h452.134l-83.763-212.854C801.486,1301.683,915.751,1208.105,915.751,1092.902"/>
		</g>
		<g>
			<defs>
				<rect id="SVGID_23_" x="3.239" y="2.477" width="1996.749" height="1996.749"/>
			</defs>
			<clipPath id="SVGID_24_">
				<use xlink:href="#SVGID_23_"  overflow="visible"/>
			</clipPath>
			<path clip-path="url(#SVGID_24_)" fill="#008A34" d="M1728.269,1439.618l-79.563-212.813
				c-11.228-30.006-44.674-45.228-74.681-33.999l0,0l-245.547,91.759l172.29-187.63c18.898-20.954,30.601-48.588,30.601-78.99
				c0-33.081-13.68-62.889-35.602-84.315L1137.29,602.963c-19.135-18.937-45.465-30.995-74.502-30.995
				c-42.638,0-79.147,25.342-95.91,61.654c-0.061,0-129.949,290.813-129.949,290.813H591.866c-39.436,0-71.419,31.982-71.419,71.418
				c0,39.445,31.983,71.428,71.419,71.428h303.456c47.145,0,58.501-32.972,71.695-58.193l92.826-174.178l230.444,215.609
				l-212.771,292.989c-12.295,17.908-19.016,39.653-19.016,63.017c0,61.557,49.91,111.447,111.466,111.447
				c12.65,0,24.608-2.569,35.956-6.443l375.021-134.574l38.646,103.303c11.208,30.007,44.634,45.267,74.66,34.04
				C1724.257,1503.07,1739.477,1469.663,1728.269,1439.618"/>
		</g>
		<g>
			<defs>
				<rect id="SVGID_25_" x="3.239" y="2.477" width="1996.749" height="1996.749"/>
			</defs>
			<clipPath id="SVGID_26_">
				<use xlink:href="#SVGID_25_"  overflow="visible"/>
			</clipPath>
			<path clip-path="url(#SVGID_26_)" fill="#008A34" d="M768.851,809.946c6.019-30.244-47.501,52.562-47.501,52.562
				c-26.537,45.662,59.43,62.779,46.334,9.982C756.328,826.787,764.808,830.305,768.851,809.946"/>
		</g>
		<g>
			<defs>
				<rect id="SVGID_27_" x="3.239" y="2.477" width="1996.749" height="1996.749"/>
			</defs>
			<clipPath id="SVGID_28_">
				<use xlink:href="#SVGID_27_"  overflow="visible"/>
			</clipPath>
			<path clip-path="url(#SVGID_28_)" fill="#008A34" d="M748.728,1093.534c0,23.958-44.783,18.067-33.545,38.981
				c11.257,20.915,88.804,25.579,72.891,57.404c-15.893,31.785-74.008,63.451-127.566,57.363
				c-29.067-3.28-80.333-40.522-23.642-56.612c57.383-16.289,44.209-24.828,25.588-37.993
				c-18.601-13.166-15.021-33.09,12.611-40.325C723.139,1099.742,748.728,1072.027,748.728,1093.534"/>
		</g>
	</g>
</g>
<g id="Ebene_3" display="none">
	<g display="inline">
		<g>
			<defs>
				<rect id="SVGID_29_" x="3.239" y="2.477" width="1996.749" height="1996.749"/>
			</defs>
			<clipPath id="SVGID_30_">
				<use xlink:href="#SVGID_29_"  overflow="visible"/>
			</clipPath>
			<path clip-path="url(#SVGID_30_)" fill="#7CC119" d="M1999.969,1756.921V244.802c0-133.805-108.481-242.307-242.306-242.307
				H245.565C111.731,2.497,3.229,110.998,3.229,244.802v1512.118c0,133.822,108.502,242.306,242.336,242.306h1512.098
				C1891.486,1999.226,1999.969,1890.743,1999.969,1756.921"/>
		</g>
		<g>
			<defs>
				<rect id="SVGID_31_" x="3.239" y="2.477" width="1996.749" height="1996.749"/>
			</defs>
			<clipPath id="SVGID_32_">
				<use xlink:href="#SVGID_31_"  overflow="visible"/>
			</clipPath>
			<path clip-path="url(#SVGID_32_)" fill="#FFFFFF" d="M1878.815,1756.921V244.802c0-66.894-54.241-121.135-121.152-121.135
				H245.565c-66.912,0-121.163,54.241-121.163,121.135v1512.118c0,66.893,54.251,121.171,121.163,121.171h1512.098
				C1824.574,1878.092,1878.815,1823.813,1878.815,1756.921"/>
		</g>
		<g>
			<defs>
				<rect id="SVGID_33_" x="3.239" y="2.477" width="1996.749" height="1996.749"/>
			</defs>
			<clipPath id="SVGID_34_">
				<use xlink:href="#SVGID_33_"  overflow="visible"/>
			</clipPath>
			<path clip-path="url(#SVGID_34_)" fill="#008A34" d="M1209.164,550.838c84.524,0,153.018-68.494,153.018-152.998
				c0-84.524-68.493-153.018-153.018-153.018c-84.483,0-152.998,68.493-152.998,153.018
				C1056.167,482.344,1124.68,550.838,1209.164,550.838"/>
		</g>
		<g>
			<defs>
				<rect id="SVGID_35_" x="3.239" y="2.477" width="1996.749" height="1996.749"/>
			</defs>
			<clipPath id="SVGID_36_">
				<use xlink:href="#SVGID_35_"  overflow="visible"/>
			</clipPath>
			<path clip-path="url(#SVGID_36_)" fill="#008A34" d="M1563.708,1065.979c0-39.455-31.943-71.429-71.398-71.429h-245.073
				l-66.812-337.029c-8.737-72.289-58.867-128.724-129.277-128.724c-45.444,0-85.058,23.958-107.651,59.735l-0.277-0.158
				l-298.483,567.861c-12.106,20.715-19.175,44.753-19.175,70.49c0,77.408,62.752,140.149,140.16,140.149h44.347l95.901-95.871
				c22.713-22.731,59.529-22.731,82.241,0c22.712,22.692,22.712,59.539,0,82.231l-13.641,13.64h170.354v392.575
				c0,32.023,25.974,58.036,57.997,58.036h256.301c32.021,0,58.036-25.974,58.036-58.036c0-32.021-26.015-57.996-58.036-57.996
				h-110.282v-436.381c0-0.079,0-0.117,0-0.197c0-56.336-45.681-101.999-101.998-101.999H906.658l165.204-313.99l47.521,233.617
				h0.178c7.453,31.43,35.562,54.874,69.284,54.874h303.465C1531.764,1137.377,1563.708,1105.394,1563.708,1065.979"/>
		</g>
		<g>
			<defs>
				<rect id="SVGID_37_" x="3.239" y="2.477" width="1996.749" height="1996.749"/>
			</defs>
			<clipPath id="SVGID_38_">
				<use xlink:href="#SVGID_37_"  overflow="visible"/>
			</clipPath>
			<path clip-path="url(#SVGID_38_)" fill="#008A34" d="M535.816,1366.914h-73.355c-18.038,0-32.656,14.588-32.656,32.616v417.957
				h432.743l-23.01-146.87l-43.862-43.844l21.348,158.059H462.461v-368.974c0-9.014,7.304-16.328,16.308-16.328h89.674
				L535.816,1366.914z M1077.989,1392.375l-36.332,0.038c0,74.522-63.977,138.489-150.062,165.769l28.178,28.188
				C1013.825,1554.386,1076.784,1478.282,1077.989,1392.375"/>
		</g>
		<g>
			<defs>
				<rect id="SVGID_39_" x="3.239" y="2.477" width="1996.749" height="1996.749"/>
			</defs>
			<clipPath id="SVGID_40_">
				<use xlink:href="#SVGID_39_"  overflow="visible"/>
			</clipPath>
			<path clip-path="url(#SVGID_40_)" fill="#008A34" d="M973.145,1286.065c-14.4-14.39-37.716-14.39-52.086,0l-165.876,165.847
				l-165.866-165.847c-14.391-14.39-37.706-14.39-52.077,0c-14.39,14.391-14.39,37.716,0,52.067l165.856,165.886L537.24,1669.905
				c-14.39,14.39-14.39,37.716,0,52.066c14.371,14.391,37.688,14.391,52.077,0l165.866-165.847l165.876,165.847
				c14.371,14.391,37.686,14.391,52.086,0c14.39-14.352,14.39-37.677,0-52.066l-165.866-165.887l165.866-165.886
				C987.535,1323.782,987.535,1300.457,973.145,1286.065"/>
		</g>
	</g>
</g>
<g id="Ebene_4" display="none">
	<g display="inline">
		<g>
			<defs>
				<rect id="SVGID_41_" x="0" y="-0.488" width="1999.988" height="1999.978"/>
			</defs>
			<clipPath id="SVGID_42_">
				<use xlink:href="#SVGID_41_"  overflow="visible"/>
			</clipPath>
			<path clip-path="url(#SVGID_42_)" fill="#7CC119" d="M1999.988,1756.796V242.228c0-134.055-108.683-242.716-242.716-242.716
				H242.706C108.673-0.488,0,108.174,0,242.228v1514.567c0,134.034,108.673,242.694,242.706,242.694h1514.567
				C1891.306,1999.49,1999.988,1890.829,1999.988,1756.796"/>
		</g>
		<g>
			<defs>
				<rect id="SVGID_43_" x="0" y="-0.488" width="1999.988" height="1999.978"/>
			</defs>
			<clipPath id="SVGID_44_">
				<use xlink:href="#SVGID_43_"  overflow="visible"/>
			</clipPath>
			<path clip-path="url(#SVGID_44_)" fill="#FFFFFF" d="M1878.62,1756.796V242.228c0-67.018-54.31-121.349-121.348-121.349H242.726
				c-67.027,0-121.378,54.331-121.378,121.349v1514.567c0,66.997,54.351,121.348,121.378,121.348h1514.546
				C1824.311,1878.143,1878.62,1823.793,1878.62,1756.796"/>
		</g>
		<g>
			<defs>
				<rect id="SVGID_45_" x="0" y="-0.488" width="1999.988" height="1999.978"/>
			</defs>
			<clipPath id="SVGID_46_">
				<use xlink:href="#SVGID_45_"  overflow="visible"/>
			</clipPath>
			<path clip-path="url(#SVGID_46_)" fill="#008A34" d="M905.082,1533.959c-2.634-30.438-27.884-54.392-58.991-54.392
				c-1.349-48.636-59.52-41.462-59.52-79.358c0-32.869-59.509,46.488-59.509,79.358c-32.87,0-59.519,26.669-59.519,59.499
				c0,18.238,8.339,34.329,21.228,45.271c-8.653,10.78-14.753,22.535-14.003,33.884c2.655,40.896,59.225,97.881,58.475,62.862
				c-0.578-28.088,17.529-39.354,33.925-49.284l-19.404-49.123c-1.388-2.392-2.321-6.851-2.321-9.85
				c0-8.998,7.326-16.334,16.354-16.334c0.537,0,11.034,0,13.404,0C823.01,1556.615,867.086,1548.348,905.082,1533.959"/>
		</g>
		<g>
			<defs>
				<rect id="SVGID_47_" x="0" y="-0.488" width="1999.988" height="1999.978"/>
			</defs>
			<clipPath id="SVGID_48_">
				<use xlink:href="#SVGID_47_"  overflow="visible"/>
			</clipPath>
			<path clip-path="url(#SVGID_48_)" fill="#008A34" d="M1207.885,548.738c84.667,0,153.265-68.618,153.265-153.245
				c0-84.646-68.598-153.265-153.265-153.265c-84.628,0-153.246,68.618-153.246,153.265
				C1054.639,480.121,1123.258,548.738,1207.885,548.738"/>
		</g>
		<g>
			<defs>
				<rect id="SVGID_49_" x="0" y="-0.488" width="1999.988" height="1999.978"/>
			</defs>
			<clipPath id="SVGID_50_">
				<use xlink:href="#SVGID_49_"  overflow="visible"/>
			</clipPath>
			<path clip-path="url(#SVGID_50_)" fill="#008A34" d="M1563.011,1064.699c0-39.476-32.02-71.495-71.536-71.495h-245.451
				l-66.916-337.628c-8.775-72.387-58.972-128.905-129.495-128.905c-45.515,0-85.195,23.993-107.811,59.822l-0.294-0.142
				l-298.992,568.771c-12.119,20.751-19.191,44.826-19.191,70.646c0,77.494,62.853,140.355,140.407,140.355h379.79v393.227
				c0,32.06,26.02,58.079,58.12,58.079h256.699c32.12,0,58.1-25.979,58.1-58.079c0-32.102-25.979-58.12-58.1-58.12h-110.466v-437.08
				c0-0.081,0-0.122,0-0.202c0-56.418-45.719-102.177-102.137-102.177H904.9l165.465-314.506l47.624,234.012h0.143
				c7.477,31.452,35.625,54.959,69.407,54.959h303.938C1530.992,1136.235,1563.011,1104.217,1563.011,1064.699"/>
		</g>
		<g>
			<defs>
				<rect id="SVGID_51_" x="0" y="-0.488" width="1999.988" height="1999.978"/>
			</defs>
			<clipPath id="SVGID_52_">
				<use xlink:href="#SVGID_51_"  overflow="visible"/>
			</clipPath>
			<path clip-path="url(#SVGID_52_)" fill="#008A34" d="M1063.091,1391.657h-32.708c0,99.543-104.093,180.198-232.482,180.198
				c-2.361,0-12.868,0-13.405,0c-9.027,0-16.354,7.335-16.354,16.333c0,3,0.941,7.458,2.33,9.89l73.766,186.684H469.676v-369.596
				c0-9.038,7.306-16.334,16.334-16.334h130.111c9.029,0,16.355-7.337,16.355-16.375c0-8.998-7.326-16.334-16.355-16.334H469.676
				c-18.076,0-32.708,14.674-32.708,32.709v418.638h452.886l-83.898-213.229C948.642,1600.795,1063.091,1507.088,1063.091,1391.657"
				/>
		</g>
		<g>
			<defs>
				<rect id="SVGID_53_" x="0" y="-0.488" width="1999.988" height="1999.978"/>
			</defs>
			<clipPath id="SVGID_54_">
				<use xlink:href="#SVGID_53_"  overflow="visible"/>
			</clipPath>
			<path clip-path="url(#SVGID_54_)" fill="#008A34" d="M601.115,1524.354c-23.426-13.577-7.367-53.257,15.604-67.563
				c22.971-14.389,108.226,2.918,81.436,6.932C626.974,1474.3,630.145,1541.175,601.115,1524.354"/>
		</g>
		<g>
			<defs>
				<rect id="SVGID_55_" x="0" y="-0.488" width="1999.988" height="1999.978"/>
			</defs>
			<clipPath id="SVGID_56_">
				<use xlink:href="#SVGID_55_"  overflow="visible"/>
			</clipPath>
			<path clip-path="url(#SVGID_56_)" fill="#008A34" d="M953.324,1480.621c12.93-16.009-9.271-39.76-29.485-43.69
				c-20.194-3.933-75.994,31.573-55.882,27.114C921.345,1452.17,937.304,1500.481,953.324,1480.621"/>
		</g>
	</g>
</g>
<g id="Ebene_5" display="none">
	<g display="inline">
		<g>
			<defs>
				<rect id="SVGID_57_" x="0" y="-0.763" width="1999.988" height="1999.979"/>
			</defs>
			<clipPath id="SVGID_58_">
				<use xlink:href="#SVGID_57_"  overflow="visible"/>
			</clipPath>
			<path clip-path="url(#SVGID_58_)" fill="#7CC119" d="M1999.969,1756.518V241.955c0-134.021-108.677-242.697-242.718-242.697
				H242.717C108.667-0.743-0.01,107.934-0.01,241.955v1514.563c0,134.04,108.677,242.698,242.727,242.698h1514.534
				C1891.292,1999.217,1999.969,1890.558,1999.969,1756.518"/>
		</g>
		<g>
			<defs>
				<rect id="SVGID_59_" x="0" y="-0.763" width="1999.988" height="1999.979"/>
			</defs>
			<clipPath id="SVGID_60_">
				<use xlink:href="#SVGID_59_"  overflow="visible"/>
			</clipPath>
			<path clip-path="url(#SVGID_60_)" fill="#FFFFFF" d="M1878.619,1756.518V241.955c0-67-54.327-121.329-121.368-121.329H242.717
				c-67.021,0-121.358,54.329-121.358,121.329v1514.563c0,67,54.338,121.368,121.358,121.368h1514.534
				C1824.292,1877.886,1878.619,1823.518,1878.619,1756.518"/>
		</g>
		<g>
			<defs>
				<rect id="SVGID_61_" x="0" y="-0.763" width="1999.988" height="1999.979"/>
			</defs>
			<clipPath id="SVGID_62_">
				<use xlink:href="#SVGID_61_"  overflow="visible"/>
			</clipPath>
			<path clip-path="url(#SVGID_62_)" fill="#008A34" d="M1308.326,1623.428l63.675-38.847l-245.312-141.683l132.872,139.308
				l-73.237,38.449l254.874,139.268L1308.326,1623.428z M1586.938,1369.405l-278.732,81.692l24.592-78.999l-192.447-4.515
				l273.663-73.296l-17.581,72.505L1586.938,1369.405z M1307.218,1107.622l-38.807-63.674l-141.722,245.312l139.307-132.854
				l38.471,73.218l139.307-254.864L1307.218,1107.622z M1005.044,1817.182H752.169v-184.726
				c-34.768-29.025-56.903-72.584-56.903-121.408c0,0,0-60.585,0-157.997l162.838,99.589
				c51.458,31.045,124.259,9.346,155.987-42.528c34.945-57.14,17.799-130.12-34.618-162.67l-242.729-147.226
				c0,0,129.328-256.311,133.021-264.725c9.117-17.799-16.829-33.321-27.394-13.106l-147.106,288.206l-0.326,0.673l-0.1,0.198
				l0.426,0.236l263.824,158.513c41.915,25.185,55.457,79.553,30.292,121.448c-25.185,41.896-79.533,55.438-121.448,30.252
				L665.26,1300.148l-132.397-79.553c-41.904-25.186-53.705-76.82-30.263-121.448c0.06-0.118,211.355-415.118,211.355-415.118
				l0.079,0.04c26.66-49.616,79.01-83.354,139.287-83.354c87.274,0,158.037,70.762,158.037,158.036v366.136
				c56.13,58.961,91.77,146.078,91.77,243.45c0,101.055-38.291,191.101-98.084,250.062L1005.044,1817.182L1005.044,1817.182z
				 M1094.693,664.863c105.608,0,191.219-85.591,191.219-191.2c0-105.589-85.61-191.201-191.219-191.201
				c-105.579,0-191.189,85.612-191.189,191.201C903.504,579.272,989.114,664.863,1094.693,664.863"/>
		</g>
	</g>
</g>
<g id="Ebene_6" display="none">
	<g display="inline">
		<g>
			<defs>
				<rect id="SVGID_63_" x="0" y="-0.763" width="1999.988" height="1999.979"/>
			</defs>
			<clipPath id="SVGID_64_">
				<use xlink:href="#SVGID_63_"  overflow="visible"/>
			</clipPath>
			<path clip-path="url(#SVGID_64_)" fill="#7CC119" d="M1999.969,1756.518V241.955c0-134.021-108.677-242.697-242.718-242.697
				H242.717C108.667-0.743-0.01,107.934-0.01,241.955v1514.563c0,134.04,108.677,242.698,242.727,242.698h1514.534
				C1891.292,1999.217,1999.969,1890.558,1999.969,1756.518"/>
		</g>
		<g>
			<defs>
				<rect id="SVGID_65_" x="0" y="-0.763" width="1999.988" height="1999.979"/>
			</defs>
			<clipPath id="SVGID_66_">
				<use xlink:href="#SVGID_65_"  overflow="visible"/>
			</clipPath>
			<path clip-path="url(#SVGID_66_)" fill="#FFFFFF" d="M1878.619,1756.518V241.955c0-67-54.327-121.329-121.368-121.329H242.717
				c-67.021,0-121.358,54.329-121.358,121.329v1514.563c0,67,54.338,121.368,121.358,121.368h1514.534
				C1824.292,1877.886,1878.619,1823.518,1878.619,1756.518"/>
		</g>
		<g>
			<defs>
				<rect id="SVGID_67_" x="0" y="-0.763" width="1999.988" height="1999.979"/>
			</defs>
			<clipPath id="SVGID_68_">
				<use xlink:href="#SVGID_67_"  overflow="visible"/>
			</clipPath>
			<path clip-path="url(#SVGID_68_)" fill="#008A34" d="M1199.074,933.122c-27.48-83.097-105.646-143.127-197.912-143.127
				c-92.322,0-170.479,60.031-197.932,143.107c46.854,18.315,72.95,69.386,63.03,112.865c0,0-7.644,38.45-18.591,93.452
				c38.122,41.499,92.68,67.673,153.491,67.673c60.783,0,115.33-26.174,153.443-67.713c-10.949-54.964-18.591-93.413-18.591-93.413
				C1126.094,1002.488,1152.19,951.436,1199.074,933.122 M1293.952,1756.518v-157.165c-30.848-15.048-54.666-41.816-62.388-74.96
				c-2.633-11.999-42.35-211.217-69.752-348.781c-42.489,38.728-98.619,62.685-160.65,62.685
				c-62.069,0-118.211-23.957-160.709-62.645c-27.392,137.524-67.108,336.704-69.742,348.702
				c-7.723,33.183-31.551,59.912-62.388,74.999v157.165H1293.952z"/>
		</g>
	</g>
	<polygon display="inline" fill="#008A34" points="826.623,533.655 753.237,541.832 914.065,771.641 853.144,591.033 
		934.954,587.172 764.544,355.522 	"/>
	<polygon display="inline" fill="#008A34" points="561.226,752.455 510.272,805.893 781.204,878.555 618.417,779.383 
		678.615,723.826 399.17,655.914 	"/>
	<polygon display="inline" fill="#008A34" points="1171.613,536.447 1110.136,495.561 1085.626,774.986 1155.042,597.447 
		1220.18,647.084 1238.554,360.076 	"/>
	<polygon display="inline" fill="#008A34" points="1436.169,752.554 1415.359,681.732 1216.973,880.002 1384.235,788.629 
		1402.272,868.537 1600.8,660.469 	"/>
	<g display="inline">
		<g>
			<defs>
				<rect id="SVGID_69_" x="0" y="-0.763" width="1999.988" height="1999.979"/>
			</defs>
			<clipPath id="SVGID_70_">
				<use xlink:href="#SVGID_69_"  overflow="visible"/>
			</clipPath>
			<path clip-path="url(#SVGID_70_)" fill="#008A34" d="M769.304,950.922c-45.935-11.306-91.957,17.047-102.787,63.328
				l-80.592,351.513l-0.198-0.079c-2.476,5.504-7.95,9.385-14.394,9.385c-8.741,0-15.82-7.048-15.82-15.8
				c0-1.584,22.403-102.361,37.776-171.224c-34.332,33.145-58.416,76.029-67.881,128.181l-12.127,135.545l0.061-0.079
				c-0.604,4.87-1.129,9.781-1.129,14.849c0,65.417,53.032,118.438,118.438,118.438c52.834,0,100.965-34.173,112.321-82.562
				c3.792-17.266,89.897-447.223,89.897-447.223C843.69,1008.903,815.249,962.207,769.304,950.922"/>
		</g>
		<g>
			<defs>
				<rect id="SVGID_71_" x="0" y="-0.763" width="1999.988" height="1999.979"/>
			</defs>
			<clipPath id="SVGID_72_">
				<use xlink:href="#SVGID_71_"  overflow="visible"/>
			</clipPath>
			<path clip-path="url(#SVGID_72_)" fill="#008A34" d="M1232.97,950.922c45.934-11.286,91.967,17.066,102.797,63.328
				l80.583,351.513l0.198-0.079c2.493,5.543,7.959,9.424,14.413,9.424c8.73,0,15.8-7.088,15.8-15.839
				c0-1.544-22.412-102.361-37.776-171.224c34.332,33.145,58.407,76.029,67.892,128.221l12.117,135.505l-0.06-0.079
				c0.612,4.87,1.146,9.82,1.146,14.849c0,65.417-53.061,118.438-118.458,118.438c-52.844,0-100.956-34.133-112.319-82.562
				c-3.803-17.226-89.889-447.223-89.889-447.223C1158.585,1008.903,1187.036,962.226,1232.97,950.922"/>
		</g>
	</g>
</g>
<g id="Ebene_7" display="none">
	<g display="inline">
		<g>
			<defs>
				<rect id="SVGID_73_" x="0.763" y="0" width="2000.01" height="2000"/>
			</defs>
			<clipPath id="SVGID_74_">
				<use xlink:href="#SVGID_73_"  overflow="visible"/>
			</clipPath>
			<path clip-path="url(#SVGID_74_)" fill="#7CC119" d="M2000.754,1757.301V242.72c0-134.021-108.68-242.7-242.721-242.7H243.482
				c-134.05,0-242.729,108.678-242.729,242.7v1514.58c0,134.042,108.68,242.699,242.729,242.699h1514.551
				C1892.074,2000,2000.754,1891.343,2000.754,1757.301"/>
		</g>
		<g>
			<defs>
				<rect id="SVGID_75_" x="0.763" y="0" width="2000.01" height="2000"/>
			</defs>
			<clipPath id="SVGID_76_">
				<use xlink:href="#SVGID_75_"  overflow="visible"/>
			</clipPath>
			<path clip-path="url(#SVGID_76_)" fill="#FFFFFF" d="M1879.403,1757.301V242.72c0-67.001-54.329-121.331-121.37-121.331H243.482
				c-67.021,0-121.36,54.33-121.36,121.331v1514.58c0,67.001,54.34,121.37,121.36,121.37h1514.551
				C1825.074,1878.671,1879.403,1824.302,1879.403,1757.301"/>
		</g>
		<g>
			<defs>
				<rect id="SVGID_77_" x="0.763" y="0" width="2000.01" height="2000"/>
			</defs>
			<clipPath id="SVGID_78_">
				<use xlink:href="#SVGID_77_"  overflow="visible"/>
			</clipPath>
			<path clip-path="url(#SVGID_78_)" fill="#008A34" d="M893.436,1073.787c-39.312-26.373-92.245-15.442-118.262,24.313
				l-254.422,389.137c-0.021,0.04-0.129,0.079-0.108,0.118c0.049,0.04,0.108,0.08,0.148,0.158
				c-7.683,12.672-12.938,27.086-14.177,42.965c-4.118,52.904,34.264,99.155,85.702,103.234
				c32.826,2.612,62.912-12.673,81.563-37.738c0.118,0.119,243.621-402.521,243.621-402.521
				C943.518,1153.697,932.727,1100.12,893.436,1073.787 M1001.976,1141.105c-13.375,0-26.413-1.386-39.064-3.762
				c-2.812-36.153-21.928-69.733-49.3-87.474c-26.501-17.146-61.635-21.938-93.631-15.602c-16.85-30.135-26.542-64.754-26.542-101.7
				c0-115.172,93.364-208.527,208.537-208.527s208.527,93.354,208.527,208.527
				C1210.503,1047.731,1117.148,1141.105,1001.976,1141.105 M790.034,1044.168c-0.197-0.396-0.465-0.714-0.644-1.069
				c-128.567,12.276-219.693,80.742-241.958,203.498l-29.075,189.163l233.761-360.27
				C761.385,1061.75,774.789,1051.533,790.034,1044.168 M1495.218,1626.743c0-4.514-0.635-8.87-1.327-13.187l-74.188-366.96
				c-17.562-121.054-92.72-184.372-206.349-201.003c-40.39,75.355-119.865,126.676-211.377,126.676
				c-14.147,0-27.848-1.584-41.312-3.96c-2.307,11.84-6.038,23.562-12.552,34.688l-244.037,400.185h196.736
				c10.405-50.131,55.943-91.155,106.036-91.155c0.039,0,124.973,0,234.463,0c0,0-26.333-161.247-26.413-161.761
				c-1.267-8.712,7.207-16.117,16.117-16.117c7.859,0,14.513,5.503,15.522,13.106c0.061,0.276,31.641,195.736,31.641,195.736
				h-266.064c-0.039,0-0.079-0.04-0.119-0.04c-37.58,0-68.95,25.502-79.039,60.229c0,0-1.771,6.812-2.416,10.336
				c-0.692,4.314-1.316,8.672-1.316,13.186c0,0,0,0,0,0.04c0,4.634,0.624,9.107,1.355,13.543c0.327,1.86,0.584,3.763,1.011,5.623
				c8.603,36.984,41.223,64.587,80.404,64.587h400.461C1458.152,1710.495,1495.218,1672.995,1495.218,1626.743"/>
		</g>
		<g>
			<defs>
				<rect id="SVGID_79_" x="0.763" y="0" width="2000.01" height="2000"/>
			</defs>
			<clipPath id="SVGID_80_">
				<use xlink:href="#SVGID_79_"  overflow="visible"/>
			</clipPath>
			<path clip-path="url(#SVGID_80_)" fill="#008A34" d="M1154.787,822.92c60.744-12.79,181.283-45.42,212.468-107.332
				c12.256-24.394,13.958-45.896,5.187-65.734c-16.612-37.48-71.535-68.703-167.958-95.473
				c-133.625-37.083-315.166-42.549-451.751-13.642c-110.392,23.383-130.349,49.696-126.31,82.009
				c3.651,29.422,58.693,52.548,143.644,60.388c98.551,9.069,223.119,2.04,333.243-18.829
				c195.697-37.084,305.286-84.841,334.966-146.08c12.948-26.649,14.611-51.656,4.989-74.268
				c-16.988-39.875-70.09-74.545-157.84-103.056c-119.37-38.787-324.512-55.023-498.855-39.46
				c-154.711,13.8-231.266,65.654-234.314,96.363c-2.96,30.194,36.074,65.021,129.963,74.782
				c180.57,18.81,282.933,8.534,319.641,3.009c-37.56,1.664-134.11,4.653-211.438-3.425c-74.268-7.781-160.671-27.66-159.8-58.111
				c0.623-21.265,58.189-45.261,185.411-50.924c165.195-7.386,337.568-9.484,470.146,51.201
				c50.25,23.007,81.217,50.509,89.592,79.554c5.188,17.978,1.92,36.114-9.722,53.914
				c-40.132,61.318-158.493,92.403-250.699,107.668c-209.011,34.629-352.012,23.482-400.995-2.95
				c-17.958-9.663-26.373-20.552-23.661-30.648c8.236-30.69,115.263-45.282,293.653-40.016
				c168.325,4.97,280.092,35.104,314.701,84.919c15.364,22.116,19.047,43.5,10.91,63.518
				C1290.135,779.045,1204.088,809.278,1154.787,822.92"/>
		</g>
	</g>
</g>
<g id="Ebene_8" display="none">
	<g display="inline">
		<g>
			<defs>
				<rect id="SVGID_81_" x="0.763" y="0" width="1999.226" height="1999.217"/>
			</defs>
			<clipPath id="SVGID_82_">
				<use xlink:href="#SVGID_81_"  overflow="visible"/>
			</clipPath>
			<path clip-path="url(#SVGID_82_)" fill="#7CC119" d="M1999.969,1756.611V242.625c0-133.969-108.637-242.604-242.624-242.604
				H243.387C109.389,0.02,0.753,108.656,0.753,242.625v1513.987c0,133.988,108.637,242.604,242.635,242.604h1513.958
				C1891.333,1999.217,1999.969,1890.6,1999.969,1756.611"/>
		</g>
		<g>
			<defs>
				<rect id="SVGID_83_" x="0.763" y="0" width="1999.226" height="1999.217"/>
			</defs>
			<clipPath id="SVGID_84_">
				<use xlink:href="#SVGID_83_"  overflow="visible"/>
			</clipPath>
			<path clip-path="url(#SVGID_84_)" fill="#FFFFFF" d="M1878.667,1756.611V242.625c0-66.974-54.309-121.283-121.321-121.283
				H243.387c-66.994,0-121.312,54.31-121.312,121.283v1513.987c0,66.976,54.318,121.321,121.312,121.321h1513.958
				C1824.358,1877.933,1878.667,1823.587,1878.667,1756.611"/>
		</g>
		<g>
			<defs>
				<rect id="SVGID_85_" x="0.763" y="0" width="1999.226" height="1999.217"/>
			</defs>
			<clipPath id="SVGID_86_">
				<use xlink:href="#SVGID_85_"  overflow="visible"/>
			</clipPath>
			<path clip-path="url(#SVGID_86_)" fill="#008A34" d="M295.014,1401.313c61.997,0,112.276-50.271,112.276-112.297
				c0-61.988-50.279-112.219-112.276-112.219c-61.998,0-112.278,50.23-112.278,112.219
				C182.736,1351.043,233.017,1401.313,295.014,1401.313"/>
		</g>
		<g>
			<defs>
				<rect id="SVGID_87_" x="0.763" y="0" width="1999.226" height="1999.217"/>
			</defs>
			<clipPath id="SVGID_88_">
				<use xlink:href="#SVGID_87_"  overflow="visible"/>
			</clipPath>
			<path clip-path="url(#SVGID_88_)" fill="#008A34" d="M1284.919,1369.291l-171.672,40.059l113.684-137.275l260.338,122.827
				c11.756,4.275,25.254,3.167,36.416-4.354l136.681-92.822c18.525-12.509,23.435-37.646,10.927-56.168
				c-12.51-18.525-35.547-22.207-56.17-10.925l-92.961,51.973c-73.882-41.087-291.034-161.895-291.866-161.975
				c-10.173-5.226-19.197-9.381-30.459-10.292c-23.67-1.86-45.421,8.668-58.999,26.085l-228.969,271.064l-454.297-44.768
				c-28.252-3.008-53.338,4.512-75.266,22.522c-21.949,18.051-34.112,40.891-36.496,68.52c-2.415,22.839,2.384,43.856,14.408,63.096
				c1.801,6.017,157.729,217.192,157.729,217.192c11.41,15.041,26.738,22.562,45.985,22.562l324.107-0.831
				c30.073-0.673,54.269-25.136,54.269-55.338c0-30.162-24.096-54.585-54.051-55.337l-296.398-2.059l-39.147-69.547l332.993,37.089
				c7.809,0.594,28.64,3.403,51.38-0.91l366.837-81.779l314.509,67.489l0,0c8.055,1.544,16.684,0.753,24.699-2.969l151.504-77.623
				c20.228-9.461,28.995-33.526,19.555-53.793c-9.421-20.229-31.229-27.154-53.754-19.555l-125.656,40.652l-307.441-112.853
				C1313.558,1365.45,1302.337,1365.728,1284.919,1369.291"/>
		</g>
		<g>
			<defs>
				<rect id="SVGID_89_" x="0.763" y="0" width="1999.226" height="1999.217"/>
			</defs>
			<clipPath id="SVGID_90_">
				<use xlink:href="#SVGID_89_"  overflow="visible"/>
			</clipPath>
			<path clip-path="url(#SVGID_90_)" fill="#008A34" d="M1447.587,182.003h-39.246c-3.404,19.732-5.542,39.92-5.542,60.642
				c0,195.818,158.748,354.546,354.547,354.546c20.741,0,40.889-2.137,60.641-5.562v-39.228
				c-19.633,3.819-39.859,5.957-60.641,5.957c-174.364,0-315.716-141.352-315.716-315.715
				C1441.63,221.883,1443.767,201.637,1447.587,182.003"/>
		</g>
		<g>
			<defs>
				<rect id="SVGID_91_" x="0.763" y="0" width="1999.226" height="1999.217"/>
			</defs>
			<clipPath id="SVGID_92_">
				<use xlink:href="#SVGID_91_"  overflow="visible"/>
			</clipPath>
			<path clip-path="url(#SVGID_92_)" fill="#008A34" d="M1729.557,862.26c0-19.1,14.605-22.721,14.605-43.165
				c0-20.464-13.419-22.722-13.419-42.255c0-21.355,16.368-24.522,16.368-44.987c0-14.547-15.221-25.452-15.221-39.979
				c0-11.36,12.806-22.088,15.675-54.843l0.159-0.04c1.286-7.046,8.787-12.587,18.229-12.587c9.479,0,17.002,5.581,18.268,12.667
				c0.1,0.296,0.911,5.759,0.911,8.451c0,20.445-15.22,28.163-15.22,44.076c0,16.803,13.458,24.997,13.458,42.255
				c0,18.188-15.793,24.521-15.793,44.076c0,15.893,14.625,23.631,14.625,40.889c0,20.445-16.388,25.452-16.388,45.441
				c0,18.625,13.735,21.177,13.458,43.086c-0.276,21.968-13.458,24.542-13.458,43.166c0,20.009,16.388,24.997,16.388,45.452
				c0,17.258-14.625,24.977-14.625,40.889c0,19.514,15.793,25.887,15.793,44.056c0,17.259-13.458,25.452-13.458,42.235
				c0,15.913,15.853,23.631,15.22,44.095c-0.158,4.474-0.713,7.046-1.604,8.828c-1.504,6.887-8.887,12.271-18.188,12.271
				c-10.094,0-18.169-6.215-18.645-13.974l-0.099-0.039c-1.96-23.038-14.706-42.077-14.706-53.438
				c0-14.526,15.221-25.412,15.221-39.979c0-20.425-16.368-23.631-16.368-44.967c0-19.554,13.419-21.811,13.419-42.275
				c0-20.435-14.605-24.057-14.605-43.154c0-12.152,7.6-20.308,11.836-30.4c0.91-2.909,1.899-6.333,2.436-9.321
				c0.138-1.107,0.336-2.217,0.336-3.404c0-1.207-0.198-2.276-0.336-3.404c-0.535-2.988-1.524-6.433-2.436-9.322
				C1737.156,882.565,1729.557,874.411,1729.557,862.26"/>
		</g>
		<g>
			<defs>
				<rect id="SVGID_93_" x="0.763" y="0" width="1999.226" height="1999.217"/>
			</defs>
			<clipPath id="SVGID_94_">
				<use xlink:href="#SVGID_93_"  overflow="visible"/>
			</clipPath>
			<path clip-path="url(#SVGID_94_)" fill="#008A34" d="M1050.805,270.432c-19.1,0-22.701-14.606-43.166-14.606
				c-20.445,0-22.721,13.438-42.255,13.438c-21.345,0-24.521-16.389-44.966-16.389c-14.558,0-25.463,15.221-39.989,15.221
				c-11.37,0-22.097-12.806-54.842-15.676l-0.04-0.157c-7.057-1.287-12.587-8.787-12.587-18.229c0-9.479,5.57-17.001,12.667-18.268
				c0.307-0.1,5.759-0.91,8.45-0.91c20.445,0,28.174,15.22,44.076,15.22c16.804,0,24.997-13.458,42.266-13.458
				c18.179,0,24.521,15.793,44.056,15.793c15.913,0,23.631-14.605,40.91-14.605c20.425,0,25.452,16.367,45.421,16.367
				c18.624,0,21.197-13.734,43.086-13.458c21.968,0.277,24.542,13.458,43.187,13.458c19.988,0,24.977-16.367,45.421-16.367
				c17.277,0,24.997,14.605,40.909,14.605c19.514,0,25.887-15.793,44.056-15.793c17.258,0,25.452,13.458,42.255,13.458
				c15.893,0,23.631-15.873,44.076-15.22c4.473,0.158,7.046,0.712,8.827,1.604c6.887,1.504,12.25,8.887,12.25,18.208
				c0,10.095-6.194,18.149-13.953,18.623l-0.039,0.101c-23.038,1.959-42.077,14.705-53.438,14.705
				c-14.526,0-25.432-15.221-39.979-15.221c-20.425,0-23.612,16.389-44.967,16.389c-19.555,0-21.812-13.438-42.275-13.438
				c-20.445,0-24.066,14.606-43.145,14.606c-12.172,0-20.308-7.601-30.4-11.835c-2.909-0.911-6.333-1.9-9.342-2.436
				c-1.108-0.138-2.217-0.336-3.404-0.336s-2.256,0.198-3.404,0.336c-2.969,0.535-6.412,1.524-9.322,2.436
				C1071.111,262.832,1062.977,270.432,1050.805,270.432"/>
		</g>
		<g>
			<defs>
				<rect id="SVGID_95_" x="0.763" y="0" width="1999.226" height="1999.217"/>
			</defs>
			<clipPath id="SVGID_96_">
				<use xlink:href="#SVGID_95_"  overflow="visible"/>
			</clipPath>
			<path clip-path="url(#SVGID_96_)" fill="#008A34" d="M1298.219,658.445c13.498-13.498,26.401-5.719,40.851-20.187
				c14.487-14.447,6.551-25.57,20.385-39.365c15.082-15.121,28.937-5.779,43.385-20.247c10.271-10.271,7.243-28.738,17.495-39.01
				c8.056-8.035,24.681-6.571,49.875-27.708l0.139,0.079c5.918-4.077,15.101-2.672,21.791,3.998
				c6.688,6.688,8.074,15.951,3.958,21.85c-0.14,0.297-3.425,4.711-5.344,6.63c-14.448,14.448-30.678,9.164-41.919,20.405
				c-11.896,11.914-8.154,27.192-20.365,39.404c-12.845,12.846-28.521,6.176-42.334,19.989
				c-11.223,11.242-6.373,27.057-18.565,39.247c-14.468,14.468-29.567,6.434-43.699,20.564
				c-13.182,13.161-5.284,24.679-20.979,39.979c-15.715,15.319-26.837,7.837-40.019,21.02
				c-14.132,14.131-6.097,29.231-20.544,43.699c-12.231,12.212-28.024,7.323-39.267,18.584
				c-13.813,13.814-7.145,29.449-19.989,42.335c-12.212,12.19-27.511,8.471-39.386,20.364
				c-11.241,11.223-5.501,27.927-20.425,41.899c-3.266,3.067-5.462,4.492-7.362,5.125c-5.938,3.82-14.962,2.375-21.532-4.195
				c-7.146-7.145-8.472-17.237-3.325-23.057l-0.04-0.1c14.902-17.674,19.355-40.138,27.391-48.173
				c10.292-10.271,28.757-7.224,39.029-17.535c14.448-14.447,5.146-28.262,20.227-43.362c13.815-13.815,24.938-5.918,39.405-20.365
				c14.448-14.468,6.69-27.392,20.168-40.87c8.609-8.608,19.732-8.984,29.865-13.122c2.711-1.405,5.839-3.146,8.312-4.889
				c0.892-0.693,1.802-1.286,2.652-2.137c0.851-0.852,1.464-1.763,2.157-2.673c1.74-2.492,3.482-5.62,4.909-8.312
				C1289.234,678.178,1289.631,667.035,1298.219,658.445"/>
		</g>
		<g>
			<defs>
				<rect id="SVGID_97_" x="0.763" y="0" width="1999.226" height="1999.217"/>
			</defs>
			<clipPath id="SVGID_98_">
				<use xlink:href="#SVGID_97_"  overflow="visible"/>
			</clipPath>
			<path clip-path="url(#SVGID_98_)" fill="#008A34" d="M1429.755,865.961c-9.539,16.525-24.008,12.369-34.239,30.083
				c-10.213,17.693,0.315,26.382-9.46,43.304c-10.688,18.505-26.442,13.082-36.694,30.775c-7.284,12.607,0.455,29.658-6.828,42.245
				c-5.68,9.816-22.106,12.707-40.988,39.662l-0.118-0.04c-4.671,5.462-13.914,6.492-22.088,1.742
				c-8.233-4.75-11.954-13.3-9.5-20.069c0.06-0.315,2.098-5.462,3.442-7.798c10.212-17.692,27.273-16.783,35.209-30.558
				c8.412-14.558,0.852-28.372,9.48-43.314c9.084-15.734,25.946-13.359,35.704-30.28c7.956-13.775-0.831-27.769,7.798-42.711
				c10.212-17.713,26.876-13.854,36.891-31.171c9.303-16.13-1.307-25.215,9.896-44.036c11.24-18.881,23.907-14.547,33.249-30.677
				c9.976-17.298-1.701-29.806,8.511-47.52c8.647-14.962,25.175-14.329,33.092-28.104c9.776-16.922-0.692-30.32,8.392-46.075
				c8.63-14.923,24.345-15.299,32.774-29.846c7.957-13.774-1.938-28.421,8.866-45.778c2.355-3.818,4.117-5.738,5.8-6.827
				c4.73-5.265,13.814-6.215,21.89-1.544c8.729,5.047,12.606,14.468,9.123,21.395l0.08,0.099
				c-9.816,20.92-8.293,43.779-13.974,53.636c-7.282,12.588-25.887,14.428-33.171,27.016c-10.212,17.714,2.376,28.659-8.312,47.144
				c-9.776,16.921-22.522,12.152-32.774,29.866c-10.212,17.713,0.634,28.163-8.906,44.688
				c-6.096,10.529-16.743,13.774-25.452,20.405c-2.236,2.038-4.829,4.532-6.769,6.849c-0.673,0.911-1.404,1.742-2.02,2.771
				c-0.594,1.069-0.949,2.1-1.385,3.127c-1.049,2.851-1.9,6.354-2.573,9.303C1433.338,844.586,1435.85,855.452,1429.755,865.961"/>
		</g>
		<g>
			<defs>
				<rect id="SVGID_99_" x="0.763" y="0" width="1999.226" height="1999.217"/>
			</defs>
			<clipPath id="SVGID_100_">
				<use xlink:href="#SVGID_99_"  overflow="visible"/>
			</clipPath>
			<path clip-path="url(#SVGID_100_)" fill="#008A34" d="M1600.199,930.738c-4.948,18.446-20.01,18.148-25.293,37.901
				c-5.305,19.751,7.104,25.44,2.038,44.283c-5.521,20.663-22.146,19.475-27.451,39.227c-3.76,14.052,8.096,28.5,4.354,42.552
				c-2.948,10.965-18.089,18.011-29.352,48.924h-0.138c-3.088,6.492-11.757,9.896-20.881,7.442
				c-9.163-2.454-14.982-9.776-14.349-16.98c-0.039-0.316,0.594-5.779,1.307-8.393c5.264-19.752,21.969-23.274,26.085-38.633
				c4.354-16.229-6.531-27.629-2.059-44.293c4.711-17.536,21.611-19.633,26.68-38.475c4.116-15.358-8.036-26.63-3.562-43.293
				c5.305-19.752,22.403-20.326,27.59-39.644c4.828-18.01-7.778-24.026-1.842-45.125c5.957-21.138,19.338-20.207,24.166-38.197
				c5.187-19.316-9.342-28.361-4.076-48.133c4.491-16.685,20.603-20.346,24.72-35.704c5.065-18.882-8.57-29.113-3.859-46.648
				c4.474-16.685,19.595-21.099,23.948-37.347c4.116-15.358-9.204-26.937-3.286-46.511c1.308-4.294,2.493-6.61,3.84-8.095
				c3.206-6.293,11.736-9.559,20.741-7.145c9.737,2.593,15.913,10.688,14.369,18.308l0.099,0.06
				c-4.077,22.761,3.306,44.452,0.376,55.416c-3.779,14.032-21.296,20.644-25.036,34.695c-5.323,19.732,9.679,27.055,4.177,47.678
				c-5.066,18.861-18.645,17.575-23.948,37.327c-5.283,19.752,7.877,27.035,2.97,45.481c-3.167,11.736-12.607,17.634-19.316,26.283
				c-1.623,2.573-3.482,5.642-4.75,8.392c-0.437,1.069-0.91,2.059-1.228,3.206s-0.396,2.257-0.554,3.365
				c-0.258,3.048-0.18,6.63-0.061,9.639C1598.102,909.146,1603.326,919.003,1600.199,930.738"/>
		</g>
		<g>
			<defs>
				<rect id="SVGID_101_" x="0.763" y="0" width="1999.226" height="1999.217"/>
			</defs>
			<clipPath id="SVGID_102_">
				<use xlink:href="#SVGID_101_"  overflow="visible"/>
			</clipPath>
			<path clip-path="url(#SVGID_102_)" fill="#008A34" d="M1153.147,373.468c18.426-4.929,25.709,8.253,45.461,2.969
				c19.732-5.285,18.465-18.881,37.346-23.928c20.624-5.542,27.946,9.46,47.678,4.155c14.033-3.761,20.645-21.275,34.695-25.017
				c10.964-2.949,24.621,6.63,57,0.93l0.079,0.14c7.165-0.595,14.448,5.225,16.902,14.349c2.454,9.163-0.989,17.872-7.521,20.919
				c-0.276,0.178-5.305,2.375-7.917,3.048c-19.752,5.324-31.152-7.382-46.53-3.266c-16.229,4.354-20.642,19.475-37.327,23.928
				c-17.555,4.71-27.786-8.906-46.647-3.859c-15.359,4.136-19.04,20.247-35.704,24.739c-19.771,5.285-28.816-9.243-48.133-4.077
				c-18.011,4.829-16.902,18.742-38.158,24.146c-21.275,5.423-27.174-6.63-45.165-1.821c-19.315,5.166-19.91,22.286-39.642,27.589
				c-16.686,4.454-27.926-7.658-43.294-3.542c-18.871,5.046-20.931,21.949-38.485,26.64c-16.674,4.493-28.044-6.393-44.303-2.038
				c-15.358,4.117-18.703,21.434-38.624,26.104c-4.364,1.01-6.977,1.127-8.946,0.731c-7.046,0.337-14.141-5.403-16.555-14.388
				c-2.612-9.758,1.296-19.179,8.678-21.612v-0.119c21.741-7.857,36.842-25.096,47.807-28.025
				c14.042-3.779,28.521,8.096,42.562,4.334c19.742-5.284,18.584-21.929,39.218-27.471c18.871-5.047,24.531,7.363,44.283,2.079
				c19.752-5.285,19.475-20.366,37.921-25.294c11.716-3.167,21.572,2.078,32.418,3.543c3.008,0.139,6.61,0.218,9.618-0.06
				c1.147-0.158,2.237-0.219,3.405-0.555c1.147-0.296,2.137-0.792,3.206-1.207c2.73-1.287,5.799-3.146,8.372-4.77
				C1135.493,386.055,1141.391,376.614,1153.147,373.468"/>
		</g>
		<g>
			<defs>
				<rect id="SVGID_103_" x="0.763" y="0" width="1999.226" height="1999.217"/>
			</defs>
			<clipPath id="SVGID_104_">
				<use xlink:href="#SVGID_103_"  overflow="visible"/>
			</clipPath>
			<path clip-path="url(#SVGID_104_)" fill="#008A34" d="M575.688,533.601c18.446-4.948,25.72,8.253,45.482,2.969
				c19.74-5.284,18.465-18.9,37.336-23.948c20.623-5.521,27.945,9.481,47.688,4.177c14.042-3.761,20.644-21.276,34.694-25.017
				c10.965-2.948,24.621,6.63,57.01,0.931l0.08,0.138c7.154-0.594,14.428,5.225,16.882,14.349c2.454,9.164-0.969,17.872-7.521,20.92
				c-0.269,0.179-5.305,2.375-7.927,3.049c-19.732,5.323-31.143-7.383-46.511-3.267c-16.229,4.354-20.651,19.477-37.327,23.928
				c-17.556,4.691-27.788-8.905-46.659-3.858c-15.357,4.137-19.028,20.247-35.703,24.738c-19.762,5.285-28.826-9.241-48.133-4.076
				c-18,4.809-16.901,18.742-38.147,24.146c-21.276,5.423-27.175-6.63-45.175-1.821c-19.307,5.167-19.9,22.286-39.643,27.591
				c-16.674,4.452-27.927-7.66-43.285-3.543c-18.872,5.047-20.938,21.948-38.483,26.64c-16.686,4.493-28.056-6.393-44.305-2.039
				c-15.368,4.116-18.702,21.435-38.633,26.105c-4.354,1.009-6.966,1.128-8.936,0.731c-7.047,0.336-14.142-5.403-16.557-14.389
				c-2.611-9.757,1.296-19.179,8.679-21.612v-0.119c21.741-7.856,36.843-25.096,47.808-28.024c14.042-3.78,28.51,8.095,42.562,4.334
				c19.732-5.284,18.584-21.93,39.208-27.471c18.87-5.047,24.552,7.362,44.283,2.078c19.763-5.304,19.476-20.365,37.921-25.293
				c11.735-3.167,21.582,2.078,32.429,3.542c3.018,0.139,6.609,0.218,9.628-0.06c1.128-0.158,2.227-0.218,3.384-0.555
				c1.159-0.297,2.148-0.792,3.197-1.208c2.76-1.287,5.817-3.146,8.391-4.77C558.063,546.188,563.963,536.747,575.688,533.601"/>
		</g>
		<g>
			<defs>
				<rect id="SVGID_105_" x="0.763" y="0" width="1999.226" height="1999.217"/>
			</defs>
			<clipPath id="SVGID_106_">
				<use xlink:href="#SVGID_105_"  overflow="visible"/>
			</clipPath>
			<path clip-path="url(#SVGID_106_)" fill="#008A34" d="M1206.585,530.573c16.507-9.54,26.995,1.307,44.688-8.926
				c17.714-10.232,12.944-22.998,29.886-32.755c18.485-10.688,29.41,1.9,47.144-8.313c12.567-7.282,14.407-25.906,27.036-33.17
				c9.815-5.68,25.49,0.04,55.316-13.854l0.1,0.119c6.769-2.415,15.278,1.325,19.989,9.479c4.75,8.234,3.701,17.517-1.821,22.167
				c-0.197,0.237-4.513,3.662-6.848,5.007c-17.732,10.232-32.021,0.931-45.798,8.867c-14.547,8.411-14.884,24.146-29.846,32.774
				c-15.754,9.104-29.153-1.405-46.075,8.372c-13.775,7.936-13.142,24.462-28.104,33.091c-17.694,10.231-30.223-1.464-47.541,8.55
				c-16.109,9.302-11.479,22.483-30.598,33.21c-19.158,10.708-27.946,0.594-44.096,9.916c-17.337,9.995-13.458,26.679-31.152,36.892
				c-14.962,8.63-28.955-0.157-42.749,7.778c-16.902,9.777-14.527,26.641-30.262,35.704c-14.943,8.649-28.757,1.088-43.324,9.5
				c-13.774,7.936-12.538,25.55-30.549,35.189c-3.958,2.137-6.452,2.93-8.451,3.027c-6.729,2.178-15.062-1.544-19.722-9.599
				c-5.027-8.748-3.711-18.861,2.781-23.117l-0.03-0.119c18.97-13.22,29.103-33.764,38.938-39.443
				c12.578-7.265,29.619,0.455,42.246-6.829c17.694-10.212,12.251-26.006,30.756-36.673c16.923-9.777,25.61,0.752,43.305-9.461
				c17.713-10.232,13.557-24.72,30.083-34.26c10.528-6.075,21.375-3.562,32.239-4.947c2.95-0.673,6.434-1.524,9.304-2.554
				c1.028-0.436,2.078-0.812,3.106-1.385c1.049-0.614,1.881-1.346,2.791-2.019c2.315-1.94,4.81-4.532,6.849-6.789
				C1192.81,547.316,1196.055,536.648,1206.585,530.573"/>
		</g>
		<g>
			<defs>
				<rect id="SVGID_107_" x="0.763" y="0" width="1999.226" height="1999.217"/>
			</defs>
			<clipPath id="SVGID_108_">
				<use xlink:href="#SVGID_107_"  overflow="visible"/>
			</clipPath>
			<path clip-path="url(#SVGID_108_)" fill="#008A34" d="M687.372,831.444c16.526-9.56,26.996,1.286,44.689-8.926
				c17.714-10.232,12.954-22.998,29.875-32.775c18.485-10.668,29.43,1.92,47.144-8.293c12.577-7.283,14.429-25.907,27.035-33.189
				c9.827-5.661,25.513,0.04,55.328-13.835l0.099,0.118c6.77-2.415,15.279,1.326,20,9.48c4.75,8.234,3.692,17.516-1.82,22.167
				c-0.198,0.237-4.522,3.662-6.867,4.987c-17.714,10.252-32.003,0.949-45.788,8.887c-14.546,8.411-14.893,24.146-29.846,32.774
				c-15.754,9.104-29.144-1.405-46.075,8.371c-13.774,7.937-13.151,24.463-28.104,33.092c-17.714,10.231-30.223-1.465-47.529,8.55
				c-16.13,9.302-11.488,22.482-30.599,33.189c-19.147,10.729-27.965,0.614-44.104,9.936c-17.328,9.996-13.448,26.68-31.162,36.892
				c-14.962,8.629-28.945-0.158-42.729,7.778c-16.923,9.777-14.528,26.62-30.271,35.704c-14.943,8.639-28.758,1.088-43.314,9.47
				c-13.785,7.957-12.548,25.571-30.559,35.229c-3.958,2.138-6.452,2.929-8.451,3.009c-6.729,2.177-15.062-1.544-19.722-9.619
				c-5.026-8.708-3.71-18.842,2.781-23.077l-0.021-0.119c18.96-13.229,29.094-33.773,38.931-39.455
				c12.588-7.264,29.628,0.456,42.234-6.828c17.694-10.212,12.261-26.006,30.767-36.673c16.922-9.776,25.61,0.751,43.305-9.479
				c17.713-10.232,13.557-24.7,30.073-34.239c10.539-6.076,21.385-3.563,32.25-4.948c2.959-0.672,6.441-1.523,9.303-2.553
				c1.029-0.456,2.067-0.812,3.116-1.405c1.039-0.594,1.87-1.326,2.78-1.999c2.307-1.939,4.801-4.532,6.849-6.789
				C673.598,848.188,676.853,837.52,687.372,831.444"/>
		</g>
		<g>
			<defs>
				<rect id="SVGID_109_" x="0.763" y="0" width="1999.226" height="1999.217"/>
			</defs>
			<clipPath id="SVGID_110_">
				<use xlink:href="#SVGID_109_"  overflow="visible"/>
			</clipPath>
			<path clip-path="url(#SVGID_110_)" fill="#008A34" d="M874.442,1074.793c13.498-13.498,26.402-5.74,40.85-20.188
				c14.479-14.447,6.552-25.57,20.375-39.385c15.092-15.121,28.937-5.779,43.384-20.228c10.281-10.281,7.244-28.747,17.516-39.019
				c8.045-8.035,24.65-6.571,49.864-27.708l0.119,0.08c5.938-4.078,15.121-2.672,21.811,3.998c6.69,6.71,8.075,15.952,3.938,21.85
				c-0.119,0.297-3.404,4.71-5.324,6.63c-14.448,14.447-30.677,9.163-41.919,20.405c-11.896,11.905-8.154,27.184-20.365,39.415
				c-12.845,12.825-28.51,6.175-42.334,19.989c-11.23,11.241-6.363,27.035-18.563,39.227c-14.468,14.488-29.569,6.452-43.721,20.583
				c-13.171,13.142-5.265,24.66-20.948,39.979c-15.734,15.318-26.857,7.838-40.028,21.019c-14.151,14.131-6.105,29.212-20.554,43.7
				c-12.222,12.191-28.006,7.323-39.257,18.564c-13.814,13.814-7.154,29.489-20,42.354c-12.2,12.19-27.5,8.471-39.395,20.346
				c-11.232,11.241-5.474,27.945-20.415,41.918c-3.255,3.048-5.452,4.474-7.354,5.106c-5.937,3.839-14.962,2.375-21.542-4.196
				c-7.135-7.125-8.451-17.219-3.306-23.037l-0.04-0.119c14.895-17.654,19.356-40.137,27.382-48.173
				c10.292-10.251,28.758-7.204,39.029-17.535c14.447-14.448,5.125-28.262,20.227-43.344c13.824-13.814,24.928-5.938,39.396-20.385
				c14.458-14.448,6.69-27.393,20.168-40.852c8.619-8.629,19.742-8.984,29.875-13.141c2.692-1.386,5.838-3.127,8.313-4.869
				c0.891-0.712,1.8-1.306,2.651-2.137c0.852-0.871,1.454-1.781,2.167-2.692c1.742-2.454,3.463-5.621,4.889-8.312
				C865.457,1094.505,865.844,1083.382,874.442,1074.793"/>
		</g>
	</g>
</g>
<g id="Ebene_9">
	<g>
		<g>
			<path fill="#008A34" d="M968.917,1618.663c0-17.454,14.161-31.626,31.599-31.626c17.496,0,31.627,14.172,31.627,31.626
				c0,17.457-14.131,31.628-31.627,31.628C983.078,1650.291,968.917,1636.12,968.917,1618.663 M1176.402,924.584
				c0,29.37-6.274,55.298-18.86,77.811c-12.568,22.562-29.353,43.779-50.291,63.65c-11.539,9.459-22.267,18.09-32.222,25.966
				c-9.976,7.837-14.229,19.515-14.229,36.258v139.569c0,23.791-26.877,43.106-60.067,43.106c-33.18,0-60.087-19.316-60.087-43.106
				c0-0.078,0.04-0.157,0.04-0.276c0-0.118-0.04-0.198-0.04-0.316v-139.887c0-14.685-5.78-25.927-17.288-33.804
				c-11.558-7.838-21.483-15.952-29.876-24.344c-23.046-20.939-41.116-42.948-54.209-66.025
				c-13.121-23.047-19.663-49.766-19.663-80.166c0-18.861,2.375-35.605,7.075-50.291c4.987-15.457,24.116-55.753,24.116-55.753
				h295.022c0,0,16.17,28.243,21.931,48.688C1173.493,886.09,1176.402,905.742,1176.402,924.584 M1478.164,1611.459
				c0-16.742-4.71-604.077-4.71-617.693c-1.068-29.341-7.086-57.386-18.051-84.085c-11.004-26.738-25.451-51.103-43.244-73.09
				c-17.832-22.009-38.771-40.87-62.857-56.584c-24.125-15.735-49.795-27.769-77.01-36.16c-17.852-5.226-43.739-7.283-66.5-7.283
				H794.297c-32.509,0-66.114,7.283-79.207,10.43c-47.232,13.418-86.697,44.55-104.51,61.314
				c-17.832,16.744-33.279,35.625-46.372,56.584c-13.111,20.938-23.323,43.206-30.637,66.776
				c-7.343,23.593-11.014,46.906-11.014,69.975v617.655c0,38.792,12.567,72.317,37.723,100.581
				c25.146,28.302,57.613,41.998,97.464,42.434c15.239,0.197,46.875-5.979,46.875-5.979s0.257,58.741,0.257,60.801l89.42,0.079
				v-706.876c0-23.592-19.109-42.71-42.701-42.71c-23.572,0-42.7,19.118-42.7,42.71c0,0-2.435,443.488-5.571,535.679
				c-2.514,10.055-10.5,17.575-18.872,24.344c-8.392,6.849-18.871,10.252-31.438,10.252c-10.489,0-20.178-3.681-29.074-11.004
				c-8.926-7.323-14.418-15.714-16.506-25.136c0-9.46-6.075-616.824-6.075-616.824c1.761-77.257,24.402-111.437,54.802-147.062
				c30.381-35.605,68.618-56.03,114.732-61.294c3.137-1.029,36.822-1.762,38.93-1.762c0,0-20.515,48.251-26.353,76.415
				c-2.108,8.927-3.315,22.979-3.038,34.497c0.673,27.688,5.125,50.391,15.605,73.951c15.081,31.943,39.741,62.422,53.16,76.871
				c13.419,14.487,54.685,43.896,54.685,44.927l0.218,143.647c0.346,47.578,36.199,74.852,77.019,74.852v212.443
				c-27.302,8.353-47.312,33.486-47.312,63.529c0,36.854,29.875,66.698,66.708,66.698c36.852,0,66.737-29.846,66.737-66.698
				c0-30.043-20.01-55.178-47.302-63.529V1342.69c36.061,0,76.791-27.272,77.384-74.853l0.476-143.607
				c0-1.069,65.154-52.962,89.102-94.723c38.95-67.975,23.513-142.886,19.356-159.134c-4.196-16.229-11.004-35.565-19.356-53.397
				c0,0,72.26-2.059,99.116,15.517c18.842,10.489,36.021,24.521,50.688,40.236c14.666,15.733,26.737,33.27,36.16,52.646
				c9.42,19.416,15.713,39.564,18.86,60.523c4.274,39.02,3.146,649.114,3.146,649.114c-2.117,12.587-7.362,23.313-15.733,32.221
				c-8.392,8.906-19.931,13.379-34.576,13.379c-10.47,0-20.702-3.681-30.638-11.004c-9.976-7.323-15.991-15.714-18.089-25.136
				c0-4.195-4.651-534.096-4.651-534.136c0-23.591-19.099-42.71-42.69-42.71s-42.709,19.119-42.709,42.71v706.876l90.052-0.078
				v-62.66c6.293,3.127,42.313,5.698,42.313,5.698c30.399,0,58.524-9.895,84.233-27.707c25.649-17.812,42.671-41.919,51.062-72.317
				C1476.581,1643.443,1478.164,1627.175,1478.164,1611.459"/>
		</g>
		<g>
			<path fill="#008A34" d="M1076.713,310.906c0-47.341,38.376-85.737,85.717-85.737c47.36,0,85.757,38.396,85.757,85.737
				s-38.396,85.717-85.757,85.717C1115.089,396.623,1076.713,358.247,1076.713,310.906 M1207.495,452H793.564
				c-1.02,8.332-1.682,16.744-1.682,25.334c0,115.267,93.405,208.662,208.633,208.662c115.247,0,208.682-93.396,208.682-208.663
				C1209.196,468.744,1208.484,460.332,1207.495,452 M1279.22,310.906c0-64.5-52.29-116.791-116.791-116.791
				c-52.032,0-95.593,34.26-110.694,81.285c-16.427-4.156-33.488-6.709-51.221-6.709c-80.107,0-149.575,45.224-184.537,111.466
				h252.896c21.257,28.698,55.101,47.539,93.556,47.539C1226.93,427.696,1279.22,375.407,1279.22,310.906"/>
		</g>
	</g>
</g>
</svg>
