<?xml version="1.0" encoding="utf-8"?>
<!-- Generator: Adobe Illustrator 16.0.0, SVG Export Plug-In . SVG Version: 6.00 Build 0)  -->
<!DOCTYPE svg PUBLIC "-//W3C//DTD SVG 1.0//EN" "http://www.w3.org/TR/2001/REC-SVG-20010904/DTD/svg10.dtd">
<svg version="1.0" id="Ebene_1" xmlns="http://www.w3.org/2000/svg" xmlns:xlink="http://www.w3.org/1999/xlink" x="0px" y="0px"
	 width="45px" height="45px" viewBox="0 0 45 45" enable-background="new 0 0 45 45" xml:space="preserve">
<path fill="#010202" d="M19.14,41.701C17.682,40.278,3.422,25.307,3.422,25.307c-0.779-0.759-1.167-1.754-1.167-2.75
	c0-0.997,0.389-1.992,1.167-2.751c0,0,14.259-14.971,15.717-16.395c1.459-1.423,4.083-1.52,5.642,0
	c1.556,1.518,1.68,3.638-0.001,5.501L11.699,22.556L24.78,36.2c1.681,1.864,1.557,3.983,0.001,5.501
	C23.223,43.221,20.599,43.125,19.14,41.701z"/>
<path fill="#010202" d="M36.015,41.701c-1.458-1.423-15.717-16.395-15.717-16.395c-0.779-0.759-1.167-1.754-1.167-2.75
	c0-0.997,0.389-1.992,1.167-2.751c0,0,14.259-14.971,15.717-16.395c1.459-1.423,4.083-1.52,5.642,0
	c1.556,1.518,1.68,3.638-0.001,5.501L28.574,22.556L41.655,36.2c1.681,1.864,1.557,3.983,0.001,5.501
	C40.098,43.221,37.474,43.125,36.015,41.701z"/>
</svg>
