<?xml version="1.0" encoding="utf-8"?>
<!-- Generator: Adobe Illustrator 16.0.0, SVG Export Plug-In . SVG Version: 6.00 Build 0)  -->
<!DOCTYPE svg PUBLIC "-//W3C//DTD SVG 1.1//EN" "http://www.w3.org/Graphics/SVG/1.1/DTD/svg11.dtd">
<svg version="1.1" id="Ebene_1" xmlns="http://www.w3.org/2000/svg" xmlns:xlink="http://www.w3.org/1999/xlink" x="0px" y="0px"
	 width="45px" height="45px" viewBox="0 0 45 45" enable-background="new 0 0 45 45" xml:space="preserve">
<g>
	<path fill-rule="evenodd" clip-rule="evenodd" d="M38.798,2.291H26.973c-1.309,0-1.49,1.473-1.49,1.473l0.004,1.406
		c0,1.126,1.519,1.596,1.519,1.596h7.804l-7.663,6.836c-2.433-1.516-5.312-2.332-8.399-2.332c-8.707,0-15.766,6.965-15.766,15.673
		c0,8.707,7.059,15.767,15.766,15.767s15.766-7.06,15.766-15.767c0-3.972-1.594-7.726-4.018-10.499
		c1.02-1.711,7.021-6.863,7.021-6.863v7.727c-0.251,1.251,1.252,1.502,1.252,1.502l1.691-0.062c0,0,1.561,0.03,1.561-1.424V5.295
		C42.02,2.512,38.798,2.291,38.798,2.291z M18.818,38.234c-6.259,0-11.333-5.073-11.333-11.333c0-6.259,5.075-11.224,11.333-11.224
		c6.259,0,11.223,4.965,11.223,11.224C30.041,33.161,25.077,38.234,18.818,38.234z"/>
</g>
</svg>
