<?xml version="1.0" encoding="utf-8"?>
<!-- Generator: Adobe Illustrator 15.1.0, SVG Export Plug-In . SVG Version: 6.00 Build 0)  -->
<!DOCTYPE svg PUBLIC "-//W3C//DTD SVG 1.0//EN" "http://www.w3.org/TR/2001/REC-SVG-20010904/DTD/svg10.dtd">
<svg version="1.0" id="Ebene_1" xmlns="http://www.w3.org/2000/svg" xmlns:xlink="http://www.w3.org/1999/xlink" x="0px" y="0px"
	 width="45px" height="45px" viewBox="0 0 45 45" enable-background="new 0 0 45 45" xml:space="preserve">
<g>
	<path d="M6.933,12.36c3.083-3.792,7.519-6.442,12.567-7.202l-2.303-2.869C16,1.049,13.41,1.58,10.153,3.461
		c-3.257,1.88-5.012,3.857-4.538,5.515L6.933,12.36z"/>
	<path d="M22.5,11.62c-0.693,0-1.254,0.561-1.254,1.253v10.866H10.38c-0.692,0-1.254,0.562-1.254,1.254s0.562,1.253,1.254,1.253
		H22.5c0.691,0,1.254-0.561,1.254-1.253v-12.12C23.754,12.181,23.191,11.62,22.5,11.62z"/>
	<path d="M38.066,12.36C34.984,8.568,30.546,5.918,25.5,5.158l2.303-2.869C29,1.049,31.59,1.58,34.848,3.461
		c3.256,1.88,5.01,3.857,4.535,5.515L38.066,12.36z"/>
	<path d="M22.5,6.604c-10.139,0-18.388,8.25-18.388,18.387c0,10.142,8.249,18.39,18.388,18.39c10.139,0,18.389-8.248,18.389-18.39
		C40.889,14.854,32.639,6.604,22.5,6.604z M22.5,40.873c-8.757,0-15.881-7.124-15.881-15.88c0-8.756,7.124-15.881,15.881-15.881
		c8.758,0,15.881,7.125,15.881,15.879C38.381,33.749,31.258,40.873,22.5,40.873z"/>
</g>
</svg>
