<?xml version="1.0" encoding="utf-8"?>
<!-- Generator: Adobe Illustrator 16.0.0, SVG Export Plug-In . SVG Version: 6.00 Build 0)  -->
<!DOCTYPE svg PUBLIC "-//W3C//DTD SVG 1.1//EN" "http://www.w3.org/Graphics/SVG/1.1/DTD/svg11.dtd">
<svg version="1.1" id="Ebene_1" xmlns="http://www.w3.org/2000/svg" xmlns:xlink="http://www.w3.org/1999/xlink" x="0px" y="0px"
	 width="90px" height="9.234px" viewBox="0 0 90 9.234" enable-background="new 0 0 90 9.234" xml:space="preserve">
<g opacity="0.3">
	<path d="M0,4.833c0-0.891,0.179-1.671,0.536-2.341S1.408,1.31,2.08,0.957c0.672-0.353,1.459-0.53,2.361-0.53
		c0.914,0,1.766,0.171,2.555,0.507L6.609,1.81C5.836,1.482,5.091,1.318,4.377,1.318c-1.043,0-1.857,0.311-2.443,0.932
		S1.055,3.732,1.055,4.834c0,1.16,0.282,2.04,0.847,2.643c0.565,0.6,1.394,0.896,2.487,0.896c0.594,0,1.174-0.065,1.74-0.206V5.519
		H4.213V4.628h2.912V8.8C6.672,8.943,6.211,9.05,5.742,9.124C5.273,9.196,4.73,9.233,4.113,9.233c-1.297,0-2.307-0.386-3.029-1.157
		C0.362,7.305,0,6.224,0,4.833z"/>
	<path d="M8.678,5.958c0-1.035,0.254-1.854,0.763-2.467c0.508-0.609,1.19-0.914,2.047-0.914c0.802,0,1.437,0.265,1.903,0.794
		C13.859,3.9,14.092,4.6,14.092,5.466v0.615H9.674c0.02,0.754,0.21,1.326,0.572,1.717c0.362,0.394,0.872,0.586,1.529,0.586
		c0.689,0,1.37-0.145,2.044-0.434v0.867c-0.343,0.146-0.667,0.255-0.973,0.317C12.54,9.2,12.171,9.233,11.74,9.233
		c-0.947,0-1.694-0.289-2.241-0.867C8.951,7.788,8.678,6.985,8.678,5.958z M9.697,5.29h3.363c0-0.613-0.137-1.083-0.411-1.409
		c-0.273-0.323-0.665-0.486-1.174-0.486c-0.517,0-0.929,0.168-1.235,0.504C9.933,4.231,9.752,4.696,9.697,5.29z"/>
	<path d="M15.768,9.116v-9.117h0.973v2.215c0,0.496-0.016,0.941-0.047,1.336h0.047c0.452-0.641,1.124-0.961,2.015-0.961
		c0.84,0,1.492,0.288,1.957,0.864c0.465,0.576,0.697,1.395,0.697,2.446s-0.234,1.874-0.703,2.458
		c-0.469,0.584-1.119,0.876-1.951,0.876c-0.418,0-0.8-0.077-1.146-0.231C17.264,8.85,16.974,8.61,16.74,8.29h-0.07l-0.205,0.826
		H15.768z M16.74,5.899c0,0.899,0.15,1.548,0.451,1.937c0.301,0.392,0.784,0.583,1.448,0.583c0.598,0,1.043-0.218,1.336-0.65
		c0.293-0.438,0.439-1.062,0.439-1.878c0-0.839-0.146-1.459-0.439-1.869s-0.746-0.615-1.359-0.615c-0.664,0-1.143,0.188-1.436,0.571
		C16.887,4.356,16.74,4.997,16.74,5.899z"/>
	<path d="M23.051,6.895V2.694h0.996V6.86c0,0.521,0.119,0.914,0.356,1.172c0.239,0.258,0.611,0.387,1.118,0.387
		c0.671,0,1.161-0.184,1.472-0.551c0.31-0.367,0.465-0.967,0.465-1.799V2.694h0.972v6.422h-0.791l-0.15-0.861h-0.055
		c-0.2,0.316-0.475,0.561-0.829,0.729c-0.352,0.168-0.754,0.252-1.207,0.252c-0.785,0-1.372-0.188-1.763-0.56
		C23.246,8.306,23.051,7.712,23.051,6.895z"/>
	<path d="M30.486,9.116V2.694h0.791l0.119,1.195h0.05c0.239-0.421,0.526-0.743,0.862-0.974c0.336-0.228,0.705-0.341,1.107-0.341
		c0.285,0,0.541,0.023,0.768,0.071l-0.135,0.908c-0.266-0.062-0.5-0.091-0.703-0.091c-0.52,0-0.964,0.212-1.333,0.635
		c-0.369,0.421-0.553,0.943-0.553,1.571v3.442h-0.973V9.116z"/>
	<path d="M34.535,3.45V2.981l0.92-0.404l0.41-1.371h0.562v1.488h1.863V3.45h-1.863v3.788c0,0.388,0.092,0.686,0.275,0.893
		c0.184,0.208,0.436,0.312,0.756,0.312c0.172,0,0.338-0.013,0.498-0.038s0.287-0.052,0.381-0.08V9.06
		c-0.105,0.051-0.261,0.092-0.466,0.125c-0.205,0.029-0.39,0.049-0.554,0.049c-1.242,0-1.863-0.654-1.863-1.963v-3.82L34.535,3.45
		L34.535,3.45z"/>
	<path d="M39.211,4.272c0-0.524,0.213-0.938,0.638-1.241c0.426-0.303,1.009-0.455,1.75-0.455c0.688,0,1.359,0.141,2.016,0.422
		l-0.34,0.792c-0.643-0.266-1.225-0.396-1.746-0.396c-0.462,0-0.811,0.069-1.045,0.217c-0.235,0.145-0.353,0.345-0.353,0.599
		c0,0.172,0.044,0.319,0.132,0.44c0.088,0.121,0.23,0.234,0.426,0.347c0.196,0.109,0.571,0.271,1.128,0.479
		c0.761,0.275,1.273,0.558,1.536,0.84c0.263,0.279,0.394,0.636,0.394,1.062c0,0.596-0.222,1.054-0.664,1.375
		c-0.443,0.323-1.064,0.484-1.865,0.484c-0.85,0-1.513-0.133-1.988-0.398V7.937c0.308,0.153,0.639,0.277,0.991,0.37
		c0.354,0.09,0.693,0.135,1.021,0.135c0.51,0,0.9-0.081,1.175-0.244s0.411-0.41,0.411-0.743c0-0.25-0.108-0.465-0.326-0.643
		c-0.217-0.181-0.641-0.391-1.271-0.631c-0.599-0.226-1.023-0.418-1.274-0.584c-0.25-0.166-0.437-0.355-0.56-0.566
		C39.272,4.819,39.211,4.566,39.211,4.272z"/>
	<path d="M44.988,5.923c0-1.059,0.232-1.881,0.702-2.467c0.468-0.586,1.117-0.879,1.949-0.879c0.873,0,1.541,0.316,2.008,0.949
		h0.076l-0.041-0.463l-0.022-0.451v-2.613h0.973v9.117H49.84l-0.129-0.861h-0.053c-0.451,0.652-1.123,0.979-2.02,0.979
		c-0.839,0-1.488-0.287-1.953-0.861C45.221,7.798,44.988,6.981,44.988,5.923z M45.984,5.935c0,0.817,0.147,1.438,0.451,1.854
		c0.301,0.418,0.744,0.627,1.326,0.627c0.666,0,1.146-0.181,1.445-0.542c0.299-0.358,0.449-0.941,0.449-1.749V5.923
		c0-0.907-0.152-1.56-0.455-1.945c-0.303-0.391-0.786-0.584-1.452-0.584c-0.569,0-1.008,0.222-1.312,0.665
		C46.135,4.5,45.984,5.126,45.984,5.935z"/>
	<path d="M52.219,7.347c0-1.293,1.037-1.974,3.115-2.033l1.092-0.036V4.874c0-0.51-0.109-0.887-0.324-1.13
		c-0.217-0.243-0.562-0.365-1.039-0.365c-0.533,0-1.139,0.166-1.812,0.498l-0.304-0.746c0.316-0.169,0.662-0.302,1.039-0.396
		s0.757-0.146,1.136-0.146c0.767,0,1.332,0.17,1.7,0.513c0.367,0.34,0.554,0.885,0.554,1.635v4.383h-0.722l-0.192-0.911h-0.047
		c-0.319,0.401-0.64,0.673-0.957,0.815c-0.317,0.142-0.715,0.213-1.188,0.213c-0.642,0-1.144-0.164-1.504-0.49
		C52.4,8.416,52.219,7.95,52.219,7.347z M53.25,7.359c0,0.354,0.105,0.623,0.318,0.807c0.213,0.188,0.51,0.277,0.893,0.277
		c0.604,0,1.078-0.167,1.424-0.5c0.344-0.333,0.518-0.801,0.518-1.401V5.958l-0.971,0.041c-0.771,0.027-1.33,0.148-1.67,0.362
		C53.42,6.575,53.25,6.908,53.25,7.359z"/>
	<path d="M58.523,3.45V2.981l0.92-0.404l0.41-1.371h0.562v1.488h1.862V3.45h-1.862v3.788c0,0.388,0.092,0.686,0.274,0.893
		c0.185,0.208,0.437,0.312,0.756,0.312c0.173,0,0.339-0.013,0.498-0.038c0.16-0.025,0.287-0.052,0.382-0.08V9.06
		c-0.104,0.051-0.263,0.092-0.468,0.125c-0.205,0.029-0.391,0.049-0.553,0.049c-1.242,0-1.863-0.654-1.863-1.963v-3.82L58.523,3.45
		L58.523,3.45z"/>
	<path d="M63.539,6.895V2.694h0.996V6.86c0,0.521,0.119,0.914,0.355,1.172c0.235,0.258,0.608,0.387,1.114,0.387
		c0.675,0,1.162-0.184,1.476-0.551c0.309-0.367,0.465-0.967,0.465-1.799V2.694h0.973v6.422h-0.791l-0.15-0.861h-0.055
		c-0.199,0.316-0.475,0.562-0.828,0.729c-0.353,0.168-0.756,0.252-1.207,0.252c-0.785,0-1.373-0.188-1.764-0.56
		C63.734,8.306,63.539,7.712,63.539,6.895z"/>
	<path d="M70.975,9.116V2.694h0.791l0.158,0.868h0.047c0.184-0.312,0.441-0.55,0.775-0.727c0.334-0.174,0.709-0.261,1.123-0.261
		c1.004,0,1.66,0.359,1.969,1.079h0.047c0.191-0.333,0.469-0.595,0.832-0.789s0.777-0.29,1.242-0.29c0.727,0,1.27,0.188,1.631,0.562
		c0.361,0.37,0.543,0.97,0.543,1.787v4.189H79.16V4.93c0-0.516-0.109-0.897-0.328-1.153s-0.559-0.385-1.02-0.385
		c-0.605,0-1.056,0.174-1.342,0.521c-0.289,0.352-0.437,0.885-0.437,1.609v3.593h-0.976V4.93c0-0.516-0.106-0.897-0.328-1.153
		c-0.219-0.256-0.561-0.385-1.022-0.385c-0.606,0-1.06,0.183-1.34,0.549c-0.283,0.366-0.427,0.966-0.427,1.8v3.376L70.975,9.116
		L70.975,9.116z"/>
</g>
</svg>
