<?xml version="1.0" encoding="utf-8"?>
<!-- Generator: Adobe Illustrator 16.0.0, SVG Export Plug-In . SVG Version: 6.00 Build 0)  -->
<!DOCTYPE svg PUBLIC "-//W3C//DTD SVG 1.0//EN" "http://www.w3.org/TR/2001/REC-SVG-20010904/DTD/svg10.dtd">
<svg version="1.0" id="Ebene_1" xmlns="http://www.w3.org/2000/svg" xmlns:xlink="http://www.w3.org/1999/xlink" x="0px" y="0px"
	 width="45px" height="45px" viewBox="0 0 45 45" enable-background="new 0 0 45 45" xml:space="preserve">
<g>
	<path fill="#FFFFFF" d="M12.742,29.442c-1.716-1.194-3.729-1.253-7.688,1.929c-3.123,2.511-3.272,4.571-2.348,6.335L12.742,29.442z
		"/>
	<g>
		<path fill="#FFFFFF" d="M37.807,2.761c-1.787-0.983-3.876-0.89-6.435,2.294c-3.241,4.031-3.12,6.044-1.862,7.781L37.807,2.761z"/>
		<path fill="#FFFFFF" d="M41.693,6.258c-0.709-0.708-1.461-1.564-2.277-2.306l-8.558,10.392c0.251,0.25,0.51,0.503,0.774,0.768
			c1.837,1.838-2.001,6.488-6.017,10.504c-4.016,4.017-8.667,7.855-10.506,6.017c-0.292-0.292-0.571-0.579-0.846-0.854L3.877,39.333
			c0.759,0.849,1.648,1.628,2.381,2.361c2.943,2.942,13.91,0.155,24.751-10.685C41.848,20.168,44.637,9.201,41.693,6.258z"/>
	</g>
</g>
</svg>
