<?xml version="1.0" encoding="utf-8"?>
<!-- Generator: Adobe Illustrator 16.0.0, SVG Export Plug-In . SVG Version: 6.00 Build 0)  -->
<!DOCTYPE svg PUBLIC "-//W3C//DTD SVG 1.0//EN" "http://www.w3.org/TR/2001/REC-SVG-20010904/DTD/svg10.dtd">
<svg version="1.0" id="Ebene_1" xmlns="http://www.w3.org/2000/svg" xmlns:xlink="http://www.w3.org/1999/xlink" x="0px" y="0px"
	 width="45px" height="45px" viewBox="0 0 45 45" enable-background="new 0 0 45 45" xml:space="preserve">
<path fill="none" stroke="#000000" stroke-width="3" stroke-linecap="round" stroke-linejoin="round" stroke-miterlimit="10" d="
	M41.275,34.906v-3.235c0,0,0.396-2.632-3.786-5.036c-1.962-1.127-5.166-1.66-7.353-1.903c2.971-1.004,5.11-3.812,5.11-7.122
	c0-4.151-3.365-7.517-7.518-7.517c-4.151,0-7.516,3.366-7.516,7.517c0,3.32,2.152,6.136,5.137,7.13
	c-2.183,0.248-5.333,0.781-7.269,1.895c-4.182,2.403-3.786,5.036-3.786,5.036v3.235"/>
<path fill="none" stroke="#000000" stroke-width="2" stroke-linecap="round" stroke-linejoin="round" stroke-miterlimit="10" d="
	M17.356,11.876c-0.359-0.057-0.728-0.086-1.102-0.086c-3.868,0-7.004,3.136-7.004,7.002c0,3.094,2.006,5.716,4.787,6.643
	c-2.035,0.231-4.968,0.728-6.773,1.765c-3.896,2.239-3.527,4.691-3.527,4.691v3.014"/>
</svg>
