<?xml version="1.0" encoding="utf-8"?>
<!-- Generator: Adobe Illustrator 16.0.0, SVG Export Plug-In . SVG Version: 6.00 Build 0)  -->
<!DOCTYPE svg PUBLIC "-//W3C//DTD SVG 1.0//EN" "http://www.w3.org/TR/2001/REC-SVG-20010904/DTD/svg10.dtd">
<svg version="1.0" id="Ebene_1" xmlns="http://www.w3.org/2000/svg" xmlns:xlink="http://www.w3.org/1999/xlink" x="0px" y="0px"
	 width="45px" height="45px" viewBox="0 0 45 45" enable-background="new 0 0 45 45" xml:space="preserve">
<g>
	<path fill="#010202" d="M27.423,2.281c2.71,0,4.064,1.848,4.064,3.962c0,2.64-2.354,5.081-5.42,5.081
		c-2.567,0-4.064-1.519-3.993-4.026C22.074,5.185,23.856,2.281,27.423,2.281z M19.078,42.751c-2.14,0-3.708-1.32-2.211-7.129
		l2.457-10.303c0.427-1.65,0.498-2.31,0-2.31c-0.644,0-3.42,1.14-5.063,2.262l-1.068-1.782c5.206-4.422,11.195-7.015,13.762-7.015
		c2.139,0,2.496,2.574,1.427,6.535l-2.812,10.83c-0.5,1.913-0.284,2.573,0.214,2.573c0.642,0,2.746-0.794,4.813-2.444l1.213,1.65
		C26.746,40.768,21.218,42.751,19.078,42.751z"/>
</g>
</svg>
