<?xml version="1.0" encoding="utf-8"?>
<!-- Generator: Adobe Illustrator 16.0.0, SVG Export Plug-In . SVG Version: 6.00 Build 0)  -->
<!DOCTYPE svg PUBLIC "-//W3C//DTD SVG 1.1//EN" "http://www.w3.org/Graphics/SVG/1.1/DTD/svg11.dtd">
<svg version="1.1" id="Ebene_1" xmlns="http://www.w3.org/2000/svg" xmlns:xlink="http://www.w3.org/1999/xlink" x="0px" y="0px"
	 width="45px" height="45px" viewBox="0 0 45 45" enable-background="new 0 0 45 45" xml:space="preserve">
<g>
	<path d="M34.17,30.999l-5.818-5.818c0.878-1.441,1.383-3.134,1.383-4.946c0-5.261-4.557-9.819-9.82-9.819
		c-5.26,0-9.525,4.266-9.525,9.527s4.56,9.819,9.819,9.819c1.749,0,3.387-0.474,4.796-1.297l5.849,5.851
		c0.571,0.573,1.5,0.573,2.071,0l1.452-1.45C34.951,32.291,34.743,31.57,34.17,30.999z M13.32,19.943
		c0-3.643,2.952-6.595,6.594-6.595c3.644,0,6.89,3.246,6.89,6.888c0,3.641-2.955,6.594-6.595,6.594
		C16.566,26.83,13.32,23.584,13.32,19.943z"/>
</g>
</svg>
