<?xml version="1.0" encoding="utf-8"?>
<!-- Generator: Adobe Illustrator 16.0.0, SVG Export Plug-In . SVG Version: 6.00 Build 0)  -->
<!DOCTYPE svg PUBLIC "-//W3C//DTD SVG 1.1//EN" "http://www.w3.org/Graphics/SVG/1.1/DTD/svg11.dtd">
<svg version="1.1" id="Ebene_1" xmlns="http://www.w3.org/2000/svg" xmlns:xlink="http://www.w3.org/1999/xlink" x="0px" y="0px"
	 width="45px" height="45px" viewBox="0 0 45 45" enable-background="new 0 0 45 45" xml:space="preserve">
<g>
	<path fill="#010202" d="M25.455,10.375c1.626,0,2.438,1.109,2.438,2.377c0,1.584-1.412,3.048-3.252,3.048
		c-1.54,0-2.437-0.91-2.395-2.415C22.246,12.117,23.313,10.375,25.455,10.375z M20.447,34.656c-1.284,0-2.225-0.791-1.326-4.277
		l1.473-6.184c0.256-0.989,0.299-1.385,0-1.385c-0.385,0-2.052,0.684-3.037,1.358l-0.641-1.07c3.123-2.653,6.719-4.208,8.258-4.208
		c1.283,0,1.497,1.544,0.855,3.92l-1.688,6.499c-0.299,1.149-0.17,1.543,0.129,1.543c0.384,0,1.648-0.476,2.889-1.467l0.727,0.99
		C25.048,33.467,21.731,34.656,20.447,34.656z"/>
</g>
</svg>
