<?xml version="1.0" encoding="utf-8"?>
<!-- Generator: Adobe Illustrator 16.0.0, SVG Export Plug-In . SVG Version: 6.00 Build 0)  -->
<!DOCTYPE svg PUBLIC "-//W3C//DTD SVG 1.0//EN" "http://www.w3.org/TR/2001/REC-SVG-20010904/DTD/svg10.dtd">
<svg version="1.0" id="Ebene_1" xmlns="http://www.w3.org/2000/svg" xmlns:xlink="http://www.w3.org/1999/xlink" x="0px" y="0px"
	 width="45px" height="45px" viewBox="0 0 45 45" enable-background="new 0 0 45 45" xml:space="preserve">
<g>
	<path d="M41.915,36.611l-9.698-9.697c1.463-2.402,2.305-5.223,2.305-8.242c0-8.768-7.597-16.365-16.367-16.365
		C9.388,2.307,2.28,9.416,2.28,18.184c0,8.769,7.598,16.365,16.365,16.365c2.915,0,5.646-0.789,7.994-2.16l9.75,9.75
		c0.954,0.955,2.502,0.955,3.454,0l2.419-2.418C43.215,38.766,42.87,37.564,41.915,36.611z M7.166,18.184
		c0-6.071,4.921-10.992,10.99-10.992c6.073,0,11.481,5.409,11.481,11.48c0,6.07-4.921,10.992-10.992,10.992
		C12.575,29.664,7.166,24.254,7.166,18.184z"/>
</g>
</svg>
