<?xml version="1.0" encoding="utf-8"?>
<!-- Generator: Adobe Illustrator 16.0.0, SVG Export Plug-In . SVG Version: 6.00 Build 0)  -->
<!DOCTYPE svg PUBLIC "-//W3C//DTD SVG 1.1//EN" "http://www.w3.org/Graphics/SVG/1.1/DTD/svg11.dtd">
<svg version="1.1" id="Ebene_1" xmlns="http://www.w3.org/2000/svg" xmlns:xlink="http://www.w3.org/1999/xlink" x="0px" y="0px"
	 width="45px" height="45px" viewBox="0 0 45 45" enable-background="new 0 0 45 45" xml:space="preserve">
<path fill-rule="evenodd" clip-rule="evenodd" fill="#1D1D1B" d="M39.009,33.949c-0.121-0.444-0.303-0.863-0.524-1.255
	c0.252-0.34,1.133-1.622,0.5-2.255l-0.324-0.342c-0.541-0.541-1.924,0.307-2.255,0.522c-0.396-0.224-0.82-0.405-1.27-0.526
	c-0.072-0.428-0.387-1.926-1.275-1.926h-0.355c-0.764,0-1.201,1.549-1.299,1.938c-0.443,0.123-0.861,0.305-1.252,0.527
	c-0.304-0.225-1.63-1.145-2.276-0.498l-0.341,0.287c-0.564,0.564,0.377,2.055,0.545,2.307c-0.218,0.385-0.393,0.795-0.512,1.23
	c-0.372,0.059-1.963,0.366-1.963,1.281v0.355c0,0.793,1.666,1.232,1.972,1.307c0.12,0.433,0.298,0.84,0.514,1.222
	c-0.174,0.274-1.08,1.758-0.521,2.316l0.324,0.27c0.732,0.733,2.264-0.471,2.264-0.471l-0.071-0.075
	c0.407,0.239,0.846,0.43,1.311,0.561c0.076,0.312,0.517,1.969,1.307,1.969h0.355c1.036,0,1.293-1.934,1.293-1.934l-0.094-0.003
	c0.47-0.12,0.914-0.302,1.326-0.532c0.321,0.213,1.681,1.064,2.223,0.522l0.359-0.36c0.731-0.73-0.481-2.235-0.488-2.244
	c0.223-0.391,0.405-0.809,0.527-1.251c0.403-0.103,1.926-0.539,1.926-1.296V35.24C40.933,34.236,39.121,33.965,39.009,33.949z
	 M33.67,39.037c-1.992,0-3.606-1.615-3.606-3.606c0-1.992,1.614-3.607,3.606-3.607s3.607,1.615,3.607,3.607
	C37.277,37.422,35.662,39.037,33.67,39.037z"/>
<circle fill-rule="evenodd" clip-rule="evenodd" fill="#1D1D1B" cx="33.67" cy="35.431" r="1.05"/>
<circle fill-rule="evenodd" clip-rule="evenodd" fill="#1D1D1B" cx="19.414" cy="17.696" r="3.139"/>
<path fill-rule="evenodd" clip-rule="evenodd" fill="#1D1D1B" d="M30.697,14.564c-0.259-0.938-0.64-1.824-1.111-2.651
	c0.535-0.716,2.396-3.428,1.06-4.765l-0.685-0.723c-1.144-1.144-4.069,0.649-4.768,1.105c-0.837-0.474-1.733-0.854-2.682-1.111
	c-0.152-0.905-0.817-4.071-2.695-4.071h-0.751c-1.612,0-2.538,3.275-2.744,4.094c-0.936,0.261-1.82,0.644-2.646,1.116
	c-0.641-0.477-3.442-2.421-4.809-1.055L8.144,7.112c-1.19,1.192,0.8,4.34,1.15,4.873c-0.456,0.814-0.827,1.682-1.079,2.602
	c-0.787,0.125-4.147,0.774-4.147,2.708v0.751c0,1.673,3.521,2.604,4.167,2.762c0.256,0.913,0.629,1.774,1.086,2.582
	c-0.369,0.578-2.283,3.713-1.103,4.895l0.684,0.568c1.549,1.549,4.785-0.994,4.785-0.994l-0.15-0.16
	c0.857,0.507,1.786,0.908,2.769,1.185c0.16,0.661,1.092,4.161,2.761,4.161h0.751c2.19,0,2.733-4.086,2.733-4.086l-0.2-0.007
	c0.992-0.253,1.932-0.636,2.804-1.126c0.679,0.453,3.55,2.252,4.694,1.107l0.762-0.762c1.546-1.544-1.017-4.725-1.032-4.744
	c0.472-0.825,0.855-1.707,1.115-2.643c0.852-0.216,4.069-1.139,4.069-2.737v-0.751C34.762,15.17,30.932,14.597,30.697,14.564z
	 M19.414,26.855c-5.059,0-9.16-4.101-9.16-9.16s4.102-9.16,9.16-9.16s9.16,4.101,9.16,9.16S24.473,26.855,19.414,26.855z"/>
</svg>
