<?xml version="1.0" encoding="utf-8"?>
<!-- Generator: Adobe Illustrator 16.0.0, SVG Export Plug-In . SVG Version: 6.00 Build 0)  -->
<!DOCTYPE svg PUBLIC "-//W3C//DTD SVG 1.0//EN" "http://www.w3.org/TR/2001/REC-SVG-20010904/DTD/svg10.dtd">
<svg version="1.0" id="Ebene_1" xmlns="http://www.w3.org/2000/svg" xmlns:xlink="http://www.w3.org/1999/xlink" x="0px" y="0px"
	 width="45px" height="45px" viewBox="0 0 45 45" enable-background="new 0 0 45 45" xml:space="preserve">
<g>
	<path fill="#1D1D1B" d="M21.233,12.434c0,0,0.01,0.064,0.027,0.185c0.007,0.124,0.069,0.29,0.054,0.53
		c0.002,0.242-0.019,0.528-0.069,0.863c-0.054,0.336-0.192,0.698-0.397,1.104c-0.23,0.379-0.57,0.802-1.093,1.081l-0.2,0.104
		l-0.104,0.052l-0.026,0.013l-0.013,0.006c-0.039,0.006,0.078-0.008-0.089,0.013l-0.005,0.002l-0.042,0.013l-0.341,0.109
		c-0.223,0.062-0.76,0.078-1.069,0.002c-0.71-0.098-1.346-0.495-1.859-1.011c-0.542-0.511-0.801-1.225-0.998-1.922
		c-0.037-0.544-0.064-0.47-0.031-1.023c0.019-0.207,0.032-0.429,0.075-0.616l0.186-0.52c0.29-0.671,0.753-1.269,1.381-1.616
		c0.607-0.34,1.316-0.481,1.863-0.361c0.188,0.017,0.567,0.146,0.804,0.238c0.23,0.127,0.44,0.241,0.61,0.389
		c0.334,0.303,0.595,0.589,0.766,0.883c0.17,0.294,0.292,0.548,0.378,0.77c0.101,0.213,0.109,0.404,0.148,0.522
		c0.028,0.121,0.043,0.186,0.043,0.186L21.233,12.434z M21.085,12.456c0,0-0.018-0.061-0.051-0.175
		c-0.043-0.11-0.06-0.29-0.167-0.485c-0.09-0.204-0.215-0.44-0.412-0.679c-0.191-0.239-0.452-0.474-0.777-0.66
		c-0.337-0.175-0.708-0.305-1.147-0.273c-0.434-0.009-0.856,0.193-1.216,0.47c-0.371,0.282-0.605,0.726-0.763,1.179
		c-0.157,0.467-0.139,0.96-0.071,1.463c0.118,0.479,0.286,0.959,0.604,1.336c0.312,0.365,0.688,0.7,1.136,0.83
		c0.218,0.078,0.425,0.113,0.655,0.12l0.347-0.019c0.087-0.007,0.202-0.056,0.3-0.08c0.411-0.113,0.734-0.38,0.981-0.656
		c0.236-0.291,0.395-0.603,0.486-0.895c0.097-0.295,0.126-0.558,0.135-0.776c0.029-0.216-0.023-0.401-0.023-0.521
		c-0.012-0.121-0.018-0.186-0.018-0.186L21.085,12.456z"/>
</g>
<g>
	<path fill="#1D1D1B" d="M15.444,12.462c0,0,0.006,0.047,0.019,0.137c0.006,0.092,0.042,0.214,0.04,0.393
		c0.01,0.18,0.004,0.397-0.023,0.652c-0.03,0.258-0.126,0.535-0.268,0.861c-0.164,0.303-0.417,0.653-0.827,0.898l-0.158,0.091
		l-0.083,0.045l-0.021,0.011l-0.011,0.006c-0.038,0.005,0.078-0.008-0.086,0.012l-0.004,0.002l-0.031,0.013l-0.251,0.103
		c-0.163,0.063-0.636,0.088-0.886,0.033c-0.587-0.062-1.119-0.37-1.545-0.786c-0.216-0.208-0.4-0.449-0.53-0.719
		c-0.08-0.129-0.137-0.268-0.176-0.411l-0.065-0.214l-0.031-0.108l-0.015-0.054L10.484,13.4l-0.003-0.014l-0.02-0.13L10.44,12.97
		l-0.009-0.15l0.018-0.267c0.018-0.174,0.035-0.362,0.075-0.516l0.161-0.423c0.246-0.548,0.644-1.024,1.168-1.294
		c0.508-0.264,1.098-0.351,1.528-0.234c0.129,0.027,0.453,0.135,0.636,0.221c0.179,0.108,0.337,0.207,0.464,0.329
		c0.247,0.252,0.438,0.474,0.558,0.703c0.12,0.229,0.202,0.423,0.258,0.591c0.11,0.331,0.145,0.526,0.145,0.526l0,0.002
		L15.444,12.462z M15.295,12.481c0-0.001-0.013-0.044-0.038-0.126c-0.032-0.081-0.044-0.212-0.124-0.355
		c-0.12-0.297-0.396-0.702-0.872-0.976c-0.249-0.127-0.512-0.22-0.833-0.196c-0.317-0.006-0.621,0.143-0.881,0.343
		c-0.268,0.205-0.438,0.528-0.55,0.857c-0.112,0.346-0.101,0.681-0.046,1.077c0.082,0.322,0.204,0.691,0.433,0.959
		c0.226,0.266,0.498,0.511,0.822,0.605c0.159,0.057,0.302,0.082,0.472,0.089c0.188-0.005,0.328-0.014,0.471-0.07
		c0.299-0.08,0.534-0.273,0.715-0.474c0.172-0.211,0.29-0.438,0.357-0.651c0.072-0.216,0.094-0.407,0.101-0.566
		c0.022-0.157-0.017-0.296-0.017-0.383C15.299,12.528,15.295,12.485,15.295,12.481z"/>
</g>
<g>
	<path fill="#1D1D1B" d="M11.583,13.867c0,0,0.048,0.168,0.096,0.486c0.046,0.334,0.091,0.808-0.13,1.438
		c-0.123,0.302-0.329,0.658-0.701,0.93l-0.144,0.101l-0.076,0.05l-0.019,0.012L10.6,16.89c-0.169,0.034-0.049,0.011-0.087,0.019
		l-0.003,0.002l-0.028,0.015l-0.225,0.119c-0.154,0.073-0.619,0.131-0.854,0.092c-0.566-0.023-1.093-0.279-1.522-0.646
		c-0.22-0.181-0.408-0.397-0.55-0.642c-0.085-0.117-0.146-0.243-0.194-0.375l-0.077-0.197l-0.037-0.099l-0.018-0.05l-0.009-0.025
		l-0.034-0.138L6.922,14.7l-0.02-0.135l-0.003-0.254c0.003-0.167,0.006-0.343,0.029-0.496l0.12-0.413
		c0.188-0.538,0.525-1.027,1.011-1.329c0.464-0.295,1.039-0.419,1.448-0.33c0.117,0.019,0.45,0.104,0.624,0.177
		c0.171,0.098,0.33,0.178,0.452,0.292c0.5,0.432,0.704,0.868,0.829,1.169c0.123,0.3,0.169,0.479,0.169,0.479L11.583,13.867z
		 M11.438,13.9c0,0-0.016-0.041-0.044-0.116c-0.036-0.072-0.058-0.193-0.139-0.32c-0.133-0.266-0.412-0.624-0.867-0.85
		c-0.237-0.106-0.484-0.174-0.778-0.133c-0.293,0.015-0.561,0.174-0.783,0.38c-0.231,0.208-0.356,0.523-0.433,0.836
		c-0.076,0.328-0.036,0.635,0.043,0.999c0.098,0.29,0.233,0.625,0.462,0.859c0.223,0.234,0.489,0.443,0.792,0.514
		c0.15,0.048,0.282,0.057,0.438,0.056c0.174-0.018,0.302-0.033,0.429-0.096c0.269-0.095,0.471-0.292,0.62-0.492
		c0.284-0.419,0.344-0.875,0.323-1.162c0.007-0.147-0.038-0.273-0.044-0.354c-0.014-0.083-0.021-0.126-0.021-0.126L11.438,13.9z"/>
</g>
<g>
	<path fill="#1D1D1B" d="M8.12,15.93l0.005,0.008c0,0,0.092,0.135,0.243,0.392c0.071,0.137,0.164,0.305,0.248,0.512
		c0.091,0.208,0.143,0.459,0.179,0.775c0.022,0.309-0.023,0.712-0.282,1.103l-0.104,0.145l-0.057,0.073l-0.007,0.009l-0.003,0.005
		c0.071-0.041-0.102,0.06-0.084,0.05l-0.01,0.011l-0.02,0.021L8.064,19.21c-0.17,0.129-0.605,0.31-0.82,0.322
		c-0.274,0.057-0.53,0.044-0.806,0.024c-0.248-0.052-0.519-0.12-0.743-0.234c-0.246-0.098-0.459-0.243-0.652-0.411
		c-0.106-0.076-0.19-0.171-0.272-0.268l-0.124-0.145l-0.061-0.073l-0.03-0.037l-0.015-0.019l-0.069-0.106l-0.119-0.22l-0.059-0.11
		L4.216,17.73c-0.053-0.144-0.102-0.288-0.142-0.432c-0.021-0.137-0.029-0.267-0.04-0.398c-0.039-0.523,0.071-1.077,0.392-1.547
		C4.721,14.9,5.262,14.55,5.66,14.531c0.127-0.014,0.488-0.042,0.654,0.001c0.181,0.049,0.35,0.083,0.484,0.168
		c0.275,0.149,0.49,0.289,0.649,0.449c0.163,0.153,0.283,0.295,0.384,0.408C8.022,15.791,8.118,15.928,8.12,15.93z M7.997,16.017
		c0-0.001-0.097-0.131-0.291-0.333c-0.106-0.093-0.229-0.213-0.4-0.308c-0.163-0.104-0.368-0.197-0.599-0.238
		c-0.236-0.051-0.478-0.041-0.721,0.062c-0.259,0.092-0.435,0.317-0.545,0.574c-0.115,0.261-0.112,0.576-0.054,0.873
		c0.049,0.308,0.196,0.565,0.378,0.859c0.178,0.228,0.392,0.49,0.658,0.641c0.256,0.166,0.549,0.28,0.834,0.279
		c0.15,0.019,0.263-0.022,0.398-0.05c0.151-0.068,0.259-0.114,0.347-0.208c0.199-0.167,0.306-0.406,0.348-0.634
		c0.085-0.463-0.035-0.873-0.143-1.12C8.09,16.159,7.999,16.019,7.997,16.017z"/>
</g>
<g>
	<path fill="#1D1D1B" d="M5.695,18.218c0,0,0.112,0.092,0.298,0.29c0.195,0.212,0.461,0.513,0.623,1.076
		c0.062,0.277,0.096,0.641-0.038,1.029l-0.053,0.147l-0.03,0.075l-0.004,0.01L6.49,20.85c0.012-0.011-0.114,0.116-0.061,0.063
		l-0.005,0.012L6.412,20.95L6.32,21.147c-0.077,0.137-0.396,0.422-0.585,0.513c-0.426,0.275-0.942,0.365-1.447,0.316
		c-0.255-0.018-0.505-0.08-0.736-0.188c-0.122-0.043-0.233-0.105-0.336-0.178l-0.158-0.106L2.98,21.45l-0.039-0.028l-0.02-0.014
		l-0.105-0.096l-0.15-0.166L2.588,21.06l-0.135-0.193C2.37,20.738,2.28,20.6,2.223,20.473l-0.114-0.374
		c-0.127-0.504-0.099-1.046,0.126-1.511c0.217-0.449,0.603-0.817,0.946-0.933l0.257-0.086c0.104-0.032,0.206-0.056,0.299-0.075
		c0.172-0.006,0.327-0.021,0.469,0.006c0.568,0.087,0.911,0.304,1.141,0.458c0.228,0.153,0.344,0.255,0.344,0.255L5.695,18.218z
		 M5.593,18.328c0,0-0.029-0.021-0.085-0.059c-0.059-0.033-0.13-0.105-0.246-0.154c-0.216-0.12-0.576-0.231-0.993-0.173
		c-0.213,0.038-0.411,0.106-0.594,0.269c-0.198,0.146-0.305,0.376-0.368,0.618c-0.062,0.248-0.009,0.521,0.083,0.77
		c0.101,0.26,0.265,0.446,0.494,0.663c0.198,0.148,0.449,0.316,0.713,0.369c0.261,0.056,0.54,0.075,0.78-0.016
		c0.126-0.035,0.216-0.091,0.326-0.16c0.113-0.095,0.196-0.16,0.254-0.261c0.145-0.186,0.193-0.413,0.208-0.618
		c0.007-0.418-0.161-0.763-0.308-0.949c-0.062-0.104-0.153-0.171-0.195-0.224c-0.048-0.051-0.074-0.078-0.074-0.078L5.593,18.328z"
		/>
</g>
<g>
	<path fill="#1D1D1B" d="M6.054,22.138c-0.385,1.02-0.412,2.064-0.21,3.071c0.199,1.007,0.625,1.963,1.12,2.882
		c1.024,1.823,2.167,3.657,3.422,5.343c0.626,0.848,1.286,1.662,1.98,2.43c0.681,0.775,1.389,1.518,2.15,2.15
		c0.754,0.64,1.571,1.165,2.375,1.503c0.811,0.335,1.599,0.426,2.324,0.233l0.22-0.037c0.047-0.009,0.281-0.053,0.427-0.107
		c0.167-0.053,0.328-0.124,0.486-0.199c0.312-0.159,0.588-0.361,0.831-0.597c0.246-0.233,0.45-0.513,0.607-0.834
		c0.173-0.31,0.281-0.678,0.366-1.058l0.035-0.143c-0.003,0.05,0.014-0.09,0.02-0.127c0.013-0.109,0.043-0.27,0.039-0.326
		c0.013-0.145,0.012-0.324,0.008-0.51c-0.021-0.36-0.105-0.703-0.222-1.032c-0.045-0.154-0.155-0.35-0.199-0.449
		c-0.126-0.202-0.264-0.441-0.372-0.577c-0.203-0.301-0.536-0.708-0.831-1.078c-0.609-0.77-1.307-1.604-1.779-2.672
		c-0.287-0.705-0.347-1.311-0.32-1.936c0.03-0.61,0.164-1.18,0.339-1.702c0.184-0.534,0.36-0.948,0.579-1.45
		c0.209-0.471,0.455-0.936,0.657-1.343c0.207-0.415,0.321-0.728,0.366-1.137c0.037-0.406,0.039-0.87,0.017-1.34l0.626,0.547
		c-0.131,0.009-0.435-0.107-0.548-0.339c-0.057-0.097-0.078-0.218-0.08-0.251v-0.007v-0.029l-0.002-0.063l-0.011-0.134
		c-0.008-0.091-0.026-0.185-0.041-0.278c-0.039-0.186-0.086-0.375-0.152-0.558c-0.13-0.367-0.306-0.728-0.542-1.054
		c-0.237-0.324-0.511-0.633-0.832-0.902c-0.31-0.285-0.669-0.517-1.044-0.737l0.055-0.14c0.406,0.17,0.807,0.356,1.171,0.608
		c0.375,0.235,0.7,0.542,0.999,0.866c0.297,0.329,0.537,0.707,0.73,1.104c0.098,0.199,0.176,0.407,0.246,0.618
		c0.03,0.107,0.063,0.213,0.086,0.322l0.034,0.164l0.014,0.083l0.006,0.042c0.021,0.05-0.025-0.074-0.085-0.04l0.09,0.08
		c0.065,0.488,0.119,0.981,0.098,1.482c-0.017,0.501-0.159,1-0.358,1.451c-0.405,0.896-0.775,1.795-1.046,2.73
		c-0.265,0.918-0.334,1.936,0.053,2.797c0.436,0.859,1.058,1.616,1.694,2.357c0.626,0.756,1.308,1.481,1.698,2.432
		c0.389,0.929,0.448,1.996,0.234,2.963c-0.103,0.488-0.239,0.979-0.475,1.425c-0.217,0.454-0.512,0.876-0.873,1.231
		c-0.713,0.727-1.664,1.183-2.68,1.318l0.023-0.004c-1.088,0.277-2.245,0.097-3.248-0.34c-1.014-0.434-1.904-1.09-2.715-1.811
		c-1.616-1.46-2.939-3.197-4.131-4.996c-1.18-1.812-2.264-3.686-3.165-5.656c-0.434-0.99-0.801-2.027-0.924-3.114
		c-0.144-1.078,0.032-2.218,0.524-3.186L6.054,22.138z"/>
</g>
<g>
	<path fill="#1D1D1B" d="M24.117,6.453c0,0,0.003,0.065,0.008,0.187c0.017,0.118-0.01,0.31,0.049,0.519
		c0.023,0.104,0.05,0.221,0.078,0.347c0.039,0.125,0.125,0.246,0.19,0.379c0.155,0.253,0.366,0.521,0.667,0.698
		c0.146,0.088,0.314,0.148,0.471,0.205c0.18,0.01,0.336,0.063,0.508,0.017l0.121-0.017l0.059-0.007l0.015-0.002l0.007-0.001l0.004,0
		c-0.035-0.001,0.084,0.002-0.078-0.002l0.043-0.012l0.344-0.097c0.15-0.022,0.143-0.099,0.191-0.138
		c0.037-0.051,0.059-0.061,0.12-0.133l0.151-0.16l0.119-0.199c0.08-0.12,0.15-0.259,0.201-0.398c0.041-0.15,0.099-0.283,0.131-0.434
		c0.027-0.07,0.045-0.144,0.043-0.224l0.012-0.115l0.007-0.057l0.004-0.028l0.003-0.014l0.002-0.007V6.752
		c-0.002,0.052,0.007-0.12-0.004,0.115l0.02-0.389l0.007-0.188c-0.008-0.023-0.015-0.046-0.019-0.07
		c-0.004-0.078-0.02-0.214-0.04-0.378c-0.076-0.274-0.147-0.597-0.333-0.825c-0.18-0.226-0.406-0.478-0.765-0.54
		c-0.269-0.067-0.313-0.035-0.493-0.065c-0.156,0.031-0.34,0.06-0.496,0.125c-0.328,0.123-0.58,0.353-0.777,0.576
		c-0.086,0.12-0.194,0.223-0.252,0.341c-0.051,0.122-0.098,0.233-0.141,0.334c-0.094,0.2-0.099,0.379-0.136,0.492
		c-0.026,0.117-0.04,0.179-0.04,0.179V6.453z M23.967,6.447V6.446c0,0,0.012-0.065,0.031-0.188c0.031-0.12,0.027-0.31,0.114-0.527
		c0.069-0.224,0.171-0.487,0.35-0.763c0.173-0.275,0.419-0.557,0.745-0.797c0.162-0.12,0.357-0.207,0.555-0.302
		c0.215-0.05,0.448-0.15,0.667-0.136c0.464-0.059,0.968,0.105,1.397,0.369c0.445,0.267,0.76,0.719,0.988,1.196
		c0.231,0.482,0.279,1.071,0.267,1.569c-0.083,0.561-0.227,1.078-0.538,1.525c-0.309,0.429-0.693,0.823-1.178,1.009
		c-0.504,0.195-0.962,0.266-1.443,0.133c-0.463-0.092-0.841-0.355-1.129-0.633c-0.281-0.293-0.476-0.612-0.598-0.914
		c-0.127-0.301-0.184-0.582-0.211-0.818c-0.047-0.234-0.01-0.408-0.02-0.531c0.002-0.122,0.002-0.187,0.002-0.187V6.447z"/>
</g>
<g>
	<path fill="#1D1D1B" d="M29.881,5.926c0,0,0.002,0.048,0.004,0.138c0.014,0.086-0.016,0.23,0.036,0.382
		c0.036,0.154,0.091,0.337,0.225,0.519C30.27,7.143,30.43,7.33,30.66,7.434c0.109,0.053,0.234,0.082,0.346,0.109
		c0.129-0.011,0.236,0.01,0.35-0.042l0.078-0.026l0.037-0.012l0.01-0.003l0.004-0.001l0.002,0c-0.036-0.001,0.085,0.001-0.08-0.003
		l0.031-0.012l0.254-0.095c0.177-0.083,0.055-0.153,0.133-0.223c0.1-0.147,0.135-0.353,0.182-0.503
		c0.022-0.167,0.047-0.337,0.07-0.508c-0.008,0.094,0.018-0.436,0.003-0.327c0.011-0.011,0.019-0.084,0.022-0.185
		c-0.02-0.155-0.014-0.365-0.09-0.525c-0.072-0.159-0.176-0.369-0.418-0.445c-0.113-0.034-0.223-0.066-0.328-0.098
		c-0.107,0.008-0.241,0.015-0.357,0.05c-0.244,0.063-0.434,0.223-0.587,0.376c-0.163,0.153-0.25,0.33-0.313,0.479
		c-0.076,0.145-0.07,0.279-0.1,0.361c-0.018,0.085-0.027,0.131-0.027,0.131V5.926z M29.731,5.919c0,0,0.008-0.049,0.022-0.14
		c0.023-0.089,0.021-0.23,0.084-0.393c0.09-0.332,0.328-0.802,0.815-1.167c0.237-0.169,0.577-0.321,0.917-0.331
		c0.348-0.045,0.728,0.076,1.052,0.275c0.336,0.2,0.572,0.539,0.745,0.896c0.174,0.366,0.212,0.797,0.201,1.187
		c-0.061,0.401-0.172,0.803-0.406,1.133c-0.232,0.322-0.521,0.616-0.887,0.756c-0.389,0.146-0.717,0.197-1.086,0.097
		c-0.348-0.071-0.631-0.27-0.846-0.479c-0.419-0.445-0.57-0.945-0.602-1.296c-0.034-0.176-0.006-0.302-0.013-0.394
		c0.001-0.09,0.001-0.138,0.001-0.138L29.731,5.919z"/>
</g>
<g>
	<path fill="#1D1D1B" d="M33.863,6.967c0,0-0.002,0.045-0.006,0.128c0.006,0.081-0.031,0.212,0.004,0.356
		c0.023,0.146,0.06,0.319,0.172,0.496c0.102,0.173,0.236,0.358,0.443,0.465c0.097,0.057,0.211,0.086,0.31,0.117
		C34.905,8.524,35,8.547,35.104,8.5l0.07-0.023l0.033-0.01l0.008-0.002l0.004-0.001l0.002-0.001
		c-0.167-0.017-0.045-0.005-0.08-0.009l0.029-0.01l0.242-0.077c0.16-0.076,0.025-0.141,0.1-0.207
		c0.08-0.131,0.111-0.316,0.153-0.448c0.025-0.154,0.046-0.298,0.083-0.445c-0.016,0.106,0.05-0.406,0.028-0.292
		c0.012-0.001,0.03-0.06,0.045-0.149c0.003-0.134,0.04-0.32,0.003-0.466c-0.035-0.147-0.087-0.353-0.303-0.447
		c-0.194-0.077-0.163-0.07-0.279-0.124c-0.1,0.002-0.223-0.01-0.331,0.017c-0.231,0.036-0.417,0.172-0.569,0.302
		c-0.164,0.129-0.256,0.288-0.326,0.42c-0.08,0.129-0.086,0.253-0.117,0.328c-0.023,0.078-0.036,0.119-0.036,0.119L33.863,6.967z
		 M33.715,6.949c0,0,0.011-0.044,0.031-0.128c0.027-0.082,0.035-0.212,0.104-0.359c0.106-0.301,0.353-0.724,0.827-1.038
		c0.229-0.146,0.557-0.267,0.875-0.256c0.326-0.02,0.674,0.122,0.959,0.333c0.299,0.212,0.488,0.55,0.619,0.896
		c0.133,0.354,0.131,0.757,0.095,1.119c-0.087,0.367-0.215,0.734-0.455,1.026c-0.234,0.286-0.521,0.544-0.87,0.653
		c-0.161,0.066-0.369,0.094-0.527,0.099c-0.148-0.002-0.334-0.015-0.491-0.078c-0.319-0.091-0.568-0.3-0.749-0.513
		c-0.352-0.45-0.447-0.926-0.449-1.255c-0.018-0.166,0.018-0.28,0.018-0.366C33.709,7,33.714,6.956,33.714,6.956L33.715,6.949z"/>
</g>
<g>
	<path fill="#1D1D1B" d="M37.5,8.748c0,0-0.017,0.039-0.047,0.111c-0.022,0.073-0.09,0.176-0.113,0.314
		c-0.023,0.137-0.059,0.298-0.019,0.492c0.024,0.185,0.071,0.397,0.217,0.558c0.05,0.09,0.156,0.139,0.22,0.201
		c0.104,0.024,0.173,0.07,0.268,0.045l0.059-0.008l0.025-0.004l0.006,0c0.019,0.008-0.159-0.073-0.082-0.039h0.004h0.008l0.029,0
		l0.238-0.003c0.116-0.066-0.027-0.134,0.066-0.192c0.156-0.233,0.283-0.528,0.444-0.793l0.135-0.27
		c0.012-0.013,0.056-0.046,0.098-0.124c0.065-0.122,0.159-0.255,0.207-0.366c0.04-0.113,0.138-0.278-0.028-0.431
		C39.16,8.174,39.15,8.163,39.14,8.143c-0.019-0.02-0.029-0.062-0.074-0.082c-0.09-0.022-0.191-0.076-0.297-0.069
		c-0.218-0.034-0.422,0.048-0.591,0.126c-0.186,0.069-0.306,0.191-0.411,0.284c-0.105,0.095-0.152,0.199-0.202,0.256
		c-0.044,0.062-0.068,0.095-0.068,0.095L37.5,8.748z M37.367,8.677c0.001-0.002,0.083-0.15,0.262-0.389
		c0.1-0.113,0.215-0.256,0.386-0.382c0.161-0.134,0.37-0.263,0.622-0.341c0.239-0.089,0.566-0.114,0.859-0.023
		c0.299,0.068,0.572,0.319,0.736,0.609c0.176,0.297,0.218,0.656,0.195,1.001c-0.011,0.354-0.15,0.697-0.294,1.004
		c-0.19,0.294-0.403,0.584-0.694,0.782c-0.277,0.206-0.602,0.36-0.942,0.384c-0.16,0.034-0.356-0.009-0.509-0.039
		c-0.129-0.045-0.295-0.108-0.416-0.216c-0.255-0.188-0.4-0.462-0.467-0.717c-0.071-0.255-0.078-0.501-0.052-0.709
		c0.015-0.211,0.075-0.39,0.12-0.536c0.109-0.277,0.189-0.42,0.189-0.42L37.367,8.677z"/>
</g>
<g>
	<path fill="#1D1D1B" d="M40.124,10.816c0,0-0.022,0.03-0.063,0.086c-0.033,0.059-0.123,0.133-0.162,0.25
		c-0.049,0.111-0.102,0.248-0.097,0.422c-0.001,0.166,0.016,0.353,0.124,0.512c0.103,0.155,0.248,0.275,0.426,0.286l0.059,0.006
		l0.027,0.002h0.003l0.001,0c0.016,0.011-0.119-0.1-0.061-0.053l0.013,0.003l0.026,0.006l0.213,0.047
		c0.142,0,0.053-0.124,0.128-0.147c0.095-0.077,0.171-0.204,0.228-0.273c0.025-0.054,0.053-0.086,0.08-0.127
		c0.014-0.016,0.031-0.029,0.043-0.051l0.021-0.025l0.012-0.011l0.007-0.005l0.003-0.002l0.002-0.001l0.002,0
		c-0.035,0.039,0.078-0.088-0.077,0.087l0.147-0.168l0.07-0.08l-0.008,0.01c-0.007,0.035,0.03,0.022,0.084-0.012
		c0.062-0.049,0.187-0.115,0.26-0.207c0.064-0.09,0.171-0.246,0.072-0.424l-0.053-0.089l-0.011-0.037
		c-0.009-0.027-0.019-0.062-0.034-0.099c-0.065-0.049-0.137-0.123-0.222-0.161c-0.17-0.099-0.36-0.099-0.526-0.09
		c-0.174,0.003-0.312,0.065-0.424,0.12c-0.118,0.047-0.18,0.131-0.236,0.166c-0.053,0.042-0.081,0.064-0.081,0.064L40.124,10.816z
		 M40.012,10.717c0,0,0.029-0.026,0.083-0.075c0.058-0.043,0.126-0.131,0.243-0.2c0.219-0.159,0.592-0.333,1.071-0.327
		c0.229,0.004,0.516,0.075,0.737,0.23c0.239,0.134,0.422,0.397,0.531,0.678c0.111,0.29,0.094,0.618,0.023,0.924
		c-0.07,0.309-0.275,0.609-0.455,0.823c-0.254,0.235-0.508,0.414-0.82,0.505c-0.301,0.086-0.624,0.126-0.92,0.038
		c-0.145-0.027-0.304-0.11-0.42-0.179c-0.1-0.071-0.229-0.165-0.311-0.283c-0.186-0.212-0.264-0.476-0.297-0.711
		c-0.039-0.482,0.117-0.861,0.273-1.093c0.067-0.125,0.146-0.186,0.187-0.245c0.045-0.054,0.069-0.083,0.069-0.083L40.012,10.717z"
		/>
</g>
<g>
	<path fill="#1D1D1B" d="M38.938,12.83c0.451,0.361,0.91,0.758,1.282,1.251c0.397,0.468,0.657,1.04,0.88,1.621
		c0.408,1.187,0.434,2.479,0.258,3.695c-0.152,1.231-0.545,2.386-0.944,3.509c-0.396,1.114-0.829,2.232-1.306,3.325
		c-0.945,2.198-2.09,4.34-3.684,6.283c-0.789,0.974-1.721,1.893-2.896,2.613c-0.588,0.357-1.246,0.66-1.968,0.841
		c-0.72,0.183-1.503,0.229-2.257,0.117l0.225,0.016c-0.443-0.006-0.695-0.046-1.023-0.109c-0.311-0.058-0.609-0.157-0.905-0.265
		c-0.589-0.225-1.147-0.552-1.637-0.961c-0.495-0.404-0.913-0.897-1.234-1.427c-0.339-0.524-0.562-1.09-0.735-1.649l-0.067-0.211
		c-0.048-0.168-0.037-0.149-0.058-0.233c-0.027-0.134-0.054-0.206-0.081-0.394c-0.061-0.339-0.087-0.648-0.097-0.952
		c-0.004-0.618,0.084-1.246,0.273-1.845c0.094-0.315,0.203-0.559,0.367-0.9c0.125-0.221,0.219-0.412,0.393-0.676
		c0.323-0.523,0.604-0.884,0.899-1.296l0.81-1.14c0.242-0.365,0.478-0.745,0.635-1.106c0.09-0.213,0.174-0.613,0.146-0.974
		c-0.016-0.378-0.103-0.781-0.239-1.192c-0.134-0.4-0.338-0.89-0.513-1.29c-0.189-0.429-0.402-0.835-0.635-1.304
		c-0.239-0.455-0.452-1.072-0.479-1.637c-0.039-0.563,0.007-1.08,0.063-1.584v0.04c0.014-0.333,0.053-0.602,0.111-0.892
		c0.055-0.285,0.133-0.563,0.223-0.837c0.183-0.546,0.441-1.068,0.77-1.539c0.156-0.241,0.355-0.451,0.543-0.664
		c0.217-0.188,0.418-0.389,0.66-0.537c0.227-0.17,0.479-0.296,0.727-0.419c0.246-0.127,0.518-0.199,0.77-0.298l0.055,0.14
		c-0.237,0.119-0.49,0.208-0.715,0.349c-0.227,0.138-0.454,0.275-0.652,0.452c-0.414,0.331-0.767,0.737-1.037,1.192
		c-0.555,0.902-0.832,1.978-0.836,3.029v0.007c-0.015,0.486-0.015,0.975,0.055,1.45c0.068,0.477,0.247,0.92,0.488,1.343
		c0.492,0.842,0.964,1.715,1.338,2.629c0.367,0.913,0.568,1.958,0.246,2.948c-0.356,0.935-0.908,1.767-1.465,2.571
		c-0.539,0.802-1.141,1.613-1.4,2.524c-0.269,0.919-0.225,1.9,0.081,2.816c0.146,0.455,0.327,0.904,0.593,1.3
		c0.249,0.405,0.564,0.769,0.936,1.063c0.725,0.605,1.678,0.947,2.605,0.988l0.02,0.001l0.006,0.001
		c1.123,0.186,2.279-0.14,3.256-0.731c0.983-0.593,1.839-1.394,2.595-2.27c1.514-1.762,2.7-3.79,3.747-5.868
		c0.521-1.043,1.002-2.105,1.448-3.183c0.438-1.078,0.853-2.172,1.086-3.309c0.244-1.13,0.299-2.314-0.001-3.431
		c-0.166-0.549-0.379-1.092-0.709-1.567c-0.302-0.49-0.7-0.909-1.121-1.319L38.938,12.83z"/>
</g>
</svg>
