<?xml version="1.0" encoding="utf-8"?>
<!-- Generator: Adobe Illustrator 16.0.0, SVG Export Plug-In . SVG Version: 6.00 Build 0)  -->
<!DOCTYPE svg PUBLIC "-//W3C//DTD SVG 1.1//EN" "http://www.w3.org/Graphics/SVG/1.1/DTD/svg11.dtd">
<svg version="1.1" id="Ebene_1" xmlns="http://www.w3.org/2000/svg" xmlns:xlink="http://www.w3.org/1999/xlink" x="0px" y="0px"
	 width="45px" height="45px" viewBox="0 0 45 45" enable-background="new 0 0 45 45" xml:space="preserve">
<g>
	<g>
		<path fill="#1D1D1B" d="M9.692,3.963c0,0,0.23-0.091,0.68-0.245c0.448-0.144,1.105-0.369,1.969-0.555
			c0.86-0.192,1.917-0.386,3.147-0.529c0.614-0.085,1.274-0.098,1.973-0.153c0.698-0.037,1.433,0.033,2.203,0.048
			c0.768,0.068,1.566,0.177,2.396,0.284c0.812,0.197,1.676,0.336,2.532,0.605c1.702,0.548,3.512,1.263,5.119,2.441
			c0.406,0.288,0.816,0.578,1.229,0.87c0.39,0.32,0.744,0.687,1.122,1.034c0.367,0.355,0.755,0.701,1.112,1.075
			c0.314,0.409,0.631,0.82,0.948,1.233c0.311,0.417,0.649,0.822,0.937,1.257l0.771,1.363l0.771,1.373
			c0.259,0.558,0.412,0.94,0.62,1.42c0.777,2.045,1.205,4.16,1.235,6.285c0.049,2.124-0.409,4.191-1.075,6.054
			c-0.662,1.876-1.637,3.525-2.666,4.972c-1.034,1.447-2.145,2.694-3.228,3.771c-1.073,1.09-2.162,1.969-3.149,2.704
			c-0.986,0.738-1.876,1.333-2.619,1.804c-0.738,0.477-1.359,0.787-1.773,1.01c-0.421,0.211-0.646,0.322-0.646,0.322l-0.076-0.129
			c0,0,0.857-0.499,2.257-1.529c1.392-1.033,3.337-2.595,5.354-4.783c1.998-2.183,4.106-5.039,5.298-8.562
			c0.588-1.754,0.938-3.662,0.883-5.605c-0.044-1.941-0.465-3.898-1.177-5.73c-0.195-0.454-0.38-0.926-0.582-1.365l-0.713-1.295
			l-0.711-1.291c-0.266-0.411-0.579-0.787-0.865-1.18c-0.291-0.389-0.582-0.776-0.871-1.161c-0.324-0.355-0.678-0.681-1.012-1.02
			c-0.343-0.33-0.663-0.682-1.019-0.988c-0.377-0.28-0.752-0.558-1.124-0.833c-1.476-1.121-3.128-1.868-4.715-2.46
			c-0.797-0.291-1.612-0.458-2.379-0.682c-0.788-0.136-1.55-0.276-2.285-0.375c-0.741-0.05-1.449-0.138-2.126-0.151
			c-0.677,0.005-1.32-0.031-1.924,0.009c-1.207,0.051-2.255,0.164-3.113,0.291c-1.719,0.257-2.668,0.544-2.668,0.544L9.692,3.963z"
			/>
	</g>
	<g>
		<path fill="#1D1D1B" d="M8.885,16.046c0,0-0.086-0.052-0.231-0.162c-0.146-0.11-0.361-0.283-0.576-0.555
			c-0.229-0.266-0.463-0.631-0.651-1.108c-0.21-0.474-0.304-1.069-0.308-1.74c0.001-0.672,0.202-1.391,0.499-2.09
			C7.933,9.698,8.41,9.074,8.928,8.498C9.182,8.201,9.488,7.96,9.787,7.718l0.228-0.181l0.286-0.196l0.421-0.288
			c0.863-0.512,1.699-0.74,2.589-0.886c0.892-0.141,1.794,0.006,2.607,0.216c0.81,0.261,1.542,0.636,2.149,1.133
			c0.302,0.253,0.577,0.521,0.829,0.822c0.118,0.153,0.232,0.324,0.338,0.507c0.105,0.15,0.211,0.298,0.314,0.444
			c0.196,0.312,0.389,0.67,0.435,1.142c0.057,0.476-0.15,0.961-0.35,1.222c-0.195,0.267-0.373,0.457-0.39,0.494
			c-0.008,0.017,0-0.053-0.018-0.082c-0.012-0.017-0.025-0.022,0.026,0.071c0.141,0.351,0.442,0.813,0.375,1.296
			c-0.093,0.401-0.218,0.559-0.27,0.726c-0.06,0.152-0.092,0.234-0.092,0.234l-0.199-0.014c0,0,0.008-0.087,0.022-0.25
			c0.008-0.16,0.067-0.409,0.069-0.678c0.005-0.263-0.227-0.543-0.485-0.875c-0.143-0.149-0.271-0.471-0.138-0.73
			c0.111-0.248,0.29-0.423,0.42-0.631c0.31-0.4,0.214-0.95-0.137-1.407C18.493,9.334,18,8.974,17.439,8.681
			c-1.114-0.581-2.497-0.861-3.811-0.618c-0.656,0.118-1.279,0.375-1.85,0.667c-0.589,0.345-1.104,0.711-1.578,1.142
			c-0.945,0.836-1.588,1.873-1.777,2.858c-0.198,0.985,0.002,1.837,0.21,2.379c0.211,0.55,0.413,0.818,0.413,0.818L8.885,16.046z"/>
	</g>
	<g>
		<path fill="#1D1D1B" d="M29.136,28.621c0,0,0.067,0.108,0.147,0.334c0.07,0.225,0.182,0.578,0.139,1.051
			c-0.035,0.471-0.23,1.051-0.629,1.6c-0.19,0.291-0.448,0.527-0.723,0.795c-0.291,0.215-0.61,0.471-0.962,0.639
			c-0.695,0.4-1.492,0.695-2.34,0.906c-0.426,0.129-0.86,0.199-1.308,0.287c-0.246,0.042-0.399,0.094-0.731,0.112
			c-0.219,0.018-0.44,0.034-0.664,0.053c-1.136,0.015-2.173-0.132-3.205-0.551c-1.019-0.403-1.958-0.992-2.775-1.681
			c-0.803-0.709-1.488-1.506-2.082-2.326c-0.602-0.816-1.057-1.695-1.471-2.539c-0.42-0.844-0.716-1.701-0.974-2.514
			c-0.262-0.811-0.444-1.595-0.574-2.323c-0.281-1.454-0.281-2.701-0.263-3.559c0.005-0.431,0.082-0.772,0.119-0.999
			c0.056-0.226,0.085-0.346,0.085-0.346l0.148,0.013c0.001,0-0.054,0.466,0.049,1.289c0.091,0.82,0.315,1.986,0.726,3.346
			c0.414,1.357,1.003,2.914,1.846,4.473c0.843,1.552,1.938,3.128,3.367,4.349c0.706,0.613,1.499,1.131,2.348,1.483
			c0.845,0.356,1.751,0.542,2.616,0.565c0.45-0.008,0.877-0.019,1.299-0.08c0.423-0.049,0.84-0.082,1.235-0.171
			c0.398-0.073,0.787-0.142,1.149-0.26c0.37-0.091,0.714-0.218,1.037-0.358c0.646-0.271,1.201-0.619,1.58-1.039
			c0.388-0.406,0.615-0.857,0.7-1.252s0.066-0.717,0.039-0.93c-0.032-0.215-0.072-0.32-0.072-0.32L29.136,28.621z"/>
	</g>
	<g>
		<path fill="#1D1D1B" d="M22.122,30.352c0.001,0-0.448-1.148-0.526-2.93c-0.033-0.446-0.024-0.93,0.012-1.443
			c0.021-0.518,0.097-1.061,0.218-1.625c0.109-0.569,0.274-1.158,0.541-1.748c0.263-0.587,0.577-1.215,1.11-1.763
			c0.498-0.545,1.267-1.075,2.073-1.224c0.717-0.16,1.555-0.114,2.213,0.092c1.354,0.468,2.164,1.354,2.701,2.108
			c0.279,0.376,0.465,0.762,0.631,1.089c0.166,0.329,0.265,0.639,0.353,0.885c0.158,0.504,0.203,0.803,0.202,0.803l-0.133,0.068
			c0,0-0.128-0.248-0.397-0.66c-0.27-0.41-0.679-0.986-1.269-1.585c-0.588-0.586-1.381-1.225-2.388-1.468
			c-0.501-0.115-1.037-0.119-1.558,0.029c-0.519,0.128-0.974,0.445-1.332,0.856c-0.722,0.824-1.15,1.89-1.451,2.892
			c-0.299,1.01-0.478,1.981-0.598,2.818c-0.236,1.676-0.252,2.807-0.252,2.807L22.122,30.352z"/>
	</g>
	<g>
		<path fill="#1D1D1B" d="M18.244,22.672c0,0,0.759-0.474,1.765-1.036c0.243-0.142,0.507-0.296,0.786-0.459
			c0.258-0.163,0.53-0.334,0.812-0.511c0.272-0.168,0.513-0.387,0.762-0.562c0.241-0.188,0.462-0.391,0.632-0.608l0.147-0.147
			l0.01-0.009l0.004-0.004l0.003-0.002c-0.036,0.052,0.084-0.121-0.08,0.117l0.021-0.031l0.041-0.062l0.082-0.124l0.326-0.492
			c0.132-0.183,0.165-0.288,0.22-0.395c0.056-0.11,0.117-0.219,0.183-0.329c0.107-0.251,0.224-0.562,0.349-0.83
			c0.075-0.29,0.181-0.57,0.274-0.838c0.059-0.271,0.148-0.527,0.216-0.76c0.048-0.231,0.119-0.443,0.165-0.619
			c0.091-0.352,0.151-0.567,0.151-0.567l0.146-0.036c-0.001,0,0.049,0.197,0.112,0.542c0.057,0.346,0.119,0.844,0.128,1.448
			c-0.017,0.301-0.036,0.628-0.056,0.973c-0.07,0.34-0.111,0.705-0.217,1.071c-0.145,0.352-0.228,0.767-0.439,1.094
			c-0.209,0.316-0.375,0.711-0.672,1.004c-0.555,0.607-1.255,1.048-1.938,1.367c-0.687,0.319-1.361,0.523-1.945,0.665
			c-1.172,0.271-1.978,0.291-1.978,0.291L18.244,22.672z"/>
	</g>
	<g>
		<path fill="#1D1D1B" d="M33.355,22.706c0,0,0.172,0.059,0.421,0.236c0.238,0.179,0.568,0.48,0.815,0.94
			c0.122,0.228,0.259,0.491,0.319,0.786c0.084,0.293,0.146,0.615,0.138,0.95c0,0.332-0.013,0.685-0.1,1.023
			c-0.105,0.325-0.184,0.683-0.341,0.985c-0.319,0.615-0.716,1.166-1.186,1.557c-0.446,0.419-0.94,0.689-1.379,0.877
			c-0.429,0.203-0.846,0.26-1.125,0.312c-0.286,0.04-0.458,0.042-0.458,0.041l-0.088-0.121c0,0,0.106-0.091,0.293-0.249
			c0.182-0.162,0.463-0.371,0.76-0.662c0.149-0.146,0.311-0.304,0.48-0.471c0.175-0.162,0.318-0.371,0.488-0.565
			c0.329-0.397,0.633-0.864,0.859-1.36c0.142-0.237,0.207-0.505,0.309-0.754c0.066-0.258,0.14-0.516,0.166-0.77
			c0.033-0.254,0.049-0.5,0.034-0.734c0-0.234-0.043-0.455-0.074-0.656c-0.156-0.812-0.458-1.281-0.458-1.282L33.355,22.706z"/>
	</g>
	<g>
		<path fill="#1D1D1B" d="M20.386,18.107c0.313-0.558,0.559-1.046,0.789-1.486c0.097-0.238,0.212-0.436,0.296-0.651
			c0.069-0.222,0.178-0.404,0.236-0.609c0.036-0.098,0.071-0.195,0.089-0.298c0.032-0.096,0.075-0.187,0.104-0.283l0.072-0.291
			c0.036-0.093,0.023-0.199,0.061-0.293c0.116-0.385,0.127-0.801,0.212-1.245l0.056,0.266c-0.031-0.128-0.04-0.2-0.055-0.295
			c-0.014-0.089-0.025-0.177-0.026-0.268c-0.005-0.179-0.003-0.358,0.007-0.539c0.012-0.36,0.078-0.735,0.227-1.108
			c0.134-0.373,0.388-0.756,0.749-1.001c0.368-0.247,0.796-0.267,1.118-0.154l0.027,0.147c-0.271,0.06-0.52,0.191-0.686,0.4
			c-0.168,0.207-0.248,0.474-0.29,0.744c-0.068,0.547,0.027,1.127,0.19,1.657l0.006,0.019v0.01c0.007,0.278,0.04,0.556,0.023,0.834
			c-0.021,0.278-0.03,0.558-0.097,0.832c-0.102,0.551-0.32,1.077-0.605,1.555c-0.569,0.962-1.433,1.732-2.44,2.193L20.386,18.107z"
			/>
	</g>
</g>
</svg>
