<?xml version="1.0" encoding="utf-8"?>
<!-- Generator: Adobe Illustrator 16.0.0, SVG Export Plug-In . SVG Version: 6.00 Build 0)  -->
<!DOCTYPE svg PUBLIC "-//W3C//DTD SVG 1.1//EN" "http://www.w3.org/Graphics/SVG/1.1/DTD/svg11.dtd">
<svg version="1.1" id="Ebene_1" xmlns="http://www.w3.org/2000/svg" xmlns:xlink="http://www.w3.org/1999/xlink" x="0px" y="0px"
	 width="45px" height="45px" viewBox="0 0 45 45" enable-background="new 0 0 45 45" xml:space="preserve">
<g>
	<path fill="#1D1D1B" d="M6.389,3.465C6.106,3.528,5.843,3.616,5.591,3.731C5.469,3.799,5.338,3.831,5.226,3.903L4.893,4.101
		L4.62,4.345C4.518,4.412,4.481,4.532,4.413,4.615C4.348,4.703,4.287,4.79,4.272,4.9C4.245,5.003,4.216,5.098,4.184,5.188
		l0.032-0.127C4.232,5.631,4.188,6.189,4.18,6.75C4.167,7.309,4.152,7.865,4.125,8.417l-0.076,3.294
		c0.007,1.09,0.008,2.171,0.06,3.24c0.071,1.067,0.166,2.123,0.325,3.153c0.084,0.514,0.186,1.023,0.321,1.516
		c0.115,0.5,0.251,0.992,0.429,1.46c0.165,0.477,0.379,0.927,0.61,1.363c0.221,0.444,0.486,0.861,0.793,1.245
		c0.306,0.387,0.639,0.756,1.018,1.087c0.375,0.337,0.798,0.623,1.242,0.902c0.218,0.151,0.455,0.269,0.696,0.384
		c0.238,0.124,0.484,0.238,0.743,0.324c0.508,0.201,1.04,0.357,1.585,0.535l0.021,0.007c0.039,0.013,0.06,0.054,0.047,0.093
		c-0.011,0.033-0.044,0.054-0.078,0.05c-0.56-0.06-1.123-0.101-1.673-0.233c-0.279-0.045-0.551-0.121-0.82-0.209
		c-0.271-0.079-0.542-0.162-0.798-0.282c-1.048-0.425-2.009-1.073-2.789-1.897c-0.393-0.408-0.743-0.859-1.042-1.34
		c-0.309-0.475-0.571-0.98-0.79-1.501c-0.23-0.517-0.414-1.053-0.569-1.596c-0.162-0.541-0.284-1.093-0.387-1.647
		c-0.42-2.221-0.419-4.489-0.292-6.727C2.833,9.394,3.149,7.17,3.485,4.958l0.001-0.009l0.003-0.01l0.214-0.394
		C3.763,4.405,3.868,4.3,3.978,4.198C4.089,4.101,4.175,3.97,4.311,3.906l0.378-0.229L5.1,3.521C5.236,3.466,5.382,3.448,5.522,3.41
		c0.283-0.062,0.577-0.092,0.866-0.096c0.041,0,0.075,0.033,0.075,0.073c0,0.036-0.024,0.066-0.058,0.073L6.389,3.465z"/>
</g>
<g>
	<path fill="#1D1D1B" d="M17.343,3.314c0.288-0.053,0.596-0.08,0.901-0.071c0.31,0.001,0.613,0.083,0.928,0.162l0.458,0.203
		c0.163,0.056,0.286,0.191,0.432,0.294c0.145,0.108,0.286,0.224,0.381,0.384c0.108,0.149,0.215,0.305,0.318,0.466l0.032,0.128
		c0.174,0.538,0.292,1.087,0.438,1.637c0.142,0.549,0.271,1.104,0.376,1.663c0.229,1.117,0.415,2.249,0.52,3.396
		c0.13,1.146,0.176,2.306,0.143,3.475c-0.019,0.585-0.042,1.172-0.097,1.761c-0.071,0.587-0.155,1.175-0.272,1.762
		c-0.22,1.175-0.569,2.35-1.113,3.462c-0.264,0.556-0.562,1.107-0.938,1.613c-0.365,0.508-0.786,0.984-1.251,1.41
		c-0.454,0.435-0.978,0.799-1.524,1.096c-0.544,0.297-1.11,0.554-1.705,0.689c-0.29,0.09-0.587,0.139-0.883,0.182
		c-0.293,0.054-0.585,0.093-0.88,0.1c-0.582,0.066-1.168-0.002-1.736-0.056l-0.008-0.001c-0.041-0.004-0.071-0.04-0.067-0.081
		c0.003-0.036,0.031-0.063,0.066-0.067c0.552-0.064,1.108-0.111,1.648-0.246c0.274-0.047,0.54-0.125,0.803-0.215
		c0.266-0.079,0.53-0.162,0.78-0.283c1.022-0.426,1.95-1.066,2.701-1.877c0.378-0.4,0.715-0.844,1.002-1.316
		c0.296-0.466,0.547-0.962,0.757-1.475c0.22-0.508,0.396-1.036,0.542-1.57c0.153-0.533,0.269-1.078,0.365-1.625
		c0.75-4.404,0.237-8.915-0.397-13.33l0.005,0.018l-0.193-0.361c-0.051-0.13-0.147-0.227-0.248-0.321
		c-0.103-0.09-0.177-0.213-0.305-0.273l-0.353-0.218L18.58,3.676c-0.129-0.054-0.27-0.073-0.404-0.111
		c-0.274-0.062-0.552-0.094-0.833-0.1c-0.041-0.001-0.074-0.035-0.073-0.076c0.001-0.036,0.027-0.065,0.061-0.072L17.343,3.314z"/>
</g>
<g>
	<path fill="#1D1D1B" d="M36.137,11.633c0,0-0.008,0.104-0.021,0.297c-0.032,0.193,0.012,0.477-0.117,0.837
		c-0.054,0.179-0.097,0.387-0.178,0.597c-0.103,0.199-0.191,0.427-0.303,0.668c-0.129,0.227-0.303,0.45-0.473,0.699
		c-0.209,0.222-0.43,0.455-0.658,0.697c-0.525,0.413-1.182,0.845-1.994,1.008l-0.305,0.069l-0.156,0.034l-0.08,0.017l-0.107-0.001
		l-0.034,0.001c-0.185,0.008-0.37,0.016-0.558,0.024c-0.17,0.024-0.406-0.007-0.661-0.057c-0.241-0.047-0.515-0.084-0.745-0.164
		c-0.924-0.282-1.797-0.877-2.451-1.713c-0.652-0.847-0.951-1.938-1.016-3.021l0.01-0.155l0.002-0.02l0.005-0.039l0.011-0.077
		l0.02-0.154l0.04-0.307c0.006-0.168,0.095-0.486,0.187-0.778c0.152-0.624,0.456-1.049,0.747-1.49
		c0.652-0.836,1.529-1.425,2.448-1.71c0.924-0.245,1.852-0.311,2.637-0.079c0.323,0.053,0.748,0.244,1.104,0.406
		c0.357,0.164,0.617,0.414,0.896,0.601c0.229,0.242,0.449,0.475,0.658,0.695c0.17,0.25,0.344,0.472,0.475,0.699
		c0.111,0.241,0.199,0.469,0.303,0.667c0.08,0.208,0.122,0.413,0.176,0.59c0.129,0.352,0.087,0.653,0.119,0.847
		c0.014,0.196,0.021,0.301,0.021,0.301V11.633z M35.986,11.625c0,0-0.011-0.101-0.031-0.29c-0.038-0.186-0.006-0.476-0.142-0.808
		c-0.058-0.167-0.103-0.36-0.187-0.556c-0.103-0.187-0.214-0.389-0.333-0.605c-0.141-0.201-0.321-0.394-0.495-0.609
		c-0.198-0.19-0.433-0.365-0.667-0.555c-0.532-0.3-1.108-0.589-1.823-0.636c-0.689-0.116-1.426,0.053-2.121,0.321
		c-0.687,0.317-1.285,0.84-1.741,1.483c-0.423,0.674-0.636,1.437-0.669,2.255c0.03,0.799,0.246,1.585,0.67,2.255
		c0.455,0.643,1.055,1.166,1.74,1.483c0.662,0.263,1.46,0.44,2.121,0.321c0.695-0.043,1.301-0.338,1.823-0.636
		c0.234-0.19,0.469-0.365,0.667-0.555c0.174-0.215,0.354-0.408,0.495-0.609c0.119-0.216,0.23-0.418,0.333-0.605
		c0.083-0.195,0.127-0.385,0.186-0.55c0.135-0.325,0.105-0.629,0.143-0.815c0.021-0.193,0.031-0.295,0.031-0.295V11.625z"/>
</g>
<g>
	<path fill="#1D1D1B" d="M33.553,11.633c0,0-0.002,0.04-0.007,0.115c-0.01,0.077,0.002,0.18-0.038,0.331
		c-0.02,0.156-0.08,0.327-0.148,0.539c-0.084,0.207-0.227,0.412-0.412,0.658c-0.205,0.21-0.477,0.454-0.846,0.602l-0.143,0.056
		l-0.073,0.027l-0.038,0.013c0.063,0.004-0.091-0.003-0.076-0.002l-0.004,0.001l-0.006,0.002l-0.014,0.004l-0.223,0.065
		c-0.108,0.055-0.503,0.026-0.74-0.027c-0.487-0.097-0.973-0.369-1.34-0.797c-0.378-0.423-0.563-1.013-0.584-1.594l0.01-0.151
		l0.002-0.015l0.004-0.03l0.008-0.06l0.018-0.119c-0.002-0.04,0.043-0.24,0.102-0.411c0.106-0.374,0.274-0.583,0.447-0.805
		c0.364-0.428,0.853-0.695,1.336-0.794c0.486-0.081,0.956-0.026,1.306,0.138c0.104,0.053,0.327,0.169,0.483,0.274
		c0.162,0.099,0.26,0.224,0.369,0.325c0.186,0.246,0.329,0.449,0.414,0.655c0.068,0.213,0.129,0.381,0.146,0.533
		c0.055,0.291,0.048,0.459,0.048,0.459L33.553,11.633z M33.403,11.625c0,0-0.005-0.038-0.013-0.109
		c-0.016-0.069-0.004-0.179-0.057-0.303c-0.031-0.131-0.102-0.275-0.198-0.434c-0.107-0.151-0.252-0.301-0.438-0.431
		c-0.205-0.111-0.402-0.212-0.68-0.229c-0.258-0.042-0.529,0.025-0.784,0.126c-0.253,0.12-0.471,0.315-0.636,0.552
		c-0.152,0.251-0.225,0.517-0.236,0.828c0.009,0.292,0.084,0.58,0.236,0.828c0.166,0.237,0.383,0.433,0.636,0.552
		c0.223,0.095,0.556,0.17,0.783,0.126c0.259-0.013,0.485-0.121,0.681-0.229c0.186-0.13,0.331-0.28,0.438-0.431
		c0.098-0.159,0.167-0.302,0.197-0.428c0.052-0.117,0.042-0.24,0.058-0.311c0.009-0.075,0.014-0.114,0.014-0.114L33.403,11.625z"/>
</g>
<g>
	<path fill="#1D1D1B" d="M11.939,27.008c0,0-0.065,0.419-0.086,1.21c-0.017,0.79,0.016,1.952,0.249,3.39
		c0.264,1.424,0.787,3.147,1.94,4.74c1.14,1.598,2.964,2.931,5.243,3.68c1.119,0.438,2.401,0.562,3.689,0.758
		c0.662,0.02,1.334,0.039,2.017,0.06l0.513,0.017l0.129,0.004h0.031c-0.066,0.002,0.001,0-0.006,0l0.067-0.005l0.269-0.018
		c0.359-0.024,0.722-0.048,1.086-0.071c2.654-0.297,5.496-1.309,7.512-3.328c1.01-1.004,1.811-2.24,2.328-3.607
		c0.488-1.374,0.711-2.873,0.561-4.33c-0.074-0.73-0.252-1.438-0.497-2.111c-0.278-0.654-0.616-1.279-1.063-1.803
		c-0.457-0.508-0.975-0.952-1.574-1.257c-0.611-0.278-1.251-0.519-1.958-0.562c-0.339-0.077-0.708-0.029-1.062-0.056
		c-0.18,0-0.364,0.034-0.546,0.047l-0.461,0.045l-1.239,0.286c-0.3,0.132-0.584,0.253-0.886,0.364
		c-1.236,0.623-2.123,1.691-2.508,2.971c-0.414,1.277-0.229,2.739,0.331,3.982c0.562,1.252,1.532,2.299,2.716,2.951
		c2.406,1.401,5.295,0.998,7.385-0.67c2.119-1.611,3.523-3.966,4.303-6.238c0.404-1.145,0.598-2.297,0.715-3.395
		c0.121-1.101,0.084-2.16-0.076-3.135c-0.285-1.966-1.086-3.566-1.953-4.713c-0.859-1.167-1.77-1.896-2.387-2.381
		c-0.654-0.444-1.004-0.681-1.004-0.681l-0.01-0.007c-0.034-0.023-0.043-0.069-0.02-0.104c0.021-0.033,0.066-0.042,0.1-0.022
		c0,0,0.367,0.219,1.055,0.629c0.65,0.459,1.638,1.135,2.578,2.311c0.952,1.148,1.869,2.787,2.264,4.843
		c0.438,2.04,0.326,4.463-0.413,6.917c-0.764,2.431-2.157,4.977-4.462,6.846c-1.141,0.927-2.547,1.644-4.101,1.84
		c-1.535,0.221-3.202-0.105-4.596-0.896c-1.425-0.765-2.619-2.015-3.317-3.528c-0.696-1.502-0.951-3.285-0.453-4.932
		c0.461-1.646,1.646-3.086,3.188-3.874l1.206-0.498l1.236-0.299c0.444-0.067,0.86-0.112,1.294-0.144
		c0.431,0.019,0.866-0.032,1.294,0.051c0.867,0.062,1.699,0.37,2.477,0.745c0.771,0.404,1.436,0.982,2,1.635
		c0.555,0.666,0.961,1.433,1.281,2.225c0.287,0.807,0.482,1.641,0.559,2.486c0.156,1.689-0.119,3.387-0.691,4.941
		c-0.602,1.545-1.528,2.938-2.684,4.061c-2.321,2.287-5.463,3.275-8.374,3.508c-1.456,0.117-2.893-0.041-4.266-0.106
		c-1.356-0.241-2.691-0.414-3.881-0.915c-2.42-0.852-4.345-2.406-5.471-4.164c-1.147-1.754-1.601-3.567-1.807-5.039
		c-0.182-1.486-0.125-2.665-0.067-3.461c0.068-0.798,0.159-1.219,0.159-1.219c0.009-0.04,0.049-0.066,0.089-0.057
		C11.92,26.932,11.945,26.97,11.939,27.008z"/>
</g>
<ellipse fill="#1D1D1B" cx="17.298" cy="3.39" rx="1.743" ry="1.269"/>
<ellipse fill="#1D1D1B" cx="6.443" cy="3.39" rx="1.743" ry="1.269"/>
</svg>
