<?xml version="1.0" encoding="utf-8"?>
<!-- Generator: Adobe Illustrator 16.0.0, SVG Export Plug-In . SVG Version: 6.00 Build 0)  -->
<!DOCTYPE svg PUBLIC "-//W3C//DTD SVG 1.0//EN" "http://www.w3.org/TR/2001/REC-SVG-20010904/DTD/svg10.dtd">
<svg version="1.0" id="Ebene_1" xmlns="http://www.w3.org/2000/svg" xmlns:xlink="http://www.w3.org/1999/xlink" x="0px" y="0px"
	 width="45px" height="45px" viewBox="0 0 45 45" enable-background="new 0 0 45 45" xml:space="preserve">
<g>
	<path d="M34.67,14.754c-1.658-1.268-3.208-2.644-4.813-3.964h0.955c-0.357,0.441-0.749,0.847-1.122,1.271l-1.131,1.261
		l-2.263,2.522c-1.488,1.702-3.083,3.298-4.62,4.951l-2.368,2.417c-0.794,0.801-1.572,1.618-2.379,2.406
		c-1.618,1.572-3.201,3.18-4.848,4.723l0.197-1.52c0.22,0.387,0.491,0.822,0.767,1.203c0.136,0.199,0.273,0.398,0.425,0.566
		l0.221,0.266l0.11,0.134l0.055,0.067l0.027,0.034l0.014,0.017l0.007,0.008l0.003,0.004l0.001,0.002l0.001,0.001
		c-0.094-0.088-0.025-0.024-0.046-0.043l0.57,0.539c0.191,0.2,0.364,0.34,0.537,0.481c0.325,0.285,0.748,0.602,1.123,0.864
		l-1.226,0.153l2.312-2.042c0.776-0.675,1.53-1.374,2.325-2.03c1.603-1.3,3.153-2.652,4.809-3.898l0.008-0.005
		c0.033-0.025,0.08-0.019,0.104,0.015c0.023,0.03,0.019,0.072-0.007,0.098l-8.761,8.667c-0.036,0.036-0.092,0.042-0.133,0.017
		c-0.453-0.275-0.89-0.564-1.313-0.887c-0.442-0.301-0.807-0.672-1.207-1.011c-0.354-0.41-0.729-0.777-1.03-1.214
		c-0.323-0.419-0.615-0.855-0.893-1.307c-0.031-0.05-0.02-0.116,0.02-0.156c6.344-6.417,12.778-12.746,19.167-19.118
		c0.036-0.036,0.095-0.036,0.131,0h0l4.376,4.401c0.029,0.029,0.029,0.077,0,0.106c-0.027,0.026-0.069,0.029-0.098,0.006
		L34.67,14.754z"/>
</g>
<g>
	<path d="M31.383,10.761c0.009-0.347,0.064-0.646,0.137-0.928c0.029-0.148,0.082-0.273,0.126-0.406
		c0.046-0.131,0.089-0.267,0.152-0.381c0.114-0.241,0.227-0.483,0.377-0.688c0.133-0.222,0.284-0.427,0.458-0.608
		c0.485-0.506,1.284-0.531,1.8-0.062L34.5,7.75c0.12,0.109,0.251,0.207,0.361,0.325l0.32,0.367c0.228,0.23,0.38,0.536,0.566,0.808
		l0.225,0.462c0.075,0.154,0.124,0.334,0.187,0.5c0.06,0.169,0.096,0.362,0.141,0.546c0.034,0.195,0.06,0.398,0.067,0.62
		l0.001,0.056c0.001,0.036-0.027,0.065-0.062,0.067c-0.018,0-0.033-0.006-0.045-0.017c-0.482-0.434-0.949-0.882-1.411-1.336
		c-0.46-0.455-0.938-0.894-1.385-1.362h0.203c-0.725,0.696-1.43,1.412-2.179,2.083c-0.027,0.023-0.067,0.021-0.091-0.005
		c-0.011-0.013-0.017-0.028-0.016-0.044L31.383,10.761z"/>
</g>
<rect x="11.003" y="31.722" transform="matrix(-0.7071 -0.7071 0.7071 -0.7071 -3.3832 65.0386)" width="1.551" height="2.995"/>
<g>
	<path d="M32.731,6.449c0.065-0.414,0.184-0.774,0.316-1.122l0.1-0.263l0.812,0.263c0.18,0.058,0.333,0.144,0.498,0.216
		c0.165,0.074,0.325,0.151,0.471,0.243c0.305,0.17,0.601,0.351,0.868,0.56c0.285,0.191,0.54,0.412,0.786,0.642
		c0.259,0.217,0.494,0.458,0.712,0.715c0.233,0.243,0.449,0.503,0.641,0.787c0.21,0.266,0.387,0.565,0.559,0.869
		c0.176,0.3,0.323,0.629,0.459,0.969c0.132,0.344,0.249,0.704,0.315,1.113l-0.106,0.106c-0.992-0.912-1.938-1.87-2.905-2.807
		c-0.957-0.947-1.889-1.918-2.83-2.882h0.152l-0.742,0.696L32.731,6.449z"/>
</g>
<rect x="6.244" y="32.893" transform="matrix(0.7077 0.7066 -0.7066 0.7077 29.1193 6.6978)" width="0.444" height="11.289"/>
</svg>
