<?xml version="1.0" encoding="utf-8"?>
<!-- Generator: Adobe Illustrator 16.0.0, SVG Export Plug-In . SVG Version: 6.00 Build 0)  -->
<!DOCTYPE svg PUBLIC "-//W3C//DTD SVG 1.0//EN" "http://www.w3.org/TR/2001/REC-SVG-20010904/DTD/svg10.dtd">
<svg version="1.0" id="Ebene_1" xmlns="http://www.w3.org/2000/svg" xmlns:xlink="http://www.w3.org/1999/xlink" x="0px" y="0px"
	 width="45px" height="45px" viewBox="0 0 45 45" enable-background="new 0 0 45 45" xml:space="preserve">
<g>
	<path d="M15.16,38.308c-2.546-2.24-6.353-6.23-4.445-14.192c1.158-4.834-0.14-8.398-1.183-11.262
		c-0.49-1.347-0.914-2.51-1.029-3.608C8.305,7.374,8.744,5.695,9.739,4.518c1.017-1.203,2.546-1.877,4.547-2.002
		c0.353-0.022,0.706-0.032,1.058-0.032c1.493,0,2.968,0.174,4.394,0.341c1.253,0.148,2.436,0.287,3.491,0.287
		c0.905,0,1.638-0.105,2.238-0.326c-0.474,0.41-1.456,0.797-2.982,0.797c-0.834,0-1.735-0.119-2.677-0.352
		c-0.633-0.157-1.312-0.237-2.015-0.237c-2.926,0-5.74,1.366-7.004,3.399c-0.733,1.18-1.325,3.16,0.024,5.893
		c2.92,5.922,2.273,7.639,1.2,10.484c-0.202,0.536-0.418,1.11-0.63,1.756C10.157,28.267,11.716,32.362,15.16,38.308z"/>
	<path d="M21.418,42.857c-2.345-3.731-6.693-12.593-2.591-22.153c0.522-1.218,0.942-1.312,1.059-1.312
		c0.112,0,0.231,0.066,0.354,0.196c0.489,0.515,0.812,1.762,0.753,2.9c-0.062,1.178,0.34,3.039,0.663,4.535
		c0.003,0.015,0.006,0.029,0.009,0.043c-0.751-2.164-1.482-3.836-2.428-3.836c-0.332,0-0.628,0.204-0.881,0.607
		C17.12,25.805,19.445,36.372,21.418,42.857z"/>
	<path d="M25.09,40.05c-0.538-2.435-0.998-8.757,4.94-18.143c0.84-1.327,1.612-2.504,2.306-3.562
		c3.507-5.348,5.108-7.788,3.208-11.14c-0.733-1.292-1.883-1.87-3.727-1.87c-2.578,0-6.825,1.188-13.366,3.738
		c-0.024,0.009-0.048,0.019-0.071,0.027c1.247-0.832,8.727-5.667,14.099-5.667c2.268,0,3.865,0.875,4.747,2.602
		c2.747,5.379-1.335,10.42-4.315,14.102c-0.668,0.826-1.3,1.605-1.757,2.28C28.58,26.206,24.499,34.068,25.09,40.05z"/>
</g>
</svg>
