<?xml version="1.0" encoding="utf-8"?>
<!-- Generator: Adobe Illustrator 16.0.0, SVG Export Plug-In . SVG Version: 6.00 Build 0)  -->
<!DOCTYPE svg PUBLIC "-//W3C//DTD SVG 1.1//EN" "http://www.w3.org/Graphics/SVG/1.1/DTD/svg11.dtd">
<svg version="1.1" id="Ebene_1" xmlns="http://www.w3.org/2000/svg" xmlns:xlink="http://www.w3.org/1999/xlink" x="0px" y="0px"
	 width="50px" height="50px" viewBox="0 0 50 50" enable-background="new 0 0 50 50" xml:space="preserve">
<path fill="#707173" d="M14.018,35.346c-5.542-5.959-5.443-15.296,0.312-21.093c2.355-2.372,5.3-3.789,8.363-4.254l-0.171-5.085
	c-4.297,0.522-8.456,2.439-11.75,5.757c-7.714,7.77-7.806,20.308-0.302,28.247l-4.264,4.295l13.496,0.736l-0.037-14.291
	L14.018,35.346z M30.296,6.052l0.037,14.292l5.65-5.689c5.541,5.959,5.443,15.296-0.312,21.093
	c-2.355,2.374-5.301,3.789-8.365,4.253l0.17,5.087c4.3-0.523,8.458-2.439,11.752-5.757c7.715-7.771,7.806-20.309,0.302-28.248
	l4.262-4.294L30.296,6.052z"/>
</svg>
